<?xml version="1.0" encoding="utf-8" standalone="no"?>
<!DOCTYPE svg PUBLIC "-//W3C//DTD SVG 1.1//EN"
  "http://www.w3.org/Graphics/SVG/1.1/DTD/svg11.dtd">
<!-- Created with matplotlib (https://matplotlib.org/) -->
<svg height="262.19625pt" version="1.1" viewBox="0 0 390.982812 262.19625" width="390.982812pt" xmlns="http://www.w3.org/2000/svg" xmlns:xlink="http://www.w3.org/1999/xlink">
 <defs>
  <style type="text/css">
*{stroke-linecap:butt;stroke-linejoin:round;}
  </style>
 </defs>
 <g id="figure_1">
  <g id="patch_1">
   <path d="M 0 262.19625 
L 390.982812 262.19625 
L 390.982812 0 
L 0 0 
z
" style="fill:#ffffff;"/>
  </g>
  <g id="axes_1">
   <g id="patch_2">
    <path d="M 48.982813 224.64 
L 383.782813 224.64 
L 383.782813 7.2 
L 48.982813 7.2 
z
" style="fill:#ffffff;"/>
   </g>
   <g id="matplotlib.axis_1">
    <g id="xtick_1">
     <g id="line2d_1">
      <defs>
       <path d="M 0 0 
L 0 3.5 
" id="mb7a6bf23f3" style="stroke:#000000;stroke-width:0.8;"/>
      </defs>
      <g>
       <use style="stroke:#000000;stroke-width:0.8;" x="64.200994" xlink:href="#mb7a6bf23f3" y="224.64"/>
      </g>
     </g>
     <g id="text_1">
      <!-- 0 -->
      <defs>
       <path d="M 31.78125 66.40625 
Q 24.171875 66.40625 20.328125 58.90625 
Q 16.5 51.421875 16.5 36.375 
Q 16.5 21.390625 20.328125 13.890625 
Q 24.171875 6.390625 31.78125 6.390625 
Q 39.453125 6.390625 43.28125 13.890625 
Q 47.125 21.390625 47.125 36.375 
Q 47.125 51.421875 43.28125 58.90625 
Q 39.453125 66.40625 31.78125 66.40625 
z
M 31.78125 74.21875 
Q 44.046875 74.21875 50.515625 64.515625 
Q 56.984375 54.828125 56.984375 36.375 
Q 56.984375 17.96875 50.515625 8.265625 
Q 44.046875 -1.421875 31.78125 -1.421875 
Q 19.53125 -1.421875 13.0625 8.265625 
Q 6.59375 17.96875 6.59375 36.375 
Q 6.59375 54.828125 13.0625 64.515625 
Q 19.53125 74.21875 31.78125 74.21875 
z
" id="DejaVuSans-48"/>
      </defs>
      <g transform="translate(61.019744 239.238438)scale(0.1 -0.1)">
       <use xlink:href="#DejaVuSans-48"/>
      </g>
     </g>
    </g>
    <g id="xtick_2">
     <g id="line2d_2">
      <g>
       <use style="stroke:#000000;stroke-width:0.8;" x="111.316108" xlink:href="#mb7a6bf23f3" y="224.64"/>
      </g>
     </g>
     <g id="text_2">
      <!-- 50 -->
      <defs>
       <path d="M 10.796875 72.90625 
L 49.515625 72.90625 
L 49.515625 64.59375 
L 19.828125 64.59375 
L 19.828125 46.734375 
Q 21.96875 47.46875 24.109375 47.828125 
Q 26.265625 48.1875 28.421875 48.1875 
Q 40.625 48.1875 47.75 41.5 
Q 54.890625 34.8125 54.890625 23.390625 
Q 54.890625 11.625 47.5625 5.09375 
Q 40.234375 -1.421875 26.90625 -1.421875 
Q 22.3125 -1.421875 17.546875 -0.640625 
Q 12.796875 0.140625 7.71875 1.703125 
L 7.71875 11.625 
Q 12.109375 9.234375 16.796875 8.0625 
Q 21.484375 6.890625 26.703125 6.890625 
Q 35.15625 6.890625 40.078125 11.328125 
Q 45.015625 15.765625 45.015625 23.390625 
Q 45.015625 31 40.078125 35.4375 
Q 35.15625 39.890625 26.703125 39.890625 
Q 22.75 39.890625 18.8125 39.015625 
Q 14.890625 38.140625 10.796875 36.28125 
z
" id="DejaVuSans-53"/>
      </defs>
      <g transform="translate(104.953608 239.238438)scale(0.1 -0.1)">
       <use xlink:href="#DejaVuSans-53"/>
       <use x="63.623047" xlink:href="#DejaVuSans-48"/>
      </g>
     </g>
    </g>
    <g id="xtick_3">
     <g id="line2d_3">
      <g>
       <use style="stroke:#000000;stroke-width:0.8;" x="158.431222" xlink:href="#mb7a6bf23f3" y="224.64"/>
      </g>
     </g>
     <g id="text_3">
      <!-- 100 -->
      <defs>
       <path d="M 12.40625 8.296875 
L 28.515625 8.296875 
L 28.515625 63.921875 
L 10.984375 60.40625 
L 10.984375 69.390625 
L 28.421875 72.90625 
L 38.28125 72.90625 
L 38.28125 8.296875 
L 54.390625 8.296875 
L 54.390625 0 
L 12.40625 0 
z
" id="DejaVuSans-49"/>
      </defs>
      <g transform="translate(148.887472 239.238438)scale(0.1 -0.1)">
       <use xlink:href="#DejaVuSans-49"/>
       <use x="63.623047" xlink:href="#DejaVuSans-48"/>
       <use x="127.246094" xlink:href="#DejaVuSans-48"/>
      </g>
     </g>
    </g>
    <g id="xtick_4">
     <g id="line2d_4">
      <g>
       <use style="stroke:#000000;stroke-width:0.8;" x="205.546336" xlink:href="#mb7a6bf23f3" y="224.64"/>
      </g>
     </g>
     <g id="text_4">
      <!-- 150 -->
      <g transform="translate(196.002586 239.238438)scale(0.1 -0.1)">
       <use xlink:href="#DejaVuSans-49"/>
       <use x="63.623047" xlink:href="#DejaVuSans-53"/>
       <use x="127.246094" xlink:href="#DejaVuSans-48"/>
      </g>
     </g>
    </g>
    <g id="xtick_5">
     <g id="line2d_5">
      <g>
       <use style="stroke:#000000;stroke-width:0.8;" x="252.66145" xlink:href="#mb7a6bf23f3" y="224.64"/>
      </g>
     </g>
     <g id="text_5">
      <!-- 200 -->
      <defs>
       <path d="M 19.1875 8.296875 
L 53.609375 8.296875 
L 53.609375 0 
L 7.328125 0 
L 7.328125 8.296875 
Q 12.9375 14.109375 22.625 23.890625 
Q 32.328125 33.6875 34.8125 36.53125 
Q 39.546875 41.84375 41.421875 45.53125 
Q 43.3125 49.21875 43.3125 52.78125 
Q 43.3125 58.59375 39.234375 62.25 
Q 35.15625 65.921875 28.609375 65.921875 
Q 23.96875 65.921875 18.8125 64.3125 
Q 13.671875 62.703125 7.8125 59.421875 
L 7.8125 69.390625 
Q 13.765625 71.78125 18.9375 73 
Q 24.125 74.21875 28.421875 74.21875 
Q 39.75 74.21875 46.484375 68.546875 
Q 53.21875 62.890625 53.21875 53.421875 
Q 53.21875 48.921875 51.53125 44.890625 
Q 49.859375 40.875 45.40625 35.40625 
Q 44.1875 33.984375 37.640625 27.21875 
Q 31.109375 20.453125 19.1875 8.296875 
z
" id="DejaVuSans-50"/>
      </defs>
      <g transform="translate(243.1177 239.238438)scale(0.1 -0.1)">
       <use xlink:href="#DejaVuSans-50"/>
       <use x="63.623047" xlink:href="#DejaVuSans-48"/>
       <use x="127.246094" xlink:href="#DejaVuSans-48"/>
      </g>
     </g>
    </g>
    <g id="xtick_6">
     <g id="line2d_6">
      <g>
       <use style="stroke:#000000;stroke-width:0.8;" x="299.776564" xlink:href="#mb7a6bf23f3" y="224.64"/>
      </g>
     </g>
     <g id="text_6">
      <!-- 250 -->
      <g transform="translate(290.232814 239.238438)scale(0.1 -0.1)">
       <use xlink:href="#DejaVuSans-50"/>
       <use x="63.623047" xlink:href="#DejaVuSans-53"/>
       <use x="127.246094" xlink:href="#DejaVuSans-48"/>
      </g>
     </g>
    </g>
    <g id="xtick_7">
     <g id="line2d_7">
      <g>
       <use style="stroke:#000000;stroke-width:0.8;" x="346.891678" xlink:href="#mb7a6bf23f3" y="224.64"/>
      </g>
     </g>
     <g id="text_7">
      <!-- 300 -->
      <defs>
       <path d="M 40.578125 39.3125 
Q 47.65625 37.796875 51.625 33 
Q 55.609375 28.21875 55.609375 21.1875 
Q 55.609375 10.40625 48.1875 4.484375 
Q 40.765625 -1.421875 27.09375 -1.421875 
Q 22.515625 -1.421875 17.65625 -0.515625 
Q 12.796875 0.390625 7.625 2.203125 
L 7.625 11.71875 
Q 11.71875 9.328125 16.59375 8.109375 
Q 21.484375 6.890625 26.8125 6.890625 
Q 36.078125 6.890625 40.9375 10.546875 
Q 45.796875 14.203125 45.796875 21.1875 
Q 45.796875 27.640625 41.28125 31.265625 
Q 36.765625 34.90625 28.71875 34.90625 
L 20.21875 34.90625 
L 20.21875 43.015625 
L 29.109375 43.015625 
Q 36.375 43.015625 40.234375 45.921875 
Q 44.09375 48.828125 44.09375 54.296875 
Q 44.09375 59.90625 40.109375 62.90625 
Q 36.140625 65.921875 28.71875 65.921875 
Q 24.65625 65.921875 20.015625 65.03125 
Q 15.375 64.15625 9.8125 62.3125 
L 9.8125 71.09375 
Q 15.4375 72.65625 20.34375 73.4375 
Q 25.25 74.21875 29.59375 74.21875 
Q 40.828125 74.21875 47.359375 69.109375 
Q 53.90625 64.015625 53.90625 55.328125 
Q 53.90625 49.265625 50.4375 45.09375 
Q 46.96875 40.921875 40.578125 39.3125 
z
" id="DejaVuSans-51"/>
      </defs>
      <g transform="translate(337.347928 239.238438)scale(0.1 -0.1)">
       <use xlink:href="#DejaVuSans-51"/>
       <use x="63.623047" xlink:href="#DejaVuSans-48"/>
       <use x="127.246094" xlink:href="#DejaVuSans-48"/>
      </g>
     </g>
    </g>
    <g id="text_8">
     <!-- num -->
     <defs>
      <path d="M 54.890625 33.015625 
L 54.890625 0 
L 45.90625 0 
L 45.90625 32.71875 
Q 45.90625 40.484375 42.875 44.328125 
Q 39.84375 48.1875 33.796875 48.1875 
Q 26.515625 48.1875 22.3125 43.546875 
Q 18.109375 38.921875 18.109375 30.90625 
L 18.109375 0 
L 9.078125 0 
L 9.078125 54.6875 
L 18.109375 54.6875 
L 18.109375 46.1875 
Q 21.34375 51.125 25.703125 53.5625 
Q 30.078125 56 35.796875 56 
Q 45.21875 56 50.046875 50.171875 
Q 54.890625 44.34375 54.890625 33.015625 
z
" id="DejaVuSans-110"/>
      <path d="M 8.5 21.578125 
L 8.5 54.6875 
L 17.484375 54.6875 
L 17.484375 21.921875 
Q 17.484375 14.15625 20.5 10.265625 
Q 23.53125 6.390625 29.59375 6.390625 
Q 36.859375 6.390625 41.078125 11.03125 
Q 45.3125 15.671875 45.3125 23.6875 
L 45.3125 54.6875 
L 54.296875 54.6875 
L 54.296875 0 
L 45.3125 0 
L 45.3125 8.40625 
Q 42.046875 3.421875 37.71875 1 
Q 33.40625 -1.421875 27.6875 -1.421875 
Q 18.265625 -1.421875 13.375 4.4375 
Q 8.5 10.296875 8.5 21.578125 
z
M 31.109375 56 
z
" id="DejaVuSans-117"/>
      <path d="M 52 44.1875 
Q 55.375 50.25 60.0625 53.125 
Q 64.75 56 71.09375 56 
Q 79.640625 56 84.28125 50.015625 
Q 88.921875 44.046875 88.921875 33.015625 
L 88.921875 0 
L 79.890625 0 
L 79.890625 32.71875 
Q 79.890625 40.578125 77.09375 44.375 
Q 74.3125 48.1875 68.609375 48.1875 
Q 61.625 48.1875 57.5625 43.546875 
Q 53.515625 38.921875 53.515625 30.90625 
L 53.515625 0 
L 44.484375 0 
L 44.484375 32.71875 
Q 44.484375 40.625 41.703125 44.40625 
Q 38.921875 48.1875 33.109375 48.1875 
Q 26.21875 48.1875 22.15625 43.53125 
Q 18.109375 38.875 18.109375 30.90625 
L 18.109375 0 
L 9.078125 0 
L 9.078125 54.6875 
L 18.109375 54.6875 
L 18.109375 46.1875 
Q 21.1875 51.21875 25.484375 53.609375 
Q 29.78125 56 35.6875 56 
Q 41.65625 56 45.828125 52.96875 
Q 50 49.953125 52 44.1875 
z
" id="DejaVuSans-109"/>
     </defs>
     <g transform="translate(205.175 252.916563)scale(0.1 -0.1)">
      <use xlink:href="#DejaVuSans-110"/>
      <use x="63.378906" xlink:href="#DejaVuSans-117"/>
      <use x="126.757812" xlink:href="#DejaVuSans-109"/>
     </g>
    </g>
   </g>
   <g id="matplotlib.axis_2">
    <g id="ytick_1">
     <g id="line2d_8">
      <defs>
       <path d="M 0 0 
L -3.5 0 
" id="md78139b61e" style="stroke:#000000;stroke-width:0.8;"/>
      </defs>
      <g>
       <use style="stroke:#000000;stroke-width:0.8;" x="48.982813" xlink:href="#md78139b61e" y="205.38395"/>
      </g>
     </g>
     <g id="text_9">
      <!-- −50 -->
      <defs>
       <path d="M 10.59375 35.5 
L 73.1875 35.5 
L 73.1875 27.203125 
L 10.59375 27.203125 
z
" id="DejaVuSans-8722"/>
      </defs>
      <g transform="translate(20.878125 209.183169)scale(0.1 -0.1)">
       <use xlink:href="#DejaVuSans-8722"/>
       <use x="83.789062" xlink:href="#DejaVuSans-53"/>
       <use x="147.412109" xlink:href="#DejaVuSans-48"/>
      </g>
     </g>
    </g>
    <g id="ytick_2">
     <g id="line2d_9">
      <g>
       <use style="stroke:#000000;stroke-width:0.8;" x="48.982813" xlink:href="#md78139b61e" y="162.782069"/>
      </g>
     </g>
     <g id="text_10">
      <!-- 0 -->
      <g transform="translate(35.620312 166.581288)scale(0.1 -0.1)">
       <use xlink:href="#DejaVuSans-48"/>
      </g>
     </g>
    </g>
    <g id="ytick_3">
     <g id="line2d_10">
      <g>
       <use style="stroke:#000000;stroke-width:0.8;" x="48.982813" xlink:href="#md78139b61e" y="120.180188"/>
      </g>
     </g>
     <g id="text_11">
      <!-- 50 -->
      <g transform="translate(29.257812 123.979407)scale(0.1 -0.1)">
       <use xlink:href="#DejaVuSans-53"/>
       <use x="63.623047" xlink:href="#DejaVuSans-48"/>
      </g>
     </g>
    </g>
    <g id="ytick_4">
     <g id="line2d_11">
      <g>
       <use style="stroke:#000000;stroke-width:0.8;" x="48.982813" xlink:href="#md78139b61e" y="77.578307"/>
      </g>
     </g>
     <g id="text_12">
      <!-- 100 -->
      <g transform="translate(22.895312 81.377526)scale(0.1 -0.1)">
       <use xlink:href="#DejaVuSans-49"/>
       <use x="63.623047" xlink:href="#DejaVuSans-48"/>
       <use x="127.246094" xlink:href="#DejaVuSans-48"/>
      </g>
     </g>
    </g>
    <g id="ytick_5">
     <g id="line2d_12">
      <g>
       <use style="stroke:#000000;stroke-width:0.8;" x="48.982813" xlink:href="#md78139b61e" y="34.976426"/>
      </g>
     </g>
     <g id="text_13">
      <!-- 150 -->
      <g transform="translate(22.895312 38.775645)scale(0.1 -0.1)">
       <use xlink:href="#DejaVuSans-49"/>
       <use x="63.623047" xlink:href="#DejaVuSans-53"/>
       <use x="127.246094" xlink:href="#DejaVuSans-48"/>
      </g>
     </g>
    </g>
    <g id="text_14">
     <!-- err -->
     <defs>
      <path d="M 56.203125 29.59375 
L 56.203125 25.203125 
L 14.890625 25.203125 
Q 15.484375 15.921875 20.484375 11.0625 
Q 25.484375 6.203125 34.421875 6.203125 
Q 39.59375 6.203125 44.453125 7.46875 
Q 49.3125 8.734375 54.109375 11.28125 
L 54.109375 2.78125 
Q 49.265625 0.734375 44.1875 -0.34375 
Q 39.109375 -1.421875 33.890625 -1.421875 
Q 20.796875 -1.421875 13.15625 6.1875 
Q 5.515625 13.8125 5.515625 26.8125 
Q 5.515625 40.234375 12.765625 48.109375 
Q 20.015625 56 32.328125 56 
Q 43.359375 56 49.78125 48.890625 
Q 56.203125 41.796875 56.203125 29.59375 
z
M 47.21875 32.234375 
Q 47.125 39.59375 43.09375 43.984375 
Q 39.0625 48.390625 32.421875 48.390625 
Q 24.90625 48.390625 20.390625 44.140625 
Q 15.875 39.890625 15.1875 32.171875 
z
" id="DejaVuSans-101"/>
      <path d="M 41.109375 46.296875 
Q 39.59375 47.171875 37.8125 47.578125 
Q 36.03125 48 33.890625 48 
Q 26.265625 48 22.1875 43.046875 
Q 18.109375 38.09375 18.109375 28.8125 
L 18.109375 0 
L 9.078125 0 
L 9.078125 54.6875 
L 18.109375 54.6875 
L 18.109375 46.1875 
Q 20.953125 51.171875 25.484375 53.578125 
Q 30.03125 56 36.53125 56 
Q 37.453125 56 38.578125 55.875 
Q 39.703125 55.765625 41.0625 55.515625 
z
" id="DejaVuSans-114"/>
     </defs>
     <g transform="translate(14.798438 123.02)rotate(-90)scale(0.1 -0.1)">
      <use xlink:href="#DejaVuSans-101"/>
      <use x="61.523438" xlink:href="#DejaVuSans-114"/>
      <use x="100.886719" xlink:href="#DejaVuSans-114"/>
     </g>
    </g>
   </g>
   <g id="line2d_13">
    <path clip-path="url(#p8414e3ae31)" d="M 64.200994 174.710596 
L 65.143297 174.710596 
L 66.085599 170.450408 
L 67.027901 170.450408 
L 67.970203 163.634107 
L 68.912506 163.634107 
L 69.854808 156.817806 
L 70.79711 155.965768 
L 71.739413 152.557618 
L 72.681715 154.261693 
L 73.624017 152.557618 
L 74.566319 156.817806 
L 75.508622 160.225956 
L 76.450924 162.782069 
L 77.393226 168.746332 
L 78.335529 167.894295 
L 79.277831 172.154483 
L 80.220133 173.00652 
L 81.162435 171.302445 
L 82.104738 167.894295 
L 83.04704 166.190219 
L 83.989342 165.338182 
L 84.931644 163.634107 
L 85.873947 158.521881 
L 87.758551 158.521881 
L 88.700854 154.261693 
L 89.643156 157.669843 
L 90.585458 157.669843 
L 91.52776 156.817806 
L 92.470063 147.445392 
L 93.412365 150.001505 
L 94.354667 150.001505 
L 95.29697 150.853542 
L 97.181574 154.261693 
L 98.123876 155.11373 
L 99.066179 152.557618 
L 100.008481 152.557618 
L 100.950783 150.001505 
L 101.893086 148.297429 
L 102.835388 144.889279 
L 104.719992 141.481129 
L 105.662295 142.333166 
L 107.546899 138.925016 
L 108.489201 141.481129 
L 109.431504 143.185204 
L 110.373806 146.593354 
L 112.258411 158.521881 
L 113.200713 157.669843 
L 114.143015 161.930031 
L 115.085317 159.373918 
L 116.02762 159.373918 
L 118.854527 151.70558 
L 119.796829 148.297429 
L 120.739131 164.486144 
L 121.681433 164.486144 
L 123.566038 159.373918 
L 126.392945 156.817806 
L 127.335247 160.225956 
L 128.277549 166.190219 
L 129.219852 167.042257 
L 130.162154 164.486144 
L 131.104456 167.894295 
L 132.046758 167.894295 
L 132.989061 166.190219 
L 133.931363 167.894295 
L 134.873665 165.338182 
L 135.815968 161.077994 
L 136.75827 162.782069 
L 137.700572 161.077994 
L 139.585177 154.261693 
L 140.527479 184.083009 
L 141.469781 181.526897 
L 142.412084 184.935047 
L 143.354386 166.190219 
L 144.296688 171.302445 
L 145.23899 180.674859 
L 146.181293 169.59837 
L 147.123595 171.302445 
L 148.065897 167.894295 
L 149.008199 175.562633 
L 149.950502 186.639122 
L 150.892804 167.042257 
L 151.835106 173.858558 
L 152.777409 167.042257 
L 153.719711 177.266708 
L 154.662013 189.195235 
L 155.604315 179.822821 
L 158.431222 164.486144 
L 159.373525 179.822821 
L 160.315827 166.190219 
L 161.258129 163.634107 
L 162.200431 156.817806 
L 163.142734 158.521881 
L 164.085036 167.894295 
L 165.027338 167.894295 
L 166.911943 171.302445 
L 167.854245 172.154483 
L 168.796547 173.858558 
L 169.73885 159.373918 
L 170.681152 167.042257 
L 171.623454 164.486144 
L 172.565756 164.486144 
L 173.508059 175.562633 
L 174.450361 167.894295 
L 175.392663 181.526897 
L 176.334966 167.042257 
L 177.277268 145.741317 
L 178.21957 156.817806 
L 179.161872 172.154483 
L 180.104175 156.817806 
L 181.046477 160.225956 
L 181.988779 155.11373 
L 182.931082 155.11373 
L 183.873384 165.338182 
L 184.815686 159.373918 
L 185.757988 151.70558 
L 186.700291 161.077994 
L 187.642593 167.042257 
L 188.584895 159.373918 
L 189.527198 150.001505 
L 190.4695 162.782069 
L 191.411802 173.00652 
L 192.354104 169.59837 
L 193.296407 163.634107 
L 194.238709 161.077994 
L 195.181011 173.00652 
L 196.123313 160.225956 
L 197.065616 132.960752 
L 198.007918 168.746332 
L 198.95022 159.373918 
L 199.892523 155.965768 
L 201.777127 157.669843 
L 202.719429 166.190219 
L 203.661732 178.118746 
L 204.604034 165.338182 
L 205.546336 178.118746 
L 206.488639 178.118746 
L 207.430941 173.858558 
L 208.373243 162.782069 
L 209.315545 178.118746 
L 210.257848 164.486144 
L 211.20015 166.190219 
L 212.142452 128.700564 
L 213.084755 172.154483 
L 214.027057 154.261693 
L 214.969359 158.521881 
L 215.911661 144.889279 
L 217.796266 170.450408 
L 218.738568 184.935047 
L 219.68087 169.59837 
L 220.623173 168.746332 
L 221.565475 185.787085 
L 222.507777 170.450408 
L 223.45008 181.526897 
L 224.392382 173.858558 
L 225.334684 162.782069 
L 226.276986 160.225956 
L 227.219289 173.00652 
L 228.161591 155.11373 
L 229.103893 166.190219 
L 230.046196 178.970784 
L 230.988498 167.894295 
L 231.9308 162.782069 
L 232.873102 162.782069 
L 233.815405 172.154483 
L 234.757707 174.710596 
L 236.642312 158.521881 
L 237.584614 169.59837 
L 238.526916 173.858558 
L 239.469218 181.526897 
L 240.411521 169.59837 
L 241.353823 181.526897 
L 242.296125 169.59837 
L 243.238427 163.634107 
L 244.18073 167.042257 
L 245.123032 161.077994 
L 246.065334 182.378934 
L 247.949939 152.557618 
L 248.892241 165.338182 
L 249.834543 179.822821 
L 250.776846 167.042257 
L 251.719148 156.817806 
L 252.66145 174.710596 
L 253.603753 162.782069 
L 254.546055 160.225956 
L 255.488357 153.409655 
L 257.372962 173.858558 
L 258.315264 156.817806 
L 259.257566 157.669843 
L 260.199869 162.782069 
L 261.142171 161.077994 
L 262.084473 150.001505 
L 263.026775 161.930031 
L 263.969078 181.526897 
L 264.91138 157.669843 
L 265.853682 168.746332 
L 266.795984 161.077994 
L 267.738287 162.782069 
L 268.680589 174.710596 
L 269.622891 173.00652 
L 270.565194 164.486144 
L 271.507496 162.782069 
L 272.449798 164.486144 
L 273.3921 161.077994 
L 274.334403 176.414671 
L 275.276705 173.00652 
L 276.219007 167.042257 
L 277.16131 157.669843 
L 278.103612 154.261693 
L 279.045914 172.154483 
L 279.988216 160.225956 
L 280.930519 168.746332 
L 281.872821 161.930031 
L 282.815123 162.782069 
L 283.757426 170.450408 
L 284.699728 155.11373 
L 285.64203 157.669843 
L 286.584332 155.965768 
L 287.526635 135.516865 
L 288.468937 149.149467 
L 289.411239 150.001505 
L 290.353541 144.889279 
L 291.295844 150.001505 
L 293.180448 179.822821 
L 294.122751 174.710596 
L 296.007355 171.302445 
L 296.949657 190.89931 
L 297.89196 172.154483 
L 298.834262 165.338182 
L 299.776564 166.190219 
L 300.718867 162.782069 
L 301.661169 168.746332 
L 302.603471 162.782069 
L 303.545773 172.154483 
L 304.488076 172.154483 
L 305.430378 168.746332 
L 306.37268 174.710596 
L 307.314982 169.59837 
L 308.257285 183.230972 
L 309.199587 192.603386 
L 310.141889 163.634107 
L 311.084192 178.970784 
L 312.026494 165.338182 
L 312.968796 186.639122 
L 313.911098 167.042257 
L 314.853401 164.486144 
L 315.795703 180.674859 
L 316.738005 167.894295 
L 317.680308 184.083009 
L 319.564912 155.11373 
L 320.507214 159.373918 
L 321.449517 171.302445 
L 322.391819 181.526897 
L 323.334121 168.746332 
L 324.276424 183.230972 
L 325.218726 176.414671 
L 326.161028 166.190219 
L 327.10333 174.710596 
L 328.045633 163.634107 
L 328.987935 148.297429 
L 329.930237 165.338182 
L 330.872539 157.669843 
L 331.814842 139.777053 
L 332.757144 161.930031 
L 333.699446 173.858558 
L 334.641749 162.782069 
L 335.584051 155.11373 
L 336.526353 172.154483 
L 337.468655 155.11373 
L 338.410958 179.822821 
L 340.295562 142.333166 
L 341.237865 161.077994 
L 342.180167 149.149467 
L 344.064771 164.486144 
L 345.007074 165.338182 
L 345.949376 150.853542 
L 346.891678 154.261693 
L 347.833981 159.373918 
L 348.776283 154.261693 
L 349.718585 166.190219 
L 350.660887 152.557618 
L 351.60319 151.70558 
L 352.545492 155.11373 
L 353.487794 160.225956 
L 354.430096 145.741317 
L 355.372399 153.409655 
L 356.314701 169.59837 
L 357.257003 153.409655 
L 358.199306 156.817806 
L 359.141608 151.70558 
L 360.08391 159.373918 
L 361.026212 165.338182 
L 361.968515 159.373918 
L 362.910817 136.368903 
L 363.853119 145.741317 
L 364.795422 148.297429 
L 365.737724 141.481129 
L 366.680026 155.965768 
L 367.622328 161.930031 
L 368.564631 157.669843 
L 368.564631 157.669843 
" style="fill:none;stroke:#1f77b4;stroke-linecap:square;stroke-width:1.5;"/>
   </g>
   <g id="line2d_14">
    <path clip-path="url(#p8414e3ae31)" d="M 64.200994 155.965768 
L 65.143297 157.669843 
L 66.085599 156.817806 
L 67.027901 154.261693 
L 67.970203 155.11373 
L 68.912506 155.11373 
L 69.854808 150.001505 
L 70.79711 147.445392 
L 71.739413 145.741317 
L 72.681715 146.593354 
L 73.624017 145.741317 
L 74.566319 148.297429 
L 76.450924 155.11373 
L 77.393226 157.669843 
L 78.335529 158.521881 
L 79.277831 158.521881 
L 80.220133 156.817806 
L 81.162435 156.817806 
L 82.104738 155.965768 
L 83.989342 155.965768 
L 84.931644 155.11373 
L 85.873947 150.001505 
L 86.816249 150.853542 
L 87.758551 144.889279 
L 88.700854 144.037241 
L 89.643156 142.333166 
L 90.585458 143.185204 
L 91.52776 144.889279 
L 92.470063 162.782069 
L 93.412365 167.894295 
L 95.29697 169.59837 
L 96.239272 172.154483 
L 97.181574 175.562633 
L 98.123876 176.414671 
L 99.066179 170.450408 
L 100.008481 169.59837 
L 100.950783 167.894295 
L 101.893086 163.634107 
L 102.835388 161.930031 
L 103.77769 157.669843 
L 104.719992 155.965768 
L 105.662295 153.409655 
L 106.604597 156.817806 
L 107.546899 155.965768 
L 108.489201 156.817806 
L 109.431504 161.077994 
L 110.373806 157.669843 
L 111.316108 164.486144 
L 112.258411 164.486144 
L 113.200713 165.338182 
L 114.143015 173.858558 
L 115.085317 169.59837 
L 116.969922 162.782069 
L 117.912224 162.782069 
L 118.854527 158.521881 
L 120.739131 155.11373 
L 121.681433 154.261693 
L 122.623736 154.261693 
L 123.566038 152.557618 
L 124.50834 161.077994 
L 125.450643 158.521881 
L 126.392945 160.225956 
L 127.335247 158.521881 
L 128.277549 165.338182 
L 129.219852 164.486144 
L 130.162154 166.190219 
L 131.104456 170.450408 
L 132.046758 168.746332 
L 132.989061 165.338182 
L 133.931363 166.190219 
L 134.873665 163.634107 
L 135.815968 160.225956 
L 136.75827 153.409655 
L 137.700572 151.70558 
L 138.642874 152.557618 
L 139.585177 150.001505 
L 140.527479 152.557618 
L 141.469781 154.261693 
L 142.412084 161.077994 
L 143.354386 149.149467 
L 144.296688 170.450408 
L 145.23899 160.225956 
L 146.181293 146.593354 
L 147.123595 150.853542 
L 148.065897 164.486144 
L 149.008199 156.817806 
L 149.950502 161.930031 
L 150.892804 153.409655 
L 151.835106 161.077994 
L 152.777409 150.001505 
L 153.719711 164.486144 
L 154.662013 164.486144 
L 155.604315 160.225956 
L 156.546618 164.486144 
L 157.48892 164.486144 
L 158.431222 158.521881 
L 159.373525 167.894295 
L 160.315827 161.077994 
L 161.258129 171.302445 
L 162.200431 149.149467 
L 163.142734 161.077994 
L 164.085036 169.59837 
L 165.027338 155.965768 
L 165.969641 158.521881 
L 166.911943 159.373918 
L 167.854245 163.634107 
L 168.796547 160.225956 
L 169.73885 159.373918 
L 170.681152 167.894295 
L 171.623454 164.486144 
L 172.565756 167.042257 
L 173.508059 177.266708 
L 174.450361 163.634107 
L 175.392663 167.894295 
L 176.334966 173.00652 
L 177.277268 169.59837 
L 178.21957 153.409655 
L 179.161872 163.634107 
L 180.104175 177.266708 
L 181.046477 161.077994 
L 181.988779 155.11373 
L 182.931082 160.225956 
L 183.873384 162.782069 
L 184.815686 168.746332 
L 185.757988 165.338182 
L 186.700291 163.634107 
L 187.642593 163.634107 
L 188.584895 185.787085 
L 189.527198 172.154483 
L 190.4695 155.965768 
L 192.354104 189.195235 
L 193.296407 168.746332 
L 194.238709 162.782069 
L 195.181011 163.634107 
L 196.123313 173.00652 
L 198.007918 156.817806 
L 198.95022 171.302445 
L 199.892523 160.225956 
L 200.834825 161.077994 
L 201.777127 164.486144 
L 202.719429 163.634107 
L 203.661732 184.083009 
L 204.604034 165.338182 
L 205.546336 173.00652 
L 206.488639 173.858558 
L 207.430941 166.190219 
L 208.373243 168.746332 
L 209.315545 165.338182 
L 210.257848 156.817806 
L 211.20015 133.81279 
L 212.142452 169.59837 
L 213.084755 155.11373 
L 214.027057 165.338182 
L 214.969359 140.629091 
L 215.911661 157.669843 
L 216.853964 180.674859 
L 217.796266 170.450408 
L 218.738568 172.154483 
L 219.68087 160.225956 
L 220.623173 169.59837 
L 221.565475 162.782069 
L 222.507777 154.261693 
L 224.392382 175.562633 
L 225.334684 162.782069 
L 226.276986 165.338182 
L 227.219289 164.486144 
L 229.103893 180.674859 
L 230.046196 161.930031 
L 230.988498 158.521881 
L 231.9308 167.894295 
L 232.873102 171.302445 
L 233.815405 161.930031 
L 234.757707 162.782069 
L 235.700009 176.414671 
L 236.642312 171.302445 
L 237.584614 164.486144 
L 238.526916 161.077994 
L 239.469218 159.373918 
L 240.411521 170.450408 
L 242.296125 137.22094 
L 243.238427 160.225956 
L 244.18073 164.486144 
L 245.123032 148.297429 
L 246.065334 165.338182 
L 247.007637 168.746332 
L 247.949939 166.190219 
L 248.892241 173.858558 
L 249.834543 170.450408 
L 250.776846 172.154483 
L 251.719148 185.787085 
L 252.66145 168.746332 
L 253.603753 165.338182 
L 254.546055 164.486144 
L 255.488357 161.930031 
L 256.430659 145.741317 
L 257.372962 159.373918 
L 258.315264 150.853542 
L 259.257566 145.741317 
L 260.199869 149.149467 
L 261.142171 161.077994 
L 262.084473 157.669843 
L 263.026775 170.450408 
L 263.969078 155.11373 
L 264.91138 150.853542 
L 265.853682 172.154483 
L 266.795984 164.486144 
L 267.738287 166.190219 
L 268.680589 162.782069 
L 269.622891 160.225956 
L 270.565194 138.925016 
L 271.507496 147.445392 
L 272.449798 158.521881 
L 273.3921 144.037241 
L 274.334403 148.297429 
L 275.276705 144.037241 
L 276.219007 150.001505 
L 277.16131 155.11373 
L 279.045914 156.817806 
L 279.988216 169.59837 
L 281.872821 153.409655 
L 282.815123 159.373918 
L 283.757426 173.858558 
L 284.699728 166.190219 
L 285.64203 165.338182 
L 286.584332 173.858558 
L 287.526635 167.042257 
L 288.468937 157.669843 
L 289.411239 162.782069 
L 290.353541 159.373918 
L 291.295844 147.445392 
L 292.238146 150.001505 
L 293.180448 158.521881 
L 294.122751 170.450408 
L 295.065053 175.562633 
L 296.007355 159.373918 
L 296.949657 167.042257 
L 297.89196 178.970784 
L 298.834262 165.338182 
L 299.776564 161.930031 
L 300.718867 156.817806 
L 301.661169 168.746332 
L 302.603471 165.338182 
L 303.545773 151.70558 
L 304.488076 147.445392 
L 305.430378 162.782069 
L 306.37268 163.634107 
L 307.314982 153.409655 
L 308.257285 163.634107 
L 309.199587 161.077994 
L 310.141889 171.302445 
L 311.084192 170.450408 
L 312.026494 187.49116 
L 312.968796 156.817806 
L 313.911098 152.557618 
L 314.853401 162.782069 
L 315.795703 161.077994 
L 316.738005 142.333166 
L 317.680308 157.669843 
L 318.62261 163.634107 
L 319.564912 157.669843 
L 320.507214 160.225956 
L 321.449517 161.930031 
L 322.391819 162.782069 
L 323.334121 182.378934 
L 324.276424 167.042257 
L 325.218726 154.261693 
L 326.161028 180.674859 
L 327.10333 168.746332 
L 328.045633 194.307461 
L 328.987935 173.858558 
L 329.930237 163.634107 
L 330.872539 162.782069 
L 331.814842 162.782069 
L 332.757144 174.710596 
L 333.699446 156.817806 
L 334.641749 144.889279 
L 335.584051 155.965768 
L 336.526353 157.669843 
L 337.468655 160.225956 
L 338.410958 157.669843 
L 339.35326 171.302445 
L 340.295562 168.746332 
L 341.237865 165.338182 
L 342.180167 166.190219 
L 343.122469 188.343197 
L 344.064771 171.302445 
L 345.007074 162.782069 
L 345.949376 152.557618 
L 346.891678 161.930031 
L 347.833981 166.190219 
L 348.776283 157.669843 
L 349.718585 159.373918 
L 350.660887 153.409655 
L 351.60319 157.669843 
L 352.545492 155.11373 
L 353.487794 161.930031 
L 354.430096 157.669843 
L 355.372399 167.042257 
L 357.257003 149.149467 
L 358.199306 158.521881 
L 359.141608 160.225956 
L 360.08391 155.965768 
L 361.026212 155.11373 
L 361.968515 173.00652 
L 362.910817 160.225956 
L 364.795422 153.409655 
L 365.737724 156.817806 
L 366.680026 165.338182 
L 367.622328 155.11373 
L 368.564631 143.185204 
L 368.564631 143.185204 
" style="fill:none;stroke:#ff7f0e;stroke-linecap:square;stroke-width:1.5;"/>
   </g>
   <g id="line2d_15">
    <path clip-path="url(#p8414e3ae31)" d="M 64.200994 65.649781 
L 65.143297 65.649781 
L 66.085599 58.83348 
L 67.027901 63.093668 
L 67.970203 58.83348 
L 68.912506 47.756991 
L 69.854808 33.272351 
L 70.79711 34.124389 
L 71.739413 35.828464 
L 72.681715 49.461066 
L 73.624017 45.200878 
L 74.566319 46.904953 
L 75.508622 52.017179 
L 76.450924 54.573292 
L 77.393226 63.093668 
L 78.335529 50.313103 
L 79.277831 59.685517 
L 80.220133 51.165141 
L 81.162435 45.200878 
L 82.104738 42.644765 
L 83.04704 45.200878 
L 83.989342 44.34884 
L 84.931644 52.869216 
L 85.873947 57.129404 
L 86.816249 46.052915 
L 87.758551 43.496803 
L 88.700854 60.537555 
L 89.643156 97.175172 
L 90.585458 52.017179 
L 91.52776 40.088652 
L 92.470063 32.420313 
L 93.412365 36.680502 
L 94.354667 34.124389 
L 95.29697 40.94069 
L 96.239272 50.313103 
L 97.181574 64.797743 
L 98.123876 63.945705 
L 99.066179 43.496803 
L 100.008481 44.34884 
L 100.950783 37.532539 
L 101.893086 36.680502 
L 102.835388 34.124389 
L 103.77769 34.976426 
L 104.719992 36.680502 
L 105.662295 43.496803 
L 106.604597 57.129404 
L 107.546899 46.904953 
L 108.489201 46.052915 
L 109.431504 46.052915 
L 110.373806 40.94069 
L 111.316108 29.864201 
L 112.258411 29.864201 
L 113.200713 39.236614 
L 114.143015 30.716238 
L 115.085317 30.716238 
L 116.02762 31.568276 
L 117.912224 36.680502 
L 118.854527 44.34884 
L 119.796829 55.425329 
L 120.739131 44.34884 
L 121.681433 44.34884 
L 122.623736 43.496803 
L 123.566038 52.869216 
L 124.50834 42.644765 
L 125.450643 38.384577 
L 126.392945 33.272351 
L 127.335247 27.308088 
L 128.277549 17.083636 
L 129.219852 18.787712 
L 130.162154 19.639749 
L 131.104456 29.012163 
L 132.046758 23.899937 
L 132.989061 27.308088 
L 133.931363 17.935674 
L 134.873665 21.343824 
L 135.815968 29.864201 
L 136.75827 35.828464 
L 137.700572 44.34884 
L 138.642874 54.573292 
L 139.585177 63.093668 
L 140.527479 124.440376 
L 141.469781 129.552602 
L 142.412084 150.853542 
L 143.354386 51.165141 
L 144.296688 119.32815 
L 145.23899 126.996489 
L 146.181293 161.077994 
L 147.123595 96.323135 
L 148.065897 91.210909 
L 149.008199 143.185204 
L 149.950502 135.516865 
L 150.892804 96.323135 
L 151.835106 141.481129 
L 152.777409 99.731285 
L 153.719711 97.175172 
L 154.662013 126.996489 
L 155.604315 161.930031 
L 156.546618 109.103699 
L 157.48892 154.261693 
L 158.431222 105.695549 
L 159.373525 113.363887 
L 160.315827 108.251661 
L 161.258129 99.731285 
L 162.200431 78.430345 
L 163.142734 167.894295 
L 164.085036 92.062947 
L 165.027338 144.889279 
L 165.969641 137.22094 
L 166.911943 115.067962 
L 168.796547 94.61906 
L 169.73885 129.552602 
L 170.681152 119.32815 
L 171.623454 173.858558 
L 172.565756 85.246646 
L 173.508059 114.215925 
L 174.450361 137.22094 
L 175.392663 94.61906 
L 176.334966 88.654796 
L 177.277268 108.251661 
L 178.21957 139.777053 
L 179.161872 109.955737 
L 180.104175 93.767022 
L 181.046477 87.802759 
L 181.988779 150.853542 
L 182.931082 193.455423 
L 183.873384 145.741317 
L 184.815686 146.593354 
L 185.757988 156.817806 
L 186.700291 207.940063 
L 187.642593 140.629091 
L 188.584895 108.251661 
L 189.527198 179.822821 
L 190.4695 107.399624 
L 191.411802 98.02721 
L 192.354104 100.583323 
L 193.296407 101.435361 
L 194.238709 185.787085 
L 195.181011 98.879248 
L 196.123313 129.552602 
L 197.065616 113.363887 
L 198.007918 121.884263 
L 198.95022 147.445392 
L 199.892523 192.603386 
L 200.834825 194.307461 
L 201.777127 150.853542 
L 202.719429 173.00652 
L 203.661732 69.909969 
L 204.604034 130.404639 
L 205.546336 99.731285 
L 206.488639 81.838495 
L 207.430941 106.547586 
L 208.373243 101.435361 
L 209.315545 84.394608 
L 210.257848 92.914984 
L 211.20015 56.277367 
L 212.142452 195.159498 
L 213.084755 139.777053 
L 214.027057 180.674859 
L 214.969359 134.664828 
L 215.911661 142.333166 
L 216.853964 170.450408 
L 217.796266 191.751348 
L 218.738568 165.338182 
L 219.68087 182.378934 
L 220.623173 214.756364 
L 221.565475 172.154483 
L 222.507777 181.526897 
L 223.45008 170.450408 
L 225.334684 132.108715 
L 226.276986 135.516865 
L 227.219289 136.368903 
L 228.161591 144.037241 
L 229.103893 133.81279 
L 230.046196 187.49116 
L 230.988498 165.338182 
L 231.9308 147.445392 
L 232.873102 207.088025 
L 233.815405 142.333166 
L 234.757707 162.782069 
L 235.700009 150.001505 
L 236.642312 105.695549 
L 237.584614 138.072978 
L 238.526916 135.516865 
L 239.469218 137.22094 
L 240.411521 107.399624 
L 242.296125 180.674859 
L 243.238427 132.960752 
L 244.18073 192.603386 
L 245.123032 120.180188 
L 246.065334 159.373918 
L 247.007637 180.674859 
L 247.949939 123.588339 
L 248.892241 190.89931 
L 249.834543 126.996489 
L 250.776846 143.185204 
L 251.719148 204.531912 
L 252.66145 133.81279 
L 253.603753 205.38395 
L 254.546055 140.629091 
L 255.488357 183.230972 
L 256.430659 150.853542 
L 257.372962 132.108715 
L 258.315264 145.741317 
L 259.257566 165.338182 
L 260.199869 187.49116 
L 261.142171 115.067962 
L 262.084473 152.557618 
L 263.026775 157.669843 
L 263.969078 114.215925 
L 264.91138 92.914984 
L 265.853682 179.822821 
L 266.795984 121.032226 
L 267.738287 127.848527 
L 268.680589 107.399624 
L 269.622891 115.067962 
L 270.565194 98.879248 
L 271.507496 115.92 
L 272.449798 114.215925 
L 273.3921 142.333166 
L 274.334403 113.363887 
L 275.276705 140.629091 
L 276.219007 135.516865 
L 277.16131 167.042257 
L 278.103612 118.476113 
L 279.045914 107.399624 
L 279.988216 144.037241 
L 281.872821 100.583323 
L 282.815123 123.588339 
L 283.757426 113.363887 
L 284.699728 121.884263 
L 285.64203 121.032226 
L 286.584332 150.001505 
L 287.526635 157.669843 
L 288.468937 150.001505 
L 289.411239 110.807774 
L 290.353541 169.59837 
L 292.238146 146.593354 
L 293.180448 150.001505 
L 294.122751 161.077994 
L 295.065053 138.072978 
L 296.007355 161.930031 
L 296.949657 165.338182 
L 297.89196 131.256677 
L 298.834262 140.629091 
L 299.776564 127.848527 
L 300.718867 145.741317 
L 301.661169 131.256677 
L 302.603471 143.185204 
L 303.545773 158.521881 
L 304.488076 142.333166 
L 305.430378 135.516865 
L 306.37268 140.629091 
L 307.314982 127.848527 
L 308.257285 143.185204 
L 309.199587 139.777053 
L 310.141889 143.185204 
L 311.084192 138.072978 
L 312.026494 126.996489 
L 312.968796 144.037241 
L 313.911098 133.81279 
L 314.853401 136.368903 
L 315.795703 133.81279 
L 316.738005 169.59837 
L 317.680308 149.149467 
L 318.62261 137.22094 
L 319.564912 140.629091 
L 320.507214 137.22094 
L 321.449517 118.476113 
L 322.391819 136.368903 
L 323.334121 126.144451 
L 324.276424 125.292414 
L 325.218726 102.287398 
L 326.161028 144.889279 
L 327.10333 131.256677 
L 328.045633 144.889279 
L 328.987935 120.180188 
L 329.930237 124.440376 
L 330.872539 124.440376 
L 331.814842 114.215925 
L 332.757144 125.292414 
L 333.699446 138.925016 
L 334.641749 184.935047 
L 335.584051 152.557618 
L 336.526353 131.256677 
L 337.468655 137.22094 
L 338.410958 106.547586 
L 339.35326 129.552602 
L 340.295562 133.81279 
L 341.237865 132.108715 
L 342.180167 111.659812 
L 343.122469 151.70558 
L 344.064771 125.292414 
L 345.007074 136.368903 
L 345.949376 115.92 
L 346.891678 126.144451 
L 347.833981 129.552602 
L 348.776283 140.629091 
L 349.718585 136.368903 
L 350.660887 148.297429 
L 351.60319 164.486144 
L 352.545492 173.00652 
L 353.487794 138.925016 
L 354.430096 164.486144 
L 355.372399 144.889279 
L 356.314701 117.624075 
L 357.257003 143.185204 
L 358.199306 121.032226 
L 359.141608 127.848527 
L 360.08391 132.108715 
L 361.026212 132.108715 
L 361.968515 153.409655 
L 362.910817 166.190219 
L 363.853119 152.557618 
L 364.795422 144.889279 
L 365.737724 169.59837 
L 366.680026 155.965768 
L 367.622328 155.11373 
L 368.564631 167.042257 
L 368.564631 167.042257 
" style="fill:none;stroke:#2ca02c;stroke-linecap:square;stroke-width:1.5;"/>
   </g>
   <g id="patch_3">
    <path d="M 48.982813 224.64 
L 48.982813 7.2 
" style="fill:none;stroke:#000000;stroke-linecap:square;stroke-linejoin:miter;stroke-width:0.8;"/>
   </g>
   <g id="patch_4">
    <path d="M 383.782813 224.64 
L 383.782813 7.2 
" style="fill:none;stroke:#000000;stroke-linecap:square;stroke-linejoin:miter;stroke-width:0.8;"/>
   </g>
   <g id="patch_5">
    <path d="M 48.982813 224.64 
L 383.782812 224.64 
" style="fill:none;stroke:#000000;stroke-linecap:square;stroke-linejoin:miter;stroke-width:0.8;"/>
   </g>
   <g id="patch_6">
    <path d="M 48.982813 7.2 
L 383.782812 7.2 
" style="fill:none;stroke:#000000;stroke-linecap:square;stroke-linejoin:miter;stroke-width:0.8;"/>
   </g>
   <g id="legend_1">
    <g id="patch_7">
     <path d="M 325.982813 60.254688 
L 376.782813 60.254688 
Q 378.782813 60.254688 378.782813 58.254688 
L 378.782813 14.2 
Q 378.782813 12.2 376.782813 12.2 
L 325.982813 12.2 
Q 323.982813 12.2 323.982813 14.2 
L 323.982813 58.254688 
Q 323.982813 60.254688 325.982813 60.254688 
z
" style="fill:#ffffff;opacity:0.8;stroke:#cccccc;stroke-linejoin:miter;"/>
    </g>
    <g id="line2d_16">
     <path d="M 327.982813 20.298438 
L 347.982813 20.298438 
" style="fill:none;stroke:#1f77b4;stroke-linecap:square;stroke-width:1.5;"/>
    </g>
    <g id="line2d_17"/>
    <g id="text_15">
     <!-- $err_x$ -->
     <defs>
      <path d="M 48.09375 32.234375 
Q 48.25 33.015625 48.3125 33.84375 
Q 48.390625 34.671875 48.390625 35.5 
Q 48.390625 41.453125 44.890625 44.921875 
Q 41.40625 48.390625 35.40625 48.390625 
Q 28.71875 48.390625 23.578125 44.15625 
Q 18.453125 39.9375 15.828125 32.171875 
z
M 55.90625 25.203125 
L 14.109375 25.203125 
Q 13.8125 23.34375 13.71875 22.265625 
Q 13.625 21.1875 13.625 20.40625 
Q 13.625 13.625 17.796875 9.90625 
Q 21.96875 6.203125 29.59375 6.203125 
Q 35.453125 6.203125 40.671875 7.515625 
Q 45.90625 8.84375 50.390625 11.375 
L 48.6875 2.484375 
Q 43.84375 0.53125 38.6875 -0.4375 
Q 33.546875 -1.421875 28.21875 -1.421875 
Q 16.84375 -1.421875 10.71875 4.015625 
Q 4.59375 9.46875 4.59375 19.484375 
Q 4.59375 28.03125 7.640625 35.375 
Q 10.6875 42.71875 16.609375 48.484375 
Q 20.40625 52.09375 25.65625 54.046875 
Q 30.90625 56 36.8125 56 
Q 46.09375 56 51.578125 50.4375 
Q 57.078125 44.875 57.078125 35.5 
Q 57.078125 33.25 56.78125 30.6875 
Q 56.5 28.125 55.90625 25.203125 
z
" id="DejaVuSans-Oblique-101"/>
      <path d="M 44.578125 46.390625 
Q 43.21875 47.125 41.453125 47.515625 
Q 39.703125 47.90625 37.703125 47.90625 
Q 30.515625 47.90625 25.140625 42.453125 
Q 19.78125 37.015625 18.015625 27.875 
L 12.5 0 
L 3.515625 0 
L 14.203125 54.6875 
L 23.1875 54.6875 
L 21.484375 46.1875 
Q 25.046875 50.921875 30 53.453125 
Q 34.96875 56 40.578125 56 
Q 42.046875 56 43.453125 55.828125 
Q 44.875 55.671875 46.296875 55.28125 
z
" id="DejaVuSans-Oblique-114"/>
      <path d="M 60.015625 54.6875 
L 34.90625 27.875 
L 50.296875 0 
L 39.984375 0 
L 28.421875 21.6875 
L 8.296875 0 
L -2.59375 0 
L 24.3125 28.8125 
L 10.015625 54.6875 
L 20.3125 54.6875 
L 30.8125 34.90625 
L 49.125 54.6875 
z
" id="DejaVuSans-Oblique-120"/>
     </defs>
     <g transform="translate(355.982813 23.798438)scale(0.1 -0.1)">
      <use xlink:href="#DejaVuSans-Oblique-101"/>
      <use transform="translate(61.523438 0)" xlink:href="#DejaVuSans-Oblique-114"/>
      <use transform="translate(102.636719 0)" xlink:href="#DejaVuSans-Oblique-114"/>
      <use transform="translate(143.75 -16.40625)scale(0.7)" xlink:href="#DejaVuSans-Oblique-120"/>
     </g>
    </g>
    <g id="line2d_18">
     <path d="M 327.982813 34.976563 
L 347.982813 34.976563 
" style="fill:none;stroke:#ff7f0e;stroke-linecap:square;stroke-width:1.5;"/>
    </g>
    <g id="line2d_19"/>
    <g id="text_16">
     <!-- $err_y$ -->
     <defs>
      <path d="M 24.8125 -5.078125 
Q 18.5625 -15.578125 14.625 -18.1875 
Q 10.6875 -20.796875 4.59375 -20.796875 
L -2.484375 -20.796875 
L -0.984375 -13.28125 
L 4.203125 -13.28125 
Q 7.953125 -13.28125 10.59375 -11.234375 
Q 13.234375 -9.1875 16.5 -3.21875 
L 19.28125 2 
L 7.171875 54.6875 
L 16.703125 54.6875 
L 25.78125 12.796875 
L 50.875 54.6875 
L 60.296875 54.6875 
z
" id="DejaVuSans-Oblique-121"/>
     </defs>
     <g transform="translate(355.982813 38.476563)scale(0.1 -0.1)">
      <use xlink:href="#DejaVuSans-Oblique-101"/>
      <use transform="translate(61.523438 0)" xlink:href="#DejaVuSans-Oblique-114"/>
      <use transform="translate(102.636719 0)" xlink:href="#DejaVuSans-Oblique-114"/>
      <use transform="translate(143.75 -16.40625)scale(0.7)" xlink:href="#DejaVuSans-Oblique-121"/>
     </g>
    </g>
    <g id="line2d_20">
     <path d="M 327.982813 50.675 
L 347.982813 50.675 
" style="fill:none;stroke:#2ca02c;stroke-linecap:square;stroke-width:1.5;"/>
    </g>
    <g id="line2d_21"/>
    <g id="text_17">
     <!-- $err_z$ -->
     <defs>
      <path d="M 11.625 54.6875 
L 54.296875 54.6875 
L 52.6875 46.484375 
L 11.53125 7.171875 
L 45.515625 7.171875 
L 44.09375 0 
L -0.296875 0 
L 1.3125 8.203125 
L 42.484375 47.515625 
L 10.203125 47.515625 
z
" id="DejaVuSans-Oblique-122"/>
     </defs>
     <g transform="translate(355.982813 54.175)scale(0.1 -0.1)">
      <use xlink:href="#DejaVuSans-Oblique-101"/>
      <use transform="translate(61.523438 0)" xlink:href="#DejaVuSans-Oblique-114"/>
      <use transform="translate(102.636719 0)" xlink:href="#DejaVuSans-Oblique-114"/>
      <use transform="translate(143.75 -16.40625)scale(0.7)" xlink:href="#DejaVuSans-Oblique-122"/>
     </g>
    </g>
   </g>
  </g>
 </g>
 <defs>
  <clipPath id="p8414e3ae31">
   <rect height="217.44" width="334.8" x="48.982813" y="7.2"/>
  </clipPath>
 </defs>
</svg>
