<?xml version="1.0" encoding="utf-8" standalone="no"?>
<!DOCTYPE svg PUBLIC "-//W3C//DTD SVG 1.1//EN"
  "http://www.w3.org/Graphics/SVG/1.1/DTD/svg11.dtd">
<!-- Created with matplotlib (https://matplotlib.org/) -->
<svg height="263.77281pt" version="1.1" viewBox="0 0 390.982812 263.77281" width="390.982812pt" xmlns="http://www.w3.org/2000/svg" xmlns:xlink="http://www.w3.org/1999/xlink">
 <defs>
  <style type="text/css">
*{stroke-linecap:butt;stroke-linejoin:round;}
  </style>
 </defs>
 <g id="figure_1">
  <g id="patch_1">
   <path d="M 0 263.77281 
L 390.982812 263.77281 
L 390.982812 0 
L 0 0 
z
" style="fill:#ffffff;"/>
  </g>
  <g id="axes_1">
   <g id="patch_2">
    <path d="M 48.982813 226.21656 
L 383.782813 226.21656 
L 383.782813 8.77656 
L 48.982813 8.77656 
z
" style="fill:#ffffff;"/>
   </g>
   <g id="matplotlib.axis_1">
    <g id="xtick_1">
     <g id="line2d_1">
      <defs>
       <path d="M 0 0 
L 0 3.5 
" id="m926856bf65" style="stroke:#000000;stroke-width:0.8;"/>
      </defs>
      <g>
       <use style="stroke:#000000;stroke-width:0.8;" x="64.200994" xlink:href="#m926856bf65" y="226.21656"/>
      </g>
     </g>
     <g id="text_1">
      <!-- 0 -->
      <defs>
       <path d="M 31.78125 66.40625 
Q 24.171875 66.40625 20.328125 58.90625 
Q 16.5 51.421875 16.5 36.375 
Q 16.5 21.390625 20.328125 13.890625 
Q 24.171875 6.390625 31.78125 6.390625 
Q 39.453125 6.390625 43.28125 13.890625 
Q 47.125 21.390625 47.125 36.375 
Q 47.125 51.421875 43.28125 58.90625 
Q 39.453125 66.40625 31.78125 66.40625 
z
M 31.78125 74.21875 
Q 44.046875 74.21875 50.515625 64.515625 
Q 56.984375 54.828125 56.984375 36.375 
Q 56.984375 17.96875 50.515625 8.265625 
Q 44.046875 -1.421875 31.78125 -1.421875 
Q 19.53125 -1.421875 13.0625 8.265625 
Q 6.59375 17.96875 6.59375 36.375 
Q 6.59375 54.828125 13.0625 64.515625 
Q 19.53125 74.21875 31.78125 74.21875 
z
" id="DejaVuSans-48"/>
      </defs>
      <g transform="translate(61.019744 240.814997)scale(0.1 -0.1)">
       <use xlink:href="#DejaVuSans-48"/>
      </g>
     </g>
    </g>
    <g id="xtick_2">
     <g id="line2d_2">
      <g>
       <use style="stroke:#000000;stroke-width:0.8;" x="111.316108" xlink:href="#m926856bf65" y="226.21656"/>
      </g>
     </g>
     <g id="text_2">
      <!-- 50 -->
      <defs>
       <path d="M 10.796875 72.90625 
L 49.515625 72.90625 
L 49.515625 64.59375 
L 19.828125 64.59375 
L 19.828125 46.734375 
Q 21.96875 47.46875 24.109375 47.828125 
Q 26.265625 48.1875 28.421875 48.1875 
Q 40.625 48.1875 47.75 41.5 
Q 54.890625 34.8125 54.890625 23.390625 
Q 54.890625 11.625 47.5625 5.09375 
Q 40.234375 -1.421875 26.90625 -1.421875 
Q 22.3125 -1.421875 17.546875 -0.640625 
Q 12.796875 0.140625 7.71875 1.703125 
L 7.71875 11.625 
Q 12.109375 9.234375 16.796875 8.0625 
Q 21.484375 6.890625 26.703125 6.890625 
Q 35.15625 6.890625 40.078125 11.328125 
Q 45.015625 15.765625 45.015625 23.390625 
Q 45.015625 31 40.078125 35.4375 
Q 35.15625 39.890625 26.703125 39.890625 
Q 22.75 39.890625 18.8125 39.015625 
Q 14.890625 38.140625 10.796875 36.28125 
z
" id="DejaVuSans-53"/>
      </defs>
      <g transform="translate(104.953608 240.814997)scale(0.1 -0.1)">
       <use xlink:href="#DejaVuSans-53"/>
       <use x="63.623047" xlink:href="#DejaVuSans-48"/>
      </g>
     </g>
    </g>
    <g id="xtick_3">
     <g id="line2d_3">
      <g>
       <use style="stroke:#000000;stroke-width:0.8;" x="158.431222" xlink:href="#m926856bf65" y="226.21656"/>
      </g>
     </g>
     <g id="text_3">
      <!-- 100 -->
      <defs>
       <path d="M 12.40625 8.296875 
L 28.515625 8.296875 
L 28.515625 63.921875 
L 10.984375 60.40625 
L 10.984375 69.390625 
L 28.421875 72.90625 
L 38.28125 72.90625 
L 38.28125 8.296875 
L 54.390625 8.296875 
L 54.390625 0 
L 12.40625 0 
z
" id="DejaVuSans-49"/>
      </defs>
      <g transform="translate(148.887472 240.814997)scale(0.1 -0.1)">
       <use xlink:href="#DejaVuSans-49"/>
       <use x="63.623047" xlink:href="#DejaVuSans-48"/>
       <use x="127.246094" xlink:href="#DejaVuSans-48"/>
      </g>
     </g>
    </g>
    <g id="xtick_4">
     <g id="line2d_4">
      <g>
       <use style="stroke:#000000;stroke-width:0.8;" x="205.546336" xlink:href="#m926856bf65" y="226.21656"/>
      </g>
     </g>
     <g id="text_4">
      <!-- 150 -->
      <g transform="translate(196.002586 240.814997)scale(0.1 -0.1)">
       <use xlink:href="#DejaVuSans-49"/>
       <use x="63.623047" xlink:href="#DejaVuSans-53"/>
       <use x="127.246094" xlink:href="#DejaVuSans-48"/>
      </g>
     </g>
    </g>
    <g id="xtick_5">
     <g id="line2d_5">
      <g>
       <use style="stroke:#000000;stroke-width:0.8;" x="252.66145" xlink:href="#m926856bf65" y="226.21656"/>
      </g>
     </g>
     <g id="text_5">
      <!-- 200 -->
      <defs>
       <path d="M 19.1875 8.296875 
L 53.609375 8.296875 
L 53.609375 0 
L 7.328125 0 
L 7.328125 8.296875 
Q 12.9375 14.109375 22.625 23.890625 
Q 32.328125 33.6875 34.8125 36.53125 
Q 39.546875 41.84375 41.421875 45.53125 
Q 43.3125 49.21875 43.3125 52.78125 
Q 43.3125 58.59375 39.234375 62.25 
Q 35.15625 65.921875 28.609375 65.921875 
Q 23.96875 65.921875 18.8125 64.3125 
Q 13.671875 62.703125 7.8125 59.421875 
L 7.8125 69.390625 
Q 13.765625 71.78125 18.9375 73 
Q 24.125 74.21875 28.421875 74.21875 
Q 39.75 74.21875 46.484375 68.546875 
Q 53.21875 62.890625 53.21875 53.421875 
Q 53.21875 48.921875 51.53125 44.890625 
Q 49.859375 40.875 45.40625 35.40625 
Q 44.1875 33.984375 37.640625 27.21875 
Q 31.109375 20.453125 19.1875 8.296875 
z
" id="DejaVuSans-50"/>
      </defs>
      <g transform="translate(243.1177 240.814997)scale(0.1 -0.1)">
       <use xlink:href="#DejaVuSans-50"/>
       <use x="63.623047" xlink:href="#DejaVuSans-48"/>
       <use x="127.246094" xlink:href="#DejaVuSans-48"/>
      </g>
     </g>
    </g>
    <g id="xtick_6">
     <g id="line2d_6">
      <g>
       <use style="stroke:#000000;stroke-width:0.8;" x="299.776564" xlink:href="#m926856bf65" y="226.21656"/>
      </g>
     </g>
     <g id="text_6">
      <!-- 250 -->
      <g transform="translate(290.232814 240.814997)scale(0.1 -0.1)">
       <use xlink:href="#DejaVuSans-50"/>
       <use x="63.623047" xlink:href="#DejaVuSans-53"/>
       <use x="127.246094" xlink:href="#DejaVuSans-48"/>
      </g>
     </g>
    </g>
    <g id="xtick_7">
     <g id="line2d_7">
      <g>
       <use style="stroke:#000000;stroke-width:0.8;" x="346.891678" xlink:href="#m926856bf65" y="226.21656"/>
      </g>
     </g>
     <g id="text_7">
      <!-- 300 -->
      <defs>
       <path d="M 40.578125 39.3125 
Q 47.65625 37.796875 51.625 33 
Q 55.609375 28.21875 55.609375 21.1875 
Q 55.609375 10.40625 48.1875 4.484375 
Q 40.765625 -1.421875 27.09375 -1.421875 
Q 22.515625 -1.421875 17.65625 -0.515625 
Q 12.796875 0.390625 7.625 2.203125 
L 7.625 11.71875 
Q 11.71875 9.328125 16.59375 8.109375 
Q 21.484375 6.890625 26.8125 6.890625 
Q 36.078125 6.890625 40.9375 10.546875 
Q 45.796875 14.203125 45.796875 21.1875 
Q 45.796875 27.640625 41.28125 31.265625 
Q 36.765625 34.90625 28.71875 34.90625 
L 20.21875 34.90625 
L 20.21875 43.015625 
L 29.109375 43.015625 
Q 36.375 43.015625 40.234375 45.921875 
Q 44.09375 48.828125 44.09375 54.296875 
Q 44.09375 59.90625 40.109375 62.90625 
Q 36.140625 65.921875 28.71875 65.921875 
Q 24.65625 65.921875 20.015625 65.03125 
Q 15.375 64.15625 9.8125 62.3125 
L 9.8125 71.09375 
Q 15.4375 72.65625 20.34375 73.4375 
Q 25.25 74.21875 29.59375 74.21875 
Q 40.828125 74.21875 47.359375 69.109375 
Q 53.90625 64.015625 53.90625 55.328125 
Q 53.90625 49.265625 50.4375 45.09375 
Q 46.96875 40.921875 40.578125 39.3125 
z
" id="DejaVuSans-51"/>
      </defs>
      <g transform="translate(337.347928 240.814997)scale(0.1 -0.1)">
       <use xlink:href="#DejaVuSans-51"/>
       <use x="63.623047" xlink:href="#DejaVuSans-48"/>
       <use x="127.246094" xlink:href="#DejaVuSans-48"/>
      </g>
     </g>
    </g>
    <g id="text_8">
     <!-- num -->
     <defs>
      <path d="M 54.890625 33.015625 
L 54.890625 0 
L 45.90625 0 
L 45.90625 32.71875 
Q 45.90625 40.484375 42.875 44.328125 
Q 39.84375 48.1875 33.796875 48.1875 
Q 26.515625 48.1875 22.3125 43.546875 
Q 18.109375 38.921875 18.109375 30.90625 
L 18.109375 0 
L 9.078125 0 
L 9.078125 54.6875 
L 18.109375 54.6875 
L 18.109375 46.1875 
Q 21.34375 51.125 25.703125 53.5625 
Q 30.078125 56 35.796875 56 
Q 45.21875 56 50.046875 50.171875 
Q 54.890625 44.34375 54.890625 33.015625 
z
" id="DejaVuSans-110"/>
      <path d="M 8.5 21.578125 
L 8.5 54.6875 
L 17.484375 54.6875 
L 17.484375 21.921875 
Q 17.484375 14.15625 20.5 10.265625 
Q 23.53125 6.390625 29.59375 6.390625 
Q 36.859375 6.390625 41.078125 11.03125 
Q 45.3125 15.671875 45.3125 23.6875 
L 45.3125 54.6875 
L 54.296875 54.6875 
L 54.296875 0 
L 45.3125 0 
L 45.3125 8.40625 
Q 42.046875 3.421875 37.71875 1 
Q 33.40625 -1.421875 27.6875 -1.421875 
Q 18.265625 -1.421875 13.375 4.4375 
Q 8.5 10.296875 8.5 21.578125 
z
M 31.109375 56 
z
" id="DejaVuSans-117"/>
      <path d="M 52 44.1875 
Q 55.375 50.25 60.0625 53.125 
Q 64.75 56 71.09375 56 
Q 79.640625 56 84.28125 50.015625 
Q 88.921875 44.046875 88.921875 33.015625 
L 88.921875 0 
L 79.890625 0 
L 79.890625 32.71875 
Q 79.890625 40.578125 77.09375 44.375 
Q 74.3125 48.1875 68.609375 48.1875 
Q 61.625 48.1875 57.5625 43.546875 
Q 53.515625 38.921875 53.515625 30.90625 
L 53.515625 0 
L 44.484375 0 
L 44.484375 32.71875 
Q 44.484375 40.625 41.703125 44.40625 
Q 38.921875 48.1875 33.109375 48.1875 
Q 26.21875 48.1875 22.15625 43.53125 
Q 18.109375 38.875 18.109375 30.90625 
L 18.109375 0 
L 9.078125 0 
L 9.078125 54.6875 
L 18.109375 54.6875 
L 18.109375 46.1875 
Q 21.1875 51.21875 25.484375 53.609375 
Q 29.78125 56 35.6875 56 
Q 41.65625 56 45.828125 52.96875 
Q 50 49.953125 52 44.1875 
z
" id="DejaVuSans-109"/>
     </defs>
     <g transform="translate(205.175 254.493122)scale(0.1 -0.1)">
      <use xlink:href="#DejaVuSans-110"/>
      <use x="63.378906" xlink:href="#DejaVuSans-117"/>
      <use x="126.757812" xlink:href="#DejaVuSans-109"/>
     </g>
    </g>
   </g>
   <g id="matplotlib.axis_2">
    <g id="ytick_1">
     <g id="line2d_8">
      <defs>
       <path d="M 0 0 
L -3.5 0 
" id="m9da6e783e5" style="stroke:#000000;stroke-width:0.8;"/>
      </defs>
      <g>
       <use style="stroke:#000000;stroke-width:0.8;" x="48.982813" xlink:href="#m9da6e783e5" y="209.253669"/>
      </g>
     </g>
     <g id="text_9">
      <!-- −60 -->
      <defs>
       <path d="M 10.59375 35.5 
L 73.1875 35.5 
L 73.1875 27.203125 
L 10.59375 27.203125 
z
" id="DejaVuSans-8722"/>
       <path d="M 33.015625 40.375 
Q 26.375 40.375 22.484375 35.828125 
Q 18.609375 31.296875 18.609375 23.390625 
Q 18.609375 15.53125 22.484375 10.953125 
Q 26.375 6.390625 33.015625 6.390625 
Q 39.65625 6.390625 43.53125 10.953125 
Q 47.40625 15.53125 47.40625 23.390625 
Q 47.40625 31.296875 43.53125 35.828125 
Q 39.65625 40.375 33.015625 40.375 
z
M 52.59375 71.296875 
L 52.59375 62.3125 
Q 48.875 64.0625 45.09375 64.984375 
Q 41.3125 65.921875 37.59375 65.921875 
Q 27.828125 65.921875 22.671875 59.328125 
Q 17.53125 52.734375 16.796875 39.40625 
Q 19.671875 43.65625 24.015625 45.921875 
Q 28.375 48.1875 33.59375 48.1875 
Q 44.578125 48.1875 50.953125 41.515625 
Q 57.328125 34.859375 57.328125 23.390625 
Q 57.328125 12.15625 50.6875 5.359375 
Q 44.046875 -1.421875 33.015625 -1.421875 
Q 20.359375 -1.421875 13.671875 8.265625 
Q 6.984375 17.96875 6.984375 36.375 
Q 6.984375 53.65625 15.1875 63.9375 
Q 23.390625 74.21875 37.203125 74.21875 
Q 40.921875 74.21875 44.703125 73.484375 
Q 48.484375 72.75 52.59375 71.296875 
z
" id="DejaVuSans-54"/>
      </defs>
      <g transform="translate(20.878125 213.052888)scale(0.1 -0.1)">
       <use xlink:href="#DejaVuSans-8722"/>
       <use x="83.789062" xlink:href="#DejaVuSans-54"/>
       <use x="147.412109" xlink:href="#DejaVuSans-48"/>
      </g>
     </g>
    </g>
    <g id="ytick_2">
     <g id="line2d_9">
      <g>
       <use style="stroke:#000000;stroke-width:0.8;" x="48.982813" xlink:href="#m9da6e783e5" y="184.471863"/>
      </g>
     </g>
     <g id="text_10">
      <!-- −40 -->
      <defs>
       <path d="M 37.796875 64.3125 
L 12.890625 25.390625 
L 37.796875 25.390625 
z
M 35.203125 72.90625 
L 47.609375 72.90625 
L 47.609375 25.390625 
L 58.015625 25.390625 
L 58.015625 17.1875 
L 47.609375 17.1875 
L 47.609375 0 
L 37.796875 0 
L 37.796875 17.1875 
L 4.890625 17.1875 
L 4.890625 26.703125 
z
" id="DejaVuSans-52"/>
      </defs>
      <g transform="translate(20.878125 188.271081)scale(0.1 -0.1)">
       <use xlink:href="#DejaVuSans-8722"/>
       <use x="83.789062" xlink:href="#DejaVuSans-52"/>
       <use x="147.412109" xlink:href="#DejaVuSans-48"/>
      </g>
     </g>
    </g>
    <g id="ytick_3">
     <g id="line2d_10">
      <g>
       <use style="stroke:#000000;stroke-width:0.8;" x="48.982813" xlink:href="#m9da6e783e5" y="159.690056"/>
      </g>
     </g>
     <g id="text_11">
      <!-- −20 -->
      <g transform="translate(20.878125 163.489275)scale(0.1 -0.1)">
       <use xlink:href="#DejaVuSans-8722"/>
       <use x="83.789062" xlink:href="#DejaVuSans-50"/>
       <use x="147.412109" xlink:href="#DejaVuSans-48"/>
      </g>
     </g>
    </g>
    <g id="ytick_4">
     <g id="line2d_11">
      <g>
       <use style="stroke:#000000;stroke-width:0.8;" x="48.982813" xlink:href="#m9da6e783e5" y="134.90825"/>
      </g>
     </g>
     <g id="text_12">
      <!-- 0 -->
      <g transform="translate(35.620312 138.707469)scale(0.1 -0.1)">
       <use xlink:href="#DejaVuSans-48"/>
      </g>
     </g>
    </g>
    <g id="ytick_5">
     <g id="line2d_12">
      <g>
       <use style="stroke:#000000;stroke-width:0.8;" x="48.982813" xlink:href="#m9da6e783e5" y="110.126444"/>
      </g>
     </g>
     <g id="text_13">
      <!-- 20 -->
      <g transform="translate(29.257812 113.925663)scale(0.1 -0.1)">
       <use xlink:href="#DejaVuSans-50"/>
       <use x="63.623047" xlink:href="#DejaVuSans-48"/>
      </g>
     </g>
    </g>
    <g id="ytick_6">
     <g id="line2d_13">
      <g>
       <use style="stroke:#000000;stroke-width:0.8;" x="48.982813" xlink:href="#m9da6e783e5" y="85.344638"/>
      </g>
     </g>
     <g id="text_14">
      <!-- 40 -->
      <g transform="translate(29.257812 89.143856)scale(0.1 -0.1)">
       <use xlink:href="#DejaVuSans-52"/>
       <use x="63.623047" xlink:href="#DejaVuSans-48"/>
      </g>
     </g>
    </g>
    <g id="ytick_7">
     <g id="line2d_14">
      <g>
       <use style="stroke:#000000;stroke-width:0.8;" x="48.982813" xlink:href="#m9da6e783e5" y="60.562831"/>
      </g>
     </g>
     <g id="text_15">
      <!-- 60 -->
      <g transform="translate(29.257812 64.36205)scale(0.1 -0.1)">
       <use xlink:href="#DejaVuSans-54"/>
       <use x="63.623047" xlink:href="#DejaVuSans-48"/>
      </g>
     </g>
    </g>
    <g id="ytick_8">
     <g id="line2d_15">
      <g>
       <use style="stroke:#000000;stroke-width:0.8;" x="48.982813" xlink:href="#m9da6e783e5" y="35.781025"/>
      </g>
     </g>
     <g id="text_16">
      <!-- 80 -->
      <defs>
       <path d="M 31.78125 34.625 
Q 24.75 34.625 20.71875 30.859375 
Q 16.703125 27.09375 16.703125 20.515625 
Q 16.703125 13.921875 20.71875 10.15625 
Q 24.75 6.390625 31.78125 6.390625 
Q 38.8125 6.390625 42.859375 10.171875 
Q 46.921875 13.96875 46.921875 20.515625 
Q 46.921875 27.09375 42.890625 30.859375 
Q 38.875 34.625 31.78125 34.625 
z
M 21.921875 38.8125 
Q 15.578125 40.375 12.03125 44.71875 
Q 8.5 49.078125 8.5 55.328125 
Q 8.5 64.0625 14.71875 69.140625 
Q 20.953125 74.21875 31.78125 74.21875 
Q 42.671875 74.21875 48.875 69.140625 
Q 55.078125 64.0625 55.078125 55.328125 
Q 55.078125 49.078125 51.53125 44.71875 
Q 48 40.375 41.703125 38.8125 
Q 48.828125 37.15625 52.796875 32.3125 
Q 56.78125 27.484375 56.78125 20.515625 
Q 56.78125 9.90625 50.3125 4.234375 
Q 43.84375 -1.421875 31.78125 -1.421875 
Q 19.734375 -1.421875 13.25 4.234375 
Q 6.78125 9.90625 6.78125 20.515625 
Q 6.78125 27.484375 10.78125 32.3125 
Q 14.796875 37.15625 21.921875 38.8125 
z
M 18.3125 54.390625 
Q 18.3125 48.734375 21.84375 45.5625 
Q 25.390625 42.390625 31.78125 42.390625 
Q 38.140625 42.390625 41.71875 45.5625 
Q 45.3125 48.734375 45.3125 54.390625 
Q 45.3125 60.0625 41.71875 63.234375 
Q 38.140625 66.40625 31.78125 66.40625 
Q 25.390625 66.40625 21.84375 63.234375 
Q 18.3125 60.0625 18.3125 54.390625 
z
" id="DejaVuSans-56"/>
      </defs>
      <g transform="translate(29.257812 39.580244)scale(0.1 -0.1)">
       <use xlink:href="#DejaVuSans-56"/>
       <use x="63.623047" xlink:href="#DejaVuSans-48"/>
      </g>
     </g>
    </g>
    <g id="ytick_9">
     <g id="line2d_16">
      <g>
       <use style="stroke:#000000;stroke-width:0.8;" x="48.982813" xlink:href="#m9da6e783e5" y="10.999219"/>
      </g>
     </g>
     <g id="text_17">
      <!-- 100 -->
      <g transform="translate(22.895312 14.798437)scale(0.1 -0.1)">
       <use xlink:href="#DejaVuSans-49"/>
       <use x="63.623047" xlink:href="#DejaVuSans-48"/>
       <use x="127.246094" xlink:href="#DejaVuSans-48"/>
      </g>
     </g>
    </g>
    <g id="text_18">
     <!-- err -->
     <defs>
      <path d="M 56.203125 29.59375 
L 56.203125 25.203125 
L 14.890625 25.203125 
Q 15.484375 15.921875 20.484375 11.0625 
Q 25.484375 6.203125 34.421875 6.203125 
Q 39.59375 6.203125 44.453125 7.46875 
Q 49.3125 8.734375 54.109375 11.28125 
L 54.109375 2.78125 
Q 49.265625 0.734375 44.1875 -0.34375 
Q 39.109375 -1.421875 33.890625 -1.421875 
Q 20.796875 -1.421875 13.15625 6.1875 
Q 5.515625 13.8125 5.515625 26.8125 
Q 5.515625 40.234375 12.765625 48.109375 
Q 20.015625 56 32.328125 56 
Q 43.359375 56 49.78125 48.890625 
Q 56.203125 41.796875 56.203125 29.59375 
z
M 47.21875 32.234375 
Q 47.125 39.59375 43.09375 43.984375 
Q 39.0625 48.390625 32.421875 48.390625 
Q 24.90625 48.390625 20.390625 44.140625 
Q 15.875 39.890625 15.1875 32.171875 
z
" id="DejaVuSans-101"/>
      <path d="M 41.109375 46.296875 
Q 39.59375 47.171875 37.8125 47.578125 
Q 36.03125 48 33.890625 48 
Q 26.265625 48 22.1875 43.046875 
Q 18.109375 38.09375 18.109375 28.8125 
L 18.109375 0 
L 9.078125 0 
L 9.078125 54.6875 
L 18.109375 54.6875 
L 18.109375 46.1875 
Q 20.953125 51.171875 25.484375 53.578125 
Q 30.03125 56 36.53125 56 
Q 37.453125 56 38.578125 55.875 
Q 39.703125 55.765625 41.0625 55.515625 
z
" id="DejaVuSans-114"/>
     </defs>
     <g transform="translate(14.798438 124.59656)rotate(-90)scale(0.1 -0.1)">
      <use xlink:href="#DejaVuSans-101"/>
      <use x="61.523438" xlink:href="#DejaVuSans-114"/>
      <use x="100.886719" xlink:href="#DejaVuSans-114"/>
     </g>
    </g>
   </g>
   <g id="line2d_17">
    <path clip-path="url(#p5e02f2a864)" d="M 64.200994 151.154101 
L 65.143297 151.154101 
L 66.085599 144.958649 
L 67.027901 144.958649 
L 67.970203 135.045927 
L 68.912506 135.045927 
L 69.854808 125.133204 
L 70.79711 123.894114 
L 71.739413 118.937753 
L 72.681715 121.415933 
L 73.624017 118.937753 
L 74.566319 125.133204 
L 75.508622 130.089566 
L 76.450924 133.806837 
L 77.393226 142.480469 
L 78.335529 141.241378 
L 79.277831 147.43683 
L 80.220133 148.67592 
L 81.162435 146.19774 
L 82.104738 141.241378 
L 83.04704 138.763198 
L 83.989342 137.524107 
L 84.931644 135.045927 
L 85.873947 127.611385 
L 87.758551 127.611385 
L 88.700854 121.415933 
L 89.643156 131.328656 
L 90.585458 126.372295 
L 91.52776 125.133204 
L 92.470063 111.503211 
L 93.412365 115.220482 
L 94.354667 115.220482 
L 95.29697 116.459572 
L 97.181574 121.415933 
L 98.123876 122.655024 
L 99.066179 118.937753 
L 100.008481 118.937753 
L 100.950783 115.220482 
L 101.893086 112.742301 
L 102.835388 107.78594 
L 104.719992 102.829579 
L 105.662295 104.068669 
L 107.546899 99.112308 
L 108.489201 102.829579 
L 109.431504 105.307759 
L 110.373806 110.264121 
L 112.258411 127.611385 
L 113.200713 126.372295 
L 114.143015 132.567746 
L 115.085317 128.850475 
L 116.02762 128.850475 
L 118.854527 117.698662 
L 119.796829 112.742301 
L 120.739131 136.285017 
L 121.681433 136.285017 
L 123.566038 128.850475 
L 126.392945 125.133204 
L 127.335247 130.089566 
L 128.277549 138.763198 
L 129.219852 140.002288 
L 130.162154 136.285017 
L 131.104456 141.241378 
L 132.046758 141.241378 
L 132.989061 138.763198 
L 133.931363 141.241378 
L 134.873665 137.524107 
L 135.815968 131.328656 
L 136.75827 133.806837 
L 137.700572 131.328656 
L 138.642874 126.372295 
L 139.585177 122.655024 
L 140.527479 164.784094 
L 141.469781 161.066823 
L 142.412084 166.023185 
L 143.354386 138.763198 
L 144.296688 146.19774 
L 145.23899 159.827733 
L 146.181293 143.719559 
L 147.123595 146.19774 
L 148.065897 141.241378 
L 149.950502 170.979546 
L 150.892804 140.002288 
L 151.835106 149.915011 
L 152.777409 140.002288 
L 153.719711 154.871372 
L 154.662013 172.218636 
L 155.604315 158.588643 
L 156.546618 151.154101 
L 157.48892 142.480469 
L 158.431222 136.285017 
L 159.373525 158.588643 
L 160.315827 138.763198 
L 161.258129 135.045927 
L 162.200431 125.133204 
L 163.142734 127.611385 
L 164.085036 141.241378 
L 165.027338 144.958649 
L 165.969641 147.43683 
L 166.911943 151.154101 
L 167.854245 147.43683 
L 168.796547 149.915011 
L 169.73885 128.850475 
L 170.681152 140.002288 
L 171.623454 135.045927 
L 172.565756 136.285017 
L 173.508059 152.393191 
L 174.450361 137.524107 
L 175.392663 161.066823 
L 176.334966 140.002288 
L 177.277268 109.02503 
L 178.21957 125.133204 
L 179.161872 147.43683 
L 180.104175 125.133204 
L 181.046477 130.089566 
L 182.931082 122.655024 
L 183.873384 138.763198 
L 185.757988 118.937753 
L 186.700291 131.328656 
L 187.642593 140.002288 
L 188.584895 122.655024 
L 189.527198 113.981391 
L 190.4695 133.806837 
L 191.411802 148.67592 
L 192.354104 143.719559 
L 193.296407 135.045927 
L 194.238709 131.328656 
L 195.181011 148.67592 
L 196.123313 131.328656 
L 197.065616 90.438676 
L 198.007918 142.480469 
L 198.95022 130.089566 
L 199.892523 123.894114 
L 201.777127 126.372295 
L 202.719429 138.763198 
L 203.661732 156.110462 
L 204.604034 137.524107 
L 205.546336 156.110462 
L 206.488639 156.110462 
L 207.430941 141.241378 
L 208.373243 133.806837 
L 209.315545 156.110462 
L 210.257848 136.285017 
L 211.20015 138.763198 
L 212.142452 84.243224 
L 213.084755 148.67592 
L 214.027057 121.415933 
L 214.969359 127.611385 
L 215.911661 107.78594 
L 216.853964 123.894114 
L 217.796266 142.480469 
L 218.738568 166.023185 
L 219.68087 142.480469 
L 220.623173 140.002288 
L 221.565475 167.262275 
L 222.507777 144.958649 
L 223.45008 161.066823 
L 224.392382 149.915011 
L 225.334684 133.806837 
L 226.276986 130.089566 
L 227.219289 148.67592 
L 228.161591 122.655024 
L 229.103893 138.763198 
L 230.046196 157.349552 
L 230.988498 141.241378 
L 231.9308 133.806837 
L 232.873102 133.806837 
L 233.815405 147.43683 
L 234.757707 151.154101 
L 236.642312 127.611385 
L 237.584614 143.719559 
L 238.526916 149.915011 
L 239.469218 161.066823 
L 240.411521 143.719559 
L 241.353823 168.501365 
L 242.296125 144.958649 
L 243.238427 135.045927 
L 244.18073 141.241378 
L 245.123032 131.328656 
L 246.065334 162.305914 
L 247.007637 138.763198 
L 247.949939 118.937753 
L 248.892241 136.285017 
L 249.834543 158.588643 
L 250.776846 131.328656 
L 251.719148 123.894114 
L 252.66145 151.154101 
L 253.603753 133.806837 
L 254.546055 130.089566 
L 255.488357 121.415933 
L 257.372962 149.915011 
L 258.315264 131.328656 
L 259.257566 130.089566 
L 260.199869 135.045927 
L 261.142171 131.328656 
L 262.084473 115.220482 
L 263.026775 132.567746 
L 263.969078 161.066823 
L 264.91138 126.372295 
L 265.853682 137.524107 
L 266.795984 131.328656 
L 267.738287 133.806837 
L 268.680589 151.154101 
L 269.622891 148.67592 
L 270.565194 136.285017 
L 271.507496 133.806837 
L 272.449798 136.285017 
L 273.3921 131.328656 
L 274.334403 153.632282 
L 275.276705 148.67592 
L 276.219007 140.002288 
L 277.16131 126.372295 
L 278.103612 121.415933 
L 279.045914 147.43683 
L 279.988216 128.850475 
L 280.930519 142.480469 
L 281.872821 132.567746 
L 282.815123 133.806837 
L 283.757426 144.958649 
L 284.699728 116.459572 
L 285.64203 126.372295 
L 286.584332 123.894114 
L 287.526635 94.155946 
L 288.468937 116.459572 
L 289.411239 115.220482 
L 290.353541 107.78594 
L 291.295844 118.937753 
L 292.238146 142.480469 
L 293.180448 158.588643 
L 294.122751 151.154101 
L 296.007355 146.19774 
L 296.949657 174.696817 
L 297.89196 147.43683 
L 298.834262 137.524107 
L 299.776564 138.763198 
L 300.718867 141.241378 
L 301.661169 142.480469 
L 302.603471 133.806837 
L 303.545773 147.43683 
L 304.488076 147.43683 
L 305.430378 142.480469 
L 306.37268 151.154101 
L 307.314982 143.719559 
L 308.257285 163.545004 
L 309.199587 177.174997 
L 310.141889 135.045927 
L 311.084192 157.349552 
L 312.026494 137.524107 
L 312.968796 168.501365 
L 313.911098 140.002288 
L 314.853401 136.285017 
L 315.795703 159.827733 
L 316.738005 141.241378 
L 317.680308 164.784094 
L 319.564912 122.655024 
L 320.507214 128.850475 
L 321.449517 146.19774 
L 322.391819 161.066823 
L 323.334121 142.480469 
L 324.276424 163.545004 
L 325.218726 153.632282 
L 326.161028 138.763198 
L 327.10333 151.154101 
L 328.045633 135.045927 
L 328.987935 112.742301 
L 329.930237 137.524107 
L 330.872539 126.372295 
L 331.814842 100.351398 
L 332.757144 132.567746 
L 333.699446 149.915011 
L 334.641749 135.045927 
L 335.584051 122.655024 
L 336.526353 147.43683 
L 337.468655 122.655024 
L 338.410958 158.588643 
L 340.295562 104.068669 
L 341.237865 131.328656 
L 342.180167 113.981391 
L 344.064771 136.285017 
L 345.007074 137.524107 
L 345.949376 116.459572 
L 346.891678 121.415933 
L 347.833981 128.850475 
L 348.776283 121.415933 
L 349.718585 138.763198 
L 350.660887 118.937753 
L 351.60319 117.698662 
L 352.545492 122.655024 
L 353.487794 130.089566 
L 354.430096 109.02503 
L 355.372399 120.176843 
L 356.314701 143.719559 
L 357.257003 120.176843 
L 358.199306 125.133204 
L 359.141608 117.698662 
L 360.08391 128.850475 
L 361.026212 137.524107 
L 361.968515 128.850475 
L 362.910817 95.395037 
L 363.853119 109.02503 
L 364.795422 112.742301 
L 365.737724 102.829579 
L 366.680026 123.894114 
L 367.622328 132.567746 
L 368.564631 133.806837 
L 368.564631 133.806837 
" style="fill:none;stroke:#1f77b4;stroke-linecap:square;stroke-width:1.5;"/>
   </g>
   <g id="line2d_18">
    <path clip-path="url(#p5e02f2a864)" d="M 64.200994 126.777676 
L 65.143297 129.255857 
L 66.085599 128.016766 
L 67.027901 124.299495 
L 67.970203 125.538586 
L 68.912506 125.538586 
L 69.854808 118.104044 
L 70.79711 114.386773 
L 71.739413 111.908592 
L 72.681715 113.147683 
L 73.624017 111.908592 
L 74.566319 115.625863 
L 76.450924 125.538586 
L 77.393226 129.255857 
L 78.335529 130.494947 
L 79.277831 130.494947 
L 80.220133 128.016766 
L 81.162435 128.016766 
L 82.104738 126.777676 
L 83.989342 126.777676 
L 84.931644 125.538586 
L 85.873947 118.104044 
L 86.816249 119.343134 
L 87.758551 110.669502 
L 88.700854 109.430412 
L 89.643156 109.430412 
L 90.585458 108.191321 
L 91.52776 110.669502 
L 92.470063 136.690399 
L 93.412365 144.12494 
L 95.29697 146.603121 
L 96.239272 150.320392 
L 97.181574 155.276753 
L 98.123876 156.515844 
L 99.066179 147.842211 
L 100.008481 146.603121 
L 100.950783 144.12494 
L 101.893086 137.929489 
L 102.835388 135.451308 
L 103.77769 129.255857 
L 104.719992 126.777676 
L 105.662295 123.060405 
L 106.604597 128.016766 
L 107.546899 126.777676 
L 108.489201 128.016766 
L 109.431504 134.212218 
L 110.373806 129.255857 
L 111.316108 139.168579 
L 112.258411 139.168579 
L 113.200713 140.407669 
L 114.143015 152.798573 
L 115.085317 146.603121 
L 116.969922 136.690399 
L 117.912224 136.690399 
L 118.854527 130.494947 
L 120.739131 125.538586 
L 121.681433 124.299495 
L 122.623736 124.299495 
L 123.566038 121.821315 
L 124.50834 134.212218 
L 125.450643 130.494947 
L 126.392945 132.973128 
L 127.335247 130.494947 
L 128.277549 140.407669 
L 129.219852 139.168579 
L 130.162154 141.64676 
L 131.104456 147.842211 
L 132.046758 145.364031 
L 132.989061 140.407669 
L 133.931363 141.64676 
L 134.873665 137.929489 
L 135.815968 132.973128 
L 136.75827 123.060405 
L 137.700572 120.582224 
L 138.642874 121.821315 
L 139.585177 119.343134 
L 141.469781 124.299495 
L 142.412084 134.212218 
L 143.354386 116.864954 
L 144.296688 147.842211 
L 145.23899 131.734037 
L 146.181293 113.147683 
L 147.123595 119.343134 
L 148.065897 139.168579 
L 149.008199 126.777676 
L 149.950502 131.734037 
L 150.892804 123.060405 
L 151.835106 134.212218 
L 152.777409 118.104044 
L 153.719711 139.168579 
L 154.662013 139.168579 
L 155.604315 131.734037 
L 156.546618 139.168579 
L 157.48892 137.929489 
L 158.431222 130.494947 
L 159.373525 144.12494 
L 160.315827 134.212218 
L 161.258129 149.081302 
L 162.200431 116.864954 
L 163.142734 134.212218 
L 164.085036 146.603121 
L 165.027338 126.777676 
L 165.969641 130.494947 
L 166.911943 130.494947 
L 167.854245 137.929489 
L 168.796547 132.973128 
L 169.73885 131.734037 
L 170.681152 144.12494 
L 171.623454 139.168579 
L 172.565756 142.88585 
L 173.508059 157.754934 
L 174.450361 136.690399 
L 176.334966 151.559482 
L 177.277268 146.603121 
L 178.21957 123.060405 
L 179.161872 137.929489 
L 180.104175 157.754934 
L 181.046477 134.212218 
L 181.988779 130.494947 
L 182.931082 132.973128 
L 183.873384 136.690399 
L 184.815686 145.364031 
L 185.757988 140.407669 
L 186.700291 137.929489 
L 187.642593 139.168579 
L 188.584895 172.624018 
L 190.4695 126.777676 
L 192.354104 175.102198 
L 193.296407 145.364031 
L 194.238709 136.690399 
L 195.181011 137.929489 
L 196.123313 154.037663 
L 197.065616 139.168579 
L 198.007918 128.016766 
L 198.95022 150.320392 
L 199.892523 132.973128 
L 200.834825 134.212218 
L 201.777127 139.168579 
L 202.719429 137.929489 
L 203.661732 167.667656 
L 204.604034 146.603121 
L 205.546336 151.559482 
L 206.488639 152.798573 
L 207.430941 144.12494 
L 208.373243 145.364031 
L 209.315545 140.407669 
L 210.257848 128.016766 
L 211.20015 94.561328 
L 212.142452 146.603121 
L 213.084755 128.016766 
L 214.027057 140.407669 
L 214.969359 104.47405 
L 215.911661 129.255857 
L 216.853964 160.233115 
L 217.796266 149.081302 
L 218.738568 150.320392 
L 219.68087 132.973128 
L 220.623173 145.364031 
L 221.565475 136.690399 
L 222.507777 123.060405 
L 224.392382 155.276753 
L 225.334684 136.690399 
L 226.276986 140.407669 
L 227.219289 139.168579 
L 229.103893 162.711295 
L 230.046196 135.451308 
L 230.988498 130.494947 
L 231.9308 144.12494 
L 232.873102 147.842211 
L 233.815405 135.451308 
L 234.757707 136.690399 
L 235.700009 156.515844 
L 236.642312 149.081302 
L 237.584614 139.168579 
L 238.526916 134.212218 
L 239.469218 131.734037 
L 240.411521 147.842211 
L 241.353823 121.821315 
L 242.296125 99.517689 
L 243.238427 132.973128 
L 244.18073 139.168579 
L 245.123032 115.625863 
L 246.065334 139.168579 
L 247.007637 144.12494 
L 247.949939 141.64676 
L 248.892241 150.320392 
L 250.776846 145.364031 
L 251.719148 168.906747 
L 252.66145 145.364031 
L 253.603753 140.407669 
L 254.546055 139.168579 
L 255.488357 136.690399 
L 256.430659 111.908592 
L 257.372962 131.734037 
L 258.315264 123.060405 
L 259.257566 116.864954 
L 260.199869 119.343134 
L 261.142171 134.212218 
L 262.084473 129.255857 
L 263.026775 149.081302 
L 263.969078 125.538586 
L 264.91138 119.343134 
L 265.853682 149.081302 
L 266.795984 139.168579 
L 267.738287 141.64676 
L 268.680589 136.690399 
L 269.622891 132.973128 
L 270.565194 101.99587 
L 271.507496 114.386773 
L 272.449798 130.494947 
L 273.3921 109.430412 
L 274.334403 115.625863 
L 275.276705 109.430412 
L 276.219007 118.104044 
L 277.16131 125.538586 
L 279.045914 128.016766 
L 279.988216 146.603121 
L 281.872821 123.060405 
L 282.815123 131.734037 
L 283.757426 152.798573 
L 284.699728 147.842211 
L 285.64203 140.407669 
L 286.584332 152.798573 
L 287.526635 142.88585 
L 288.468937 135.451308 
L 289.411239 136.690399 
L 290.353541 131.734037 
L 291.295844 118.104044 
L 292.238146 123.060405 
L 293.180448 129.255857 
L 294.122751 147.842211 
L 295.065053 155.276753 
L 296.007355 131.734037 
L 296.949657 142.88585 
L 297.89196 160.233115 
L 298.834262 140.407669 
L 299.776564 135.451308 
L 300.718867 121.821315 
L 301.661169 145.364031 
L 302.603471 140.407669 
L 303.545773 120.582224 
L 304.488076 114.386773 
L 305.430378 136.690399 
L 306.37268 137.929489 
L 307.314982 123.060405 
L 308.257285 137.929489 
L 309.199587 134.212218 
L 310.141889 149.081302 
L 311.084192 147.842211 
L 312.026494 172.624018 
L 312.968796 128.016766 
L 313.911098 121.821315 
L 314.853401 136.690399 
L 315.795703 134.212218 
L 316.738005 106.952231 
L 317.680308 129.255857 
L 318.62261 137.929489 
L 319.564912 129.255857 
L 320.507214 132.973128 
L 321.449517 135.451308 
L 322.391819 136.690399 
L 323.334121 165.189476 
L 324.276424 142.88585 
L 325.218726 124.299495 
L 326.161028 162.711295 
L 327.10333 145.364031 
L 328.045633 182.53674 
L 328.987935 152.798573 
L 329.930237 137.929489 
L 330.872539 136.690399 
L 331.814842 136.690399 
L 332.757144 154.037663 
L 333.699446 128.016766 
L 334.641749 110.669502 
L 335.584051 126.777676 
L 336.526353 129.255857 
L 337.468655 132.973128 
L 338.410958 129.255857 
L 339.35326 149.081302 
L 340.295562 145.364031 
L 341.237865 140.407669 
L 342.180167 141.64676 
L 343.122469 173.863108 
L 344.064771 149.081302 
L 345.007074 136.690399 
L 345.949376 121.821315 
L 346.891678 135.451308 
L 347.833981 141.64676 
L 348.776283 129.255857 
L 349.718585 131.734037 
L 350.660887 123.060405 
L 351.60319 129.255857 
L 352.545492 125.538586 
L 353.487794 135.451308 
L 354.430096 129.255857 
L 355.372399 142.88585 
L 357.257003 116.864954 
L 358.199306 130.494947 
L 359.141608 132.973128 
L 360.08391 126.777676 
L 361.026212 125.538586 
L 361.968515 151.559482 
L 362.910817 132.973128 
L 364.795422 123.060405 
L 365.737724 128.016766 
L 366.680026 140.407669 
L 367.622328 125.538586 
L 368.564631 113.147683 
L 368.564631 113.147683 
" style="fill:none;stroke:#ff7f0e;stroke-linecap:square;stroke-width:1.5;"/>
   </g>
   <g id="line2d_19">
    <path clip-path="url(#p5e02f2a864)" d="M 64.200994 76.780643 
L 65.143297 76.780643 
L 66.085599 74.247192 
L 67.027901 76.047087 
L 67.970203 74.247192 
L 68.912506 65.999115 
L 69.854808 47.516672 
L 70.79711 48.82537 
L 71.739413 51.365782 
L 72.681715 67.60963 
L 73.624017 63.352117 
L 74.566319 65.147473 
L 75.508622 69.792229 
L 76.450924 71.694518 
L 77.393226 76.047087 
L 78.335529 68.368309 
L 79.277831 74.666429 
L 81.162435 63.352117 
L 82.104738 60.431806 
L 83.04704 63.352117 
L 83.989342 62.408762 
L 84.931644 70.457443 
L 85.873947 73.318002 
L 86.816249 64.265085 
L 87.758551 61.435243 
L 88.700854 75.415426 
L 89.643156 77.554808 
L 90.585458 69.792229 
L 91.52776 57.244875 
L 92.470063 46.183036 
L 93.412365 52.596468 
L 94.354667 48.82537 
L 97.181574 76.564135 
L 98.123876 76.319751 
L 99.066179 61.435243 
L 100.008481 62.408762 
L 100.950783 53.800162 
L 101.893086 52.596468 
L 102.835388 48.82537 
L 103.77769 50.108582 
L 104.719992 52.596468 
L 105.662295 61.435243 
L 106.604597 73.318002 
L 107.546899 65.147473 
L 108.489201 64.265085 
L 109.431504 64.265085 
L 110.373806 58.336308 
L 111.316108 42.038311 
L 112.258411 42.038311 
L 113.200713 56.124783 
L 114.143015 43.443253 
L 115.085317 43.443253 
L 116.02762 44.825032 
L 117.912224 52.596468 
L 119.796829 72.266519 
L 120.739131 62.408762 
L 121.681433 62.408762 
L 122.623736 61.435243 
L 123.566038 70.457443 
L 124.50834 60.431806 
L 125.450643 54.97641 
L 126.392945 47.516672 
L 127.335247 37.690956 
L 128.277549 18.660196 
L 129.219852 21.980591 
L 130.162154 23.622202 
L 131.104456 40.610841 
L 132.046758 37.690956 
L 132.989061 37.690956 
L 133.931363 20.326303 
L 134.873665 26.864019 
L 135.815968 42.038311 
L 136.75827 51.365782 
L 137.700572 62.408762 
L 138.642874 71.694518 
L 139.585177 76.969706 
L 140.527479 126.226384 
L 141.469781 57.053652 
L 142.412084 95.485046 
L 143.354386 67.337799 
L 144.296688 127.381976 
L 145.23899 62.224868 
L 146.181293 112.473599 
L 147.123595 127.097542 
L 148.065897 124.308312 
L 149.008199 116.306878 
L 149.950502 116.306878 
L 150.892804 127.097542 
L 151.835106 89.732749 
L 152.777409 128.361544 
L 153.719711 127.45722 
L 154.662013 124.602339 
L 155.604315 113.477036 
L 156.546618 129.595393 
L 157.48892 127.45722 
L 158.431222 129.502729 
L 159.373525 129.209928 
L 160.315827 129.607578 
L 161.258129 128.361544 
L 162.200431 112.473599 
L 163.142734 124.308312 
L 164.085036 124.849427 
L 165.027338 123.736312 
L 165.969641 124.849427 
L 166.911943 129.418671 
L 167.854245 129.502729 
L 168.796547 126.288985 
L 169.73885 63.936868 
L 170.681152 127.643507 
L 171.623454 129.173569 
L 172.565756 119.651423 
L 173.508059 129.072775 
L 174.450361 128.822437 
L 175.392663 126.288985 
L 176.334966 122.499237 
L 177.277268 129.504094 
L 178.21957 102.150375 
L 179.161872 129.504094 
L 181.046477 121.834022 
L 181.988779 126.529947 
L 182.931082 129.426308 
L 183.873384 118.040908 
L 184.815686 120.410102 
L 185.757988 116.306878 
L 186.700291 126.226384 
L 187.642593 92.652635 
L 188.584895 128.744271 
L 189.527198 128.08888 
L 190.4695 129.595393 
L 191.411802 127.787556 
L 192.354104 128.605928 
L 193.296407 128.822437 
L 194.238709 129.56068 
L 195.181011 128.08888 
L 196.123313 127.097542 
L 197.065616 129.072775 
L 198.007918 126.226384 
L 198.95022 120.410102 
L 199.892523 129.595393 
L 200.834825 129.504094 
L 201.777127 96.866825 
L 202.719429 124.849427 
L 203.661732 100.867164 
L 204.604034 126.226384 
L 205.546336 128.361544 
L 206.488639 116.306878 
L 207.430941 129.173569 
L 208.373243 128.822437 
L 209.315545 118.861664 
L 210.257848 125.359795 
L 211.20015 77.292082 
L 212.142452 129.504094 
L 213.084755 127.45722 
L 214.027057 127.787556 
L 214.969359 63.936868 
L 215.911661 78.905812 
L 216.853964 179.125462 
L 217.796266 178.773541 
L 218.738568 108.345955 
L 219.68087 158.850281 
L 220.623173 178.480914 
L 221.565475 123.585997 
L 222.507777 146.430438 
L 223.45008 116.901411 
L 224.392382 177.691305 
L 225.334684 177.351169 
L 226.276986 178.575111 
L 227.219289 178.575111 
L 228.161591 179.067706 
L 229.103893 177.925157 
L 230.046196 158.850281 
L 230.988498 123.585997 
L 231.9308 178.773541 
L 232.873102 177.020832 
L 233.815405 179.171191 
L 234.757707 173.826296 
L 235.700009 178.307884 
L 236.642312 152.971188 
L 237.584614 178.982283 
L 238.526916 178.386049 
L 239.469218 178.737182 
L 240.411521 155.405568 
L 241.353823 178.386049 
L 242.296125 157.730189 
L 243.238427 177.652493 
L 244.18073 177.351169 
L 245.123032 169.973714 
L 246.065334 177.925157 
L 247.007637 174.501886 
L 247.949939 172.696927 
L 248.892241 178.773541 
L 249.834543 174.923408 
L 250.776846 172.794288 
L 251.719148 179.171191 
L 252.66145 177.925157 
L 253.603753 174.501886 
L 254.546055 179.160214 
L 255.488357 179.160214 
L 256.430659 177.207119 
L 257.372962 177.351169 
L 258.315264 175.478142 
L 259.257566 175.789997 
L 260.199869 178.307884 
L 261.142171 164.957523 
L 262.084473 177.455974 
L 263.026775 175.403196 
L 263.969078 164.014168 
L 264.91138 131.650543 
L 265.853682 177.455974 
L 266.795984 170.701257 
L 267.738287 175.403196 
L 268.680589 155.405568 
L 269.622891 164.957523 
L 270.565194 142.216247 
L 271.507496 165.870491 
L 272.449798 164.014168 
L 273.3921 179.171191 
L 274.334403 163.040649 
L 275.276705 179.125462 
L 276.219007 178.386049 
L 277.16131 113.500481 
L 278.103612 168.425277 
L 279.045914 155.405568 
L 279.988216 179.124293 
L 280.930519 171.397635 
L 281.872821 145.048658 
L 282.815123 172.696927 
L 283.757426 163.040649 
L 284.699728 176.661155 
L 285.64203 170.701257 
L 286.584332 177.912278 
L 287.526635 175.789997 
L 288.468937 178.773541 
L 289.411239 159.941714 
L 290.353541 116.901411 
L 291.295844 178.636387 
L 292.238146 177.912278 
L 293.180448 211.044634 
L 294.122751 215.558759 
L 295.065053 199.209921 
L 296.007355 215.747821 
L 296.949657 216.239051 
L 297.89196 190.143897 
L 298.834262 202.130232 
L 299.776564 184.961151 
L 300.718867 215.34225 
L 301.661169 190.143897 
L 302.603471 204.77723 
L 303.545773 214.825202 
L 304.488076 203.925588 
L 305.430378 196.02299 
L 306.37268 202.130232 
L 307.314982 184.961151 
L 308.257285 204.77723 
L 309.199587 201.186878 
L 310.141889 204.77723 
L 311.084192 199.209921 
L 312.026494 183.603147 
L 312.968796 205.597986 
L 313.911098 193.754525 
L 314.853401 197.114423 
L 315.795703 193.754525 
L 316.738005 216.297002 
L 317.680308 209.869636 
L 318.62261 198.176843 
L 319.564912 202.130232 
L 320.507214 198.176843 
L 321.449517 168.823252 
L 322.391819 197.114423 
L 323.334121 182.221368 
L 324.276424 180.816426 
L 325.218726 136.847284 
L 326.161028 206.387745 
L 327.10333 190.143897 
L 328.045633 206.387745 
L 328.987935 171.937269 
L 329.930237 179.388956 
L 330.872539 179.388956 
L 331.814842 160.758706 
L 333.699446 200.213358 
L 334.641749 164.028404 
L 335.584051 212.096117 
L 336.526353 190.143897 
L 337.468655 198.176843 
L 338.410958 145.518665 
L 339.35326 187.603486 
L 340.295562 193.754525 
L 341.237865 191.374583 
L 342.180167 155.761253 
L 343.122469 211.585749 
L 344.064771 180.816426 
L 345.007074 197.114423 
L 345.949376 164.028404 
L 346.891678 182.221368 
L 347.833981 187.603486 
L 348.776283 202.130232 
L 349.718585 197.114423 
L 350.660887 209.235558 
L 351.60319 216.154992 
L 352.545492 215.94625 
L 353.487794 200.213358 
L 354.430096 216.154992 
L 355.372399 206.387745 
L 356.314701 167.240686 
L 357.257003 204.77723 
L 358.199306 173.467179 
L 359.141608 184.961151 
L 360.08391 191.374583 
L 361.026212 191.374583 
L 361.968515 212.575905 
L 362.910817 216.332924 
L 363.853119 212.096117 
L 364.795422 206.387745 
L 365.737724 216.297002 
L 366.680026 213.833864 
L 367.622328 213.444544 
L 368.564631 213.560645 
L 368.564631 213.560645 
" style="fill:none;stroke:#2ca02c;stroke-linecap:square;stroke-width:1.5;"/>
   </g>
   <g id="patch_3">
    <path d="M 48.982813 226.21656 
L 48.982813 8.77656 
" style="fill:none;stroke:#000000;stroke-linecap:square;stroke-linejoin:miter;stroke-width:0.8;"/>
   </g>
   <g id="patch_4">
    <path d="M 383.782813 226.21656 
L 383.782813 8.77656 
" style="fill:none;stroke:#000000;stroke-linecap:square;stroke-linejoin:miter;stroke-width:0.8;"/>
   </g>
   <g id="patch_5">
    <path d="M 48.982813 226.21656 
L 383.782812 226.21656 
" style="fill:none;stroke:#000000;stroke-linecap:square;stroke-linejoin:miter;stroke-width:0.8;"/>
   </g>
   <g id="patch_6">
    <path d="M 48.982813 8.77656 
L 383.782812 8.77656 
" style="fill:none;stroke:#000000;stroke-linecap:square;stroke-linejoin:miter;stroke-width:0.8;"/>
   </g>
   <g id="legend_1">
    <g id="patch_7">
     <path d="M 325.982813 61.831247 
L 376.782813 61.831247 
Q 378.782813 61.831247 378.782813 59.831247 
L 378.782813 15.77656 
Q 378.782813 13.77656 376.782813 13.77656 
L 325.982813 13.77656 
Q 323.982813 13.77656 323.982813 15.77656 
L 323.982813 59.831247 
Q 323.982813 61.831247 325.982813 61.831247 
z
" style="fill:#ffffff;opacity:0.8;stroke:#cccccc;stroke-linejoin:miter;"/>
    </g>
    <g id="line2d_20">
     <path d="M 327.982813 21.874997 
L 347.982813 21.874997 
" style="fill:none;stroke:#1f77b4;stroke-linecap:square;stroke-width:1.5;"/>
    </g>
    <g id="line2d_21"/>
    <g id="text_19">
     <!-- $err_x$ -->
     <defs>
      <path d="M 48.09375 32.234375 
Q 48.25 33.015625 48.3125 33.84375 
Q 48.390625 34.671875 48.390625 35.5 
Q 48.390625 41.453125 44.890625 44.921875 
Q 41.40625 48.390625 35.40625 48.390625 
Q 28.71875 48.390625 23.578125 44.15625 
Q 18.453125 39.9375 15.828125 32.171875 
z
M 55.90625 25.203125 
L 14.109375 25.203125 
Q 13.8125 23.34375 13.71875 22.265625 
Q 13.625 21.1875 13.625 20.40625 
Q 13.625 13.625 17.796875 9.90625 
Q 21.96875 6.203125 29.59375 6.203125 
Q 35.453125 6.203125 40.671875 7.515625 
Q 45.90625 8.84375 50.390625 11.375 
L 48.6875 2.484375 
Q 43.84375 0.53125 38.6875 -0.4375 
Q 33.546875 -1.421875 28.21875 -1.421875 
Q 16.84375 -1.421875 10.71875 4.015625 
Q 4.59375 9.46875 4.59375 19.484375 
Q 4.59375 28.03125 7.640625 35.375 
Q 10.6875 42.71875 16.609375 48.484375 
Q 20.40625 52.09375 25.65625 54.046875 
Q 30.90625 56 36.8125 56 
Q 46.09375 56 51.578125 50.4375 
Q 57.078125 44.875 57.078125 35.5 
Q 57.078125 33.25 56.78125 30.6875 
Q 56.5 28.125 55.90625 25.203125 
z
" id="DejaVuSans-Oblique-101"/>
      <path d="M 44.578125 46.390625 
Q 43.21875 47.125 41.453125 47.515625 
Q 39.703125 47.90625 37.703125 47.90625 
Q 30.515625 47.90625 25.140625 42.453125 
Q 19.78125 37.015625 18.015625 27.875 
L 12.5 0 
L 3.515625 0 
L 14.203125 54.6875 
L 23.1875 54.6875 
L 21.484375 46.1875 
Q 25.046875 50.921875 30 53.453125 
Q 34.96875 56 40.578125 56 
Q 42.046875 56 43.453125 55.828125 
Q 44.875 55.671875 46.296875 55.28125 
z
" id="DejaVuSans-Oblique-114"/>
      <path d="M 60.015625 54.6875 
L 34.90625 27.875 
L 50.296875 0 
L 39.984375 0 
L 28.421875 21.6875 
L 8.296875 0 
L -2.59375 0 
L 24.3125 28.8125 
L 10.015625 54.6875 
L 20.3125 54.6875 
L 30.8125 34.90625 
L 49.125 54.6875 
z
" id="DejaVuSans-Oblique-120"/>
     </defs>
     <g transform="translate(355.982813 25.374997)scale(0.1 -0.1)">
      <use xlink:href="#DejaVuSans-Oblique-101"/>
      <use transform="translate(61.523438 0)" xlink:href="#DejaVuSans-Oblique-114"/>
      <use transform="translate(102.636719 0)" xlink:href="#DejaVuSans-Oblique-114"/>
      <use transform="translate(143.75 -16.40625)scale(0.7)" xlink:href="#DejaVuSans-Oblique-120"/>
     </g>
    </g>
    <g id="line2d_22">
     <path d="M 327.982813 36.553122 
L 347.982813 36.553122 
" style="fill:none;stroke:#ff7f0e;stroke-linecap:square;stroke-width:1.5;"/>
    </g>
    <g id="line2d_23"/>
    <g id="text_20">
     <!-- $err_y$ -->
     <defs>
      <path d="M 24.8125 -5.078125 
Q 18.5625 -15.578125 14.625 -18.1875 
Q 10.6875 -20.796875 4.59375 -20.796875 
L -2.484375 -20.796875 
L -0.984375 -13.28125 
L 4.203125 -13.28125 
Q 7.953125 -13.28125 10.59375 -11.234375 
Q 13.234375 -9.1875 16.5 -3.21875 
L 19.28125 2 
L 7.171875 54.6875 
L 16.703125 54.6875 
L 25.78125 12.796875 
L 50.875 54.6875 
L 60.296875 54.6875 
z
" id="DejaVuSans-Oblique-121"/>
     </defs>
     <g transform="translate(355.982813 40.053122)scale(0.1 -0.1)">
      <use xlink:href="#DejaVuSans-Oblique-101"/>
      <use transform="translate(61.523438 0)" xlink:href="#DejaVuSans-Oblique-114"/>
      <use transform="translate(102.636719 0)" xlink:href="#DejaVuSans-Oblique-114"/>
      <use transform="translate(143.75 -16.40625)scale(0.7)" xlink:href="#DejaVuSans-Oblique-121"/>
     </g>
    </g>
    <g id="line2d_24">
     <path d="M 327.982813 52.25156 
L 347.982813 52.25156 
" style="fill:none;stroke:#2ca02c;stroke-linecap:square;stroke-width:1.5;"/>
    </g>
    <g id="line2d_25"/>
    <g id="text_21">
     <!-- $err_z$ -->
     <defs>
      <path d="M 11.625 54.6875 
L 54.296875 54.6875 
L 52.6875 46.484375 
L 11.53125 7.171875 
L 45.515625 7.171875 
L 44.09375 0 
L -0.296875 0 
L 1.3125 8.203125 
L 42.484375 47.515625 
L 10.203125 47.515625 
z
" id="DejaVuSans-Oblique-122"/>
     </defs>
     <g transform="translate(355.982813 55.75156)scale(0.1 -0.1)">
      <use xlink:href="#DejaVuSans-Oblique-101"/>
      <use transform="translate(61.523438 0)" xlink:href="#DejaVuSans-Oblique-114"/>
      <use transform="translate(102.636719 0)" xlink:href="#DejaVuSans-Oblique-114"/>
      <use transform="translate(143.75 -16.40625)scale(0.7)" xlink:href="#DejaVuSans-Oblique-122"/>
     </g>
    </g>
   </g>
  </g>
 </g>
 <defs>
  <clipPath id="p5e02f2a864">
   <rect height="217.44" width="334.8" x="48.982813" y="8.77656"/>
  </clipPath>
 </defs>
</svg>
