<?xml version="1.0" encoding="utf-8" standalone="no"?>
<!DOCTYPE svg PUBLIC "-//W3C//DTD SVG 1.1//EN"
  "http://www.w3.org/Graphics/SVG/1.1/DTD/svg11.dtd">
<!-- Created with matplotlib (https://matplotlib.org/) -->
<svg height="262.19625pt" version="1.1" viewBox="0 0 390.982812 262.19625" width="390.982812pt" xmlns="http://www.w3.org/2000/svg" xmlns:xlink="http://www.w3.org/1999/xlink">
 <defs>
  <style type="text/css">
*{stroke-linecap:butt;stroke-linejoin:round;}
  </style>
 </defs>
 <g id="figure_1">
  <g id="patch_1">
   <path d="M 0 262.19625 
L 390.982812 262.19625 
L 390.982812 0 
L 0 0 
z
" style="fill:#ffffff;"/>
  </g>
  <g id="axes_1">
   <g id="patch_2">
    <path d="M 48.982813 224.64 
L 383.782813 224.64 
L 383.782813 7.2 
L 48.982813 7.2 
z
" style="fill:#ffffff;"/>
   </g>
   <g id="matplotlib.axis_1">
    <g id="xtick_1">
     <g id="line2d_1">
      <defs>
       <path d="M 0 0 
L 0 3.5 
" id="m5d68c181a5" style="stroke:#000000;stroke-width:0.8;"/>
      </defs>
      <g>
       <use style="stroke:#000000;stroke-width:0.8;" x="64.200994" xlink:href="#m5d68c181a5" y="224.64"/>
      </g>
     </g>
     <g id="text_1">
      <!-- 0 -->
      <defs>
       <path d="M 31.78125 66.40625 
Q 24.171875 66.40625 20.328125 58.90625 
Q 16.5 51.421875 16.5 36.375 
Q 16.5 21.390625 20.328125 13.890625 
Q 24.171875 6.390625 31.78125 6.390625 
Q 39.453125 6.390625 43.28125 13.890625 
Q 47.125 21.390625 47.125 36.375 
Q 47.125 51.421875 43.28125 58.90625 
Q 39.453125 66.40625 31.78125 66.40625 
z
M 31.78125 74.21875 
Q 44.046875 74.21875 50.515625 64.515625 
Q 56.984375 54.828125 56.984375 36.375 
Q 56.984375 17.96875 50.515625 8.265625 
Q 44.046875 -1.421875 31.78125 -1.421875 
Q 19.53125 -1.421875 13.0625 8.265625 
Q 6.59375 17.96875 6.59375 36.375 
Q 6.59375 54.828125 13.0625 64.515625 
Q 19.53125 74.21875 31.78125 74.21875 
z
" id="DejaVuSans-48"/>
      </defs>
      <g transform="translate(61.019744 239.238437)scale(0.1 -0.1)">
       <use xlink:href="#DejaVuSans-48"/>
      </g>
     </g>
    </g>
    <g id="xtick_2">
     <g id="line2d_2">
      <g>
       <use style="stroke:#000000;stroke-width:0.8;" x="111.316108" xlink:href="#m5d68c181a5" y="224.64"/>
      </g>
     </g>
     <g id="text_2">
      <!-- 50 -->
      <defs>
       <path d="M 10.796875 72.90625 
L 49.515625 72.90625 
L 49.515625 64.59375 
L 19.828125 64.59375 
L 19.828125 46.734375 
Q 21.96875 47.46875 24.109375 47.828125 
Q 26.265625 48.1875 28.421875 48.1875 
Q 40.625 48.1875 47.75 41.5 
Q 54.890625 34.8125 54.890625 23.390625 
Q 54.890625 11.625 47.5625 5.09375 
Q 40.234375 -1.421875 26.90625 -1.421875 
Q 22.3125 -1.421875 17.546875 -0.640625 
Q 12.796875 0.140625 7.71875 1.703125 
L 7.71875 11.625 
Q 12.109375 9.234375 16.796875 8.0625 
Q 21.484375 6.890625 26.703125 6.890625 
Q 35.15625 6.890625 40.078125 11.328125 
Q 45.015625 15.765625 45.015625 23.390625 
Q 45.015625 31 40.078125 35.4375 
Q 35.15625 39.890625 26.703125 39.890625 
Q 22.75 39.890625 18.8125 39.015625 
Q 14.890625 38.140625 10.796875 36.28125 
z
" id="DejaVuSans-53"/>
      </defs>
      <g transform="translate(104.953608 239.238437)scale(0.1 -0.1)">
       <use xlink:href="#DejaVuSans-53"/>
       <use x="63.623047" xlink:href="#DejaVuSans-48"/>
      </g>
     </g>
    </g>
    <g id="xtick_3">
     <g id="line2d_3">
      <g>
       <use style="stroke:#000000;stroke-width:0.8;" x="158.431222" xlink:href="#m5d68c181a5" y="224.64"/>
      </g>
     </g>
     <g id="text_3">
      <!-- 100 -->
      <defs>
       <path d="M 12.40625 8.296875 
L 28.515625 8.296875 
L 28.515625 63.921875 
L 10.984375 60.40625 
L 10.984375 69.390625 
L 28.421875 72.90625 
L 38.28125 72.90625 
L 38.28125 8.296875 
L 54.390625 8.296875 
L 54.390625 0 
L 12.40625 0 
z
" id="DejaVuSans-49"/>
      </defs>
      <g transform="translate(148.887472 239.238437)scale(0.1 -0.1)">
       <use xlink:href="#DejaVuSans-49"/>
       <use x="63.623047" xlink:href="#DejaVuSans-48"/>
       <use x="127.246094" xlink:href="#DejaVuSans-48"/>
      </g>
     </g>
    </g>
    <g id="xtick_4">
     <g id="line2d_4">
      <g>
       <use style="stroke:#000000;stroke-width:0.8;" x="205.546336" xlink:href="#m5d68c181a5" y="224.64"/>
      </g>
     </g>
     <g id="text_4">
      <!-- 150 -->
      <g transform="translate(196.002586 239.238437)scale(0.1 -0.1)">
       <use xlink:href="#DejaVuSans-49"/>
       <use x="63.623047" xlink:href="#DejaVuSans-53"/>
       <use x="127.246094" xlink:href="#DejaVuSans-48"/>
      </g>
     </g>
    </g>
    <g id="xtick_5">
     <g id="line2d_5">
      <g>
       <use style="stroke:#000000;stroke-width:0.8;" x="252.66145" xlink:href="#m5d68c181a5" y="224.64"/>
      </g>
     </g>
     <g id="text_5">
      <!-- 200 -->
      <defs>
       <path d="M 19.1875 8.296875 
L 53.609375 8.296875 
L 53.609375 0 
L 7.328125 0 
L 7.328125 8.296875 
Q 12.9375 14.109375 22.625 23.890625 
Q 32.328125 33.6875 34.8125 36.53125 
Q 39.546875 41.84375 41.421875 45.53125 
Q 43.3125 49.21875 43.3125 52.78125 
Q 43.3125 58.59375 39.234375 62.25 
Q 35.15625 65.921875 28.609375 65.921875 
Q 23.96875 65.921875 18.8125 64.3125 
Q 13.671875 62.703125 7.8125 59.421875 
L 7.8125 69.390625 
Q 13.765625 71.78125 18.9375 73 
Q 24.125 74.21875 28.421875 74.21875 
Q 39.75 74.21875 46.484375 68.546875 
Q 53.21875 62.890625 53.21875 53.421875 
Q 53.21875 48.921875 51.53125 44.890625 
Q 49.859375 40.875 45.40625 35.40625 
Q 44.1875 33.984375 37.640625 27.21875 
Q 31.109375 20.453125 19.1875 8.296875 
z
" id="DejaVuSans-50"/>
      </defs>
      <g transform="translate(243.1177 239.238437)scale(0.1 -0.1)">
       <use xlink:href="#DejaVuSans-50"/>
       <use x="63.623047" xlink:href="#DejaVuSans-48"/>
       <use x="127.246094" xlink:href="#DejaVuSans-48"/>
      </g>
     </g>
    </g>
    <g id="xtick_6">
     <g id="line2d_6">
      <g>
       <use style="stroke:#000000;stroke-width:0.8;" x="299.776564" xlink:href="#m5d68c181a5" y="224.64"/>
      </g>
     </g>
     <g id="text_6">
      <!-- 250 -->
      <g transform="translate(290.232814 239.238437)scale(0.1 -0.1)">
       <use xlink:href="#DejaVuSans-50"/>
       <use x="63.623047" xlink:href="#DejaVuSans-53"/>
       <use x="127.246094" xlink:href="#DejaVuSans-48"/>
      </g>
     </g>
    </g>
    <g id="xtick_7">
     <g id="line2d_7">
      <g>
       <use style="stroke:#000000;stroke-width:0.8;" x="346.891678" xlink:href="#m5d68c181a5" y="224.64"/>
      </g>
     </g>
     <g id="text_7">
      <!-- 300 -->
      <defs>
       <path d="M 40.578125 39.3125 
Q 47.65625 37.796875 51.625 33 
Q 55.609375 28.21875 55.609375 21.1875 
Q 55.609375 10.40625 48.1875 4.484375 
Q 40.765625 -1.421875 27.09375 -1.421875 
Q 22.515625 -1.421875 17.65625 -0.515625 
Q 12.796875 0.390625 7.625 2.203125 
L 7.625 11.71875 
Q 11.71875 9.328125 16.59375 8.109375 
Q 21.484375 6.890625 26.8125 6.890625 
Q 36.078125 6.890625 40.9375 10.546875 
Q 45.796875 14.203125 45.796875 21.1875 
Q 45.796875 27.640625 41.28125 31.265625 
Q 36.765625 34.90625 28.71875 34.90625 
L 20.21875 34.90625 
L 20.21875 43.015625 
L 29.109375 43.015625 
Q 36.375 43.015625 40.234375 45.921875 
Q 44.09375 48.828125 44.09375 54.296875 
Q 44.09375 59.90625 40.109375 62.90625 
Q 36.140625 65.921875 28.71875 65.921875 
Q 24.65625 65.921875 20.015625 65.03125 
Q 15.375 64.15625 9.8125 62.3125 
L 9.8125 71.09375 
Q 15.4375 72.65625 20.34375 73.4375 
Q 25.25 74.21875 29.59375 74.21875 
Q 40.828125 74.21875 47.359375 69.109375 
Q 53.90625 64.015625 53.90625 55.328125 
Q 53.90625 49.265625 50.4375 45.09375 
Q 46.96875 40.921875 40.578125 39.3125 
z
" id="DejaVuSans-51"/>
      </defs>
      <g transform="translate(337.347928 239.238437)scale(0.1 -0.1)">
       <use xlink:href="#DejaVuSans-51"/>
       <use x="63.623047" xlink:href="#DejaVuSans-48"/>
       <use x="127.246094" xlink:href="#DejaVuSans-48"/>
      </g>
     </g>
    </g>
    <g id="text_8">
     <!-- num -->
     <defs>
      <path d="M 54.890625 33.015625 
L 54.890625 0 
L 45.90625 0 
L 45.90625 32.71875 
Q 45.90625 40.484375 42.875 44.328125 
Q 39.84375 48.1875 33.796875 48.1875 
Q 26.515625 48.1875 22.3125 43.546875 
Q 18.109375 38.921875 18.109375 30.90625 
L 18.109375 0 
L 9.078125 0 
L 9.078125 54.6875 
L 18.109375 54.6875 
L 18.109375 46.1875 
Q 21.34375 51.125 25.703125 53.5625 
Q 30.078125 56 35.796875 56 
Q 45.21875 56 50.046875 50.171875 
Q 54.890625 44.34375 54.890625 33.015625 
z
" id="DejaVuSans-110"/>
      <path d="M 8.5 21.578125 
L 8.5 54.6875 
L 17.484375 54.6875 
L 17.484375 21.921875 
Q 17.484375 14.15625 20.5 10.265625 
Q 23.53125 6.390625 29.59375 6.390625 
Q 36.859375 6.390625 41.078125 11.03125 
Q 45.3125 15.671875 45.3125 23.6875 
L 45.3125 54.6875 
L 54.296875 54.6875 
L 54.296875 0 
L 45.3125 0 
L 45.3125 8.40625 
Q 42.046875 3.421875 37.71875 1 
Q 33.40625 -1.421875 27.6875 -1.421875 
Q 18.265625 -1.421875 13.375 4.4375 
Q 8.5 10.296875 8.5 21.578125 
z
M 31.109375 56 
z
" id="DejaVuSans-117"/>
      <path d="M 52 44.1875 
Q 55.375 50.25 60.0625 53.125 
Q 64.75 56 71.09375 56 
Q 79.640625 56 84.28125 50.015625 
Q 88.921875 44.046875 88.921875 33.015625 
L 88.921875 0 
L 79.890625 0 
L 79.890625 32.71875 
Q 79.890625 40.578125 77.09375 44.375 
Q 74.3125 48.1875 68.609375 48.1875 
Q 61.625 48.1875 57.5625 43.546875 
Q 53.515625 38.921875 53.515625 30.90625 
L 53.515625 0 
L 44.484375 0 
L 44.484375 32.71875 
Q 44.484375 40.625 41.703125 44.40625 
Q 38.921875 48.1875 33.109375 48.1875 
Q 26.21875 48.1875 22.15625 43.53125 
Q 18.109375 38.875 18.109375 30.90625 
L 18.109375 0 
L 9.078125 0 
L 9.078125 54.6875 
L 18.109375 54.6875 
L 18.109375 46.1875 
Q 21.1875 51.21875 25.484375 53.609375 
Q 29.78125 56 35.6875 56 
Q 41.65625 56 45.828125 52.96875 
Q 50 49.953125 52 44.1875 
z
" id="DejaVuSans-109"/>
     </defs>
     <g transform="translate(205.175 252.916562)scale(0.1 -0.1)">
      <use xlink:href="#DejaVuSans-110"/>
      <use x="63.378906" xlink:href="#DejaVuSans-117"/>
      <use x="126.757812" xlink:href="#DejaVuSans-109"/>
     </g>
    </g>
   </g>
   <g id="matplotlib.axis_2">
    <g id="ytick_1">
     <g id="line2d_8">
      <defs>
       <path d="M 0 0 
L -3.5 0 
" id="m2b6b66a95b" style="stroke:#000000;stroke-width:0.8;"/>
      </defs>
      <g>
       <use style="stroke:#000000;stroke-width:0.8;" x="48.982813" xlink:href="#m2b6b66a95b" y="187.911919"/>
      </g>
     </g>
     <g id="text_9">
      <!-- −50 -->
      <defs>
       <path d="M 10.59375 35.5 
L 73.1875 35.5 
L 73.1875 27.203125 
L 10.59375 27.203125 
z
" id="DejaVuSans-8722"/>
      </defs>
      <g transform="translate(20.878125 191.711138)scale(0.1 -0.1)">
       <use xlink:href="#DejaVuSans-8722"/>
       <use x="83.789062" xlink:href="#DejaVuSans-53"/>
       <use x="147.412109" xlink:href="#DejaVuSans-48"/>
      </g>
     </g>
    </g>
    <g id="ytick_2">
     <g id="line2d_9">
      <g>
       <use style="stroke:#000000;stroke-width:0.8;" x="48.982813" xlink:href="#m2b6b66a95b" y="147.238519"/>
      </g>
     </g>
     <g id="text_10">
      <!-- 0 -->
      <g transform="translate(35.620312 151.037737)scale(0.1 -0.1)">
       <use xlink:href="#DejaVuSans-48"/>
      </g>
     </g>
    </g>
    <g id="ytick_3">
     <g id="line2d_10">
      <g>
       <use style="stroke:#000000;stroke-width:0.8;" x="48.982813" xlink:href="#m2b6b66a95b" y="106.565118"/>
      </g>
     </g>
     <g id="text_11">
      <!-- 50 -->
      <g transform="translate(29.257812 110.364337)scale(0.1 -0.1)">
       <use xlink:href="#DejaVuSans-53"/>
       <use x="63.623047" xlink:href="#DejaVuSans-48"/>
      </g>
     </g>
    </g>
    <g id="ytick_4">
     <g id="line2d_11">
      <g>
       <use style="stroke:#000000;stroke-width:0.8;" x="48.982813" xlink:href="#m2b6b66a95b" y="65.891717"/>
      </g>
     </g>
     <g id="text_12">
      <!-- 100 -->
      <g transform="translate(22.895312 69.690936)scale(0.1 -0.1)">
       <use xlink:href="#DejaVuSans-49"/>
       <use x="63.623047" xlink:href="#DejaVuSans-48"/>
       <use x="127.246094" xlink:href="#DejaVuSans-48"/>
      </g>
     </g>
    </g>
    <g id="ytick_5">
     <g id="line2d_12">
      <g>
       <use style="stroke:#000000;stroke-width:0.8;" x="48.982813" xlink:href="#m2b6b66a95b" y="25.218316"/>
      </g>
     </g>
     <g id="text_13">
      <!-- 150 -->
      <g transform="translate(22.895312 29.017535)scale(0.1 -0.1)">
       <use xlink:href="#DejaVuSans-49"/>
       <use x="63.623047" xlink:href="#DejaVuSans-53"/>
       <use x="127.246094" xlink:href="#DejaVuSans-48"/>
      </g>
     </g>
    </g>
    <g id="text_14">
     <!-- err -->
     <defs>
      <path d="M 56.203125 29.59375 
L 56.203125 25.203125 
L 14.890625 25.203125 
Q 15.484375 15.921875 20.484375 11.0625 
Q 25.484375 6.203125 34.421875 6.203125 
Q 39.59375 6.203125 44.453125 7.46875 
Q 49.3125 8.734375 54.109375 11.28125 
L 54.109375 2.78125 
Q 49.265625 0.734375 44.1875 -0.34375 
Q 39.109375 -1.421875 33.890625 -1.421875 
Q 20.796875 -1.421875 13.15625 6.1875 
Q 5.515625 13.8125 5.515625 26.8125 
Q 5.515625 40.234375 12.765625 48.109375 
Q 20.015625 56 32.328125 56 
Q 43.359375 56 49.78125 48.890625 
Q 56.203125 41.796875 56.203125 29.59375 
z
M 47.21875 32.234375 
Q 47.125 39.59375 43.09375 43.984375 
Q 39.0625 48.390625 32.421875 48.390625 
Q 24.90625 48.390625 20.390625 44.140625 
Q 15.875 39.890625 15.1875 32.171875 
z
" id="DejaVuSans-101"/>
      <path d="M 41.109375 46.296875 
Q 39.59375 47.171875 37.8125 47.578125 
Q 36.03125 48 33.890625 48 
Q 26.265625 48 22.1875 43.046875 
Q 18.109375 38.09375 18.109375 28.8125 
L 18.109375 0 
L 9.078125 0 
L 9.078125 54.6875 
L 18.109375 54.6875 
L 18.109375 46.1875 
Q 20.953125 51.171875 25.484375 53.578125 
Q 30.03125 56 36.53125 56 
Q 37.453125 56 38.578125 55.875 
Q 39.703125 55.765625 41.0625 55.515625 
z
" id="DejaVuSans-114"/>
     </defs>
     <g transform="translate(14.798438 123.02)rotate(-90)scale(0.1 -0.1)">
      <use xlink:href="#DejaVuSans-101"/>
      <use x="61.523438" xlink:href="#DejaVuSans-114"/>
      <use x="100.886719" xlink:href="#DejaVuSans-114"/>
     </g>
    </g>
   </g>
   <g id="line2d_13">
    <path clip-path="url(#pcb0db31f15)" d="M 64.200994 144.798114 
L 65.143297 146.425051 
L 66.085599 143.984646 
L 67.027901 145.611582 
L 67.970203 141.544242 
L 68.912506 143.171178 
L 69.854808 140.730774 
L 70.79711 139.917306 
L 71.739413 136.663434 
L 72.681715 139.103838 
L 73.624017 139.917306 
L 74.566319 141.544242 
L 75.508622 142.35771 
L 76.450924 142.35771 
L 77.393226 146.425051 
L 78.335529 143.984646 
L 79.277831 146.425051 
L 80.220133 145.611582 
L 81.162435 146.425051 
L 82.104738 143.984646 
L 83.04704 143.984646 
L 83.989342 144.798114 
L 84.931644 144.798114 
L 85.873947 143.171178 
L 86.816249 144.798114 
L 87.758551 147.238519 
L 88.700854 143.171178 
L 90.585458 146.425051 
L 91.52776 144.798114 
L 92.470063 147.238519 
L 93.412365 148.051987 
L 94.354667 146.425051 
L 95.29697 145.611582 
L 97.181574 147.238519 
L 98.123876 148.865455 
L 99.066179 147.238519 
L 100.008481 148.865455 
L 100.950783 147.238519 
L 101.893086 148.051987 
L 102.835388 146.425051 
L 104.719992 144.798114 
L 105.662295 144.798114 
L 106.604597 143.171178 
L 107.546899 142.35771 
L 108.489201 144.798114 
L 109.431504 145.611582 
L 110.373806 148.051987 
L 111.316108 152.932795 
L 112.258411 157.000135 
L 113.200713 152.932795 
L 114.143015 154.559731 
L 115.085317 154.559731 
L 116.02762 155.373199 
L 117.912224 155.373199 
L 118.854527 154.559731 
L 120.739131 151.305859 
L 121.681433 151.305859 
L 122.623736 149.678923 
L 126.392945 146.425051 
L 127.335247 148.865455 
L 128.277549 154.559731 
L 129.219852 156.186667 
L 130.162154 154.559731 
L 131.104456 159.440539 
L 132.046758 160.254007 
L 132.989061 157.000135 
L 133.931363 157.000135 
L 134.873665 154.559731 
L 135.815968 150.492391 
L 136.75827 152.932795 
L 137.700572 151.305859 
L 139.585177 144.798114 
L 140.527479 157.813603 
L 142.412084 148.051987 
L 143.354386 150.492391 
L 144.296688 148.051987 
L 145.23899 148.865455 
L 146.181293 148.051987 
L 148.065897 148.051987 
L 149.008199 151.305859 
L 149.950502 152.932795 
L 150.892804 146.425051 
L 151.835106 146.425051 
L 152.777409 151.305859 
L 153.719711 154.559731 
L 154.662013 152.119327 
L 155.604315 155.373199 
L 156.546618 156.186667 
L 158.431222 148.051987 
L 159.373525 150.492391 
L 160.315827 149.678923 
L 161.258129 146.425051 
L 162.200431 144.798114 
L 163.142734 143.984646 
L 164.085036 145.611582 
L 165.027338 143.984646 
L 165.969641 141.544242 
L 166.911943 143.171178 
L 167.854245 142.35771 
L 168.796547 143.171178 
L 169.73885 147.238519 
L 170.681152 148.865455 
L 171.623454 146.425051 
L 172.565756 148.051987 
L 173.508059 147.238519 
L 176.334966 152.119327 
L 177.277268 145.611582 
L 178.21957 143.171178 
L 179.161872 144.798114 
L 180.104175 143.171178 
L 181.046477 143.171178 
L 181.988779 143.984646 
L 182.931082 143.171178 
L 183.873384 141.544242 
L 184.815686 144.798114 
L 185.757988 145.611582 
L 186.700291 147.238519 
L 187.642593 144.798114 
L 188.584895 145.611582 
L 189.527198 144.798114 
L 190.4695 145.611582 
L 191.411802 143.171178 
L 192.354104 146.425051 
L 193.296407 145.611582 
L 194.238709 148.051987 
L 195.181011 146.425051 
L 196.123313 146.425051 
L 197.065616 145.611582 
L 198.007918 143.171178 
L 198.95022 144.798114 
L 200.834825 146.425051 
L 201.777127 150.492391 
L 202.719429 153.746263 
L 203.661732 152.119327 
L 204.604034 153.746263 
L 205.546336 154.559731 
L 206.488639 149.678923 
L 207.430941 152.119327 
L 208.373243 152.119327 
L 209.315545 154.559731 
L 210.257848 152.932795 
L 211.20015 152.932795 
L 212.142452 151.305859 
L 213.084755 152.932795 
L 214.027057 151.305859 
L 214.969359 152.119327 
L 215.911661 150.492391 
L 216.853964 151.305859 
L 217.796266 146.425051 
L 218.738568 148.865455 
L 219.68087 148.051987 
L 220.623173 144.798114 
L 221.565475 148.051987 
L 222.507777 148.865455 
L 223.45008 151.305859 
L 224.392382 151.305859 
L 225.334684 150.492391 
L 226.276986 148.051987 
L 227.219289 146.425051 
L 228.161591 146.425051 
L 229.103893 143.984646 
L 230.046196 148.051987 
L 230.988498 147.238519 
L 231.9308 145.611582 
L 232.873102 148.865455 
L 233.815405 148.865455 
L 234.757707 151.305859 
L 235.700009 149.678923 
L 236.642312 152.932795 
L 237.584614 149.678923 
L 238.526916 153.746263 
L 239.469218 149.678923 
L 240.411521 152.119327 
L 241.353823 152.932795 
L 242.296125 152.932795 
L 244.18073 151.305859 
L 245.123032 151.305859 
L 246.065334 150.492391 
L 247.007637 148.865455 
L 247.949939 148.051987 
L 248.892241 148.865455 
L 249.834543 146.425051 
L 250.776846 144.798114 
L 251.719148 148.865455 
L 252.66145 148.051987 
L 253.603753 146.425051 
L 254.546055 143.171178 
L 255.488357 141.544242 
L 256.430659 146.425051 
L 257.372962 150.492391 
L 258.315264 147.238519 
L 259.257566 147.238519 
L 260.199869 144.798114 
L 261.142171 145.611582 
L 262.084473 145.611582 
L 263.969078 150.492391 
L 264.91138 152.119327 
L 265.853682 152.119327 
L 266.795984 150.492391 
L 267.738287 143.171178 
L 268.680589 145.611582 
L 269.622891 147.238519 
L 270.565194 147.238519 
L 271.507496 148.865455 
L 272.449798 148.865455 
L 273.3921 145.611582 
L 274.334403 147.238519 
L 275.276705 148.051987 
L 276.219007 143.984646 
L 277.16131 144.798114 
L 278.103612 146.425051 
L 279.045914 147.238519 
L 279.988216 146.425051 
L 280.930519 146.425051 
L 281.872821 144.798114 
L 282.815123 143.984646 
L 283.757426 143.984646 
L 284.699728 141.544242 
L 285.64203 145.611582 
L 286.584332 143.171178 
L 287.526635 141.544242 
L 288.468937 142.35771 
L 289.411239 140.730774 
L 291.295844 143.984646 
L 292.238146 144.798114 
L 293.180448 151.305859 
L 294.122751 149.678923 
L 295.065053 148.865455 
L 296.007355 146.425051 
L 296.949657 148.051987 
L 297.89196 148.051987 
L 298.834262 146.425051 
L 299.776564 148.051987 
L 300.718867 146.425051 
L 301.661169 148.051987 
L 302.603471 148.051987 
L 303.545773 145.611582 
L 304.488076 149.678923 
L 305.430378 148.865455 
L 306.37268 152.119327 
L 308.257285 152.119327 
L 309.199587 156.186667 
L 310.141889 152.932795 
L 311.084192 156.186667 
L 312.026494 152.932795 
L 312.968796 153.746263 
L 313.911098 152.932795 
L 314.853401 150.492391 
L 315.795703 152.932795 
L 316.738005 152.119327 
L 317.680308 153.746263 
L 318.62261 151.305859 
L 319.564912 151.305859 
L 320.507214 149.678923 
L 321.449517 150.492391 
L 322.391819 148.865455 
L 323.334121 150.492391 
L 325.218726 147.238519 
L 326.161028 147.238519 
L 327.10333 148.865455 
L 328.045633 149.678923 
L 328.987935 148.051987 
L 329.930237 145.611582 
L 330.872539 142.35771 
L 331.814842 143.984646 
L 332.757144 144.798114 
L 333.699446 144.798114 
L 334.641749 143.984646 
L 335.584051 145.611582 
L 336.526353 146.425051 
L 337.468655 144.798114 
L 338.410958 145.611582 
L 339.35326 143.984646 
L 340.295562 141.544242 
L 341.237865 143.171178 
L 342.180167 141.544242 
L 343.122469 140.730774 
L 344.064771 138.29037 
L 345.007074 139.917306 
L 345.949376 139.103838 
L 346.891678 141.544242 
L 347.833981 143.171178 
L 348.776283 143.984646 
L 349.718585 143.984646 
L 350.660887 144.798114 
L 351.60319 143.171178 
L 353.487794 143.171178 
L 354.430096 142.35771 
L 355.372399 144.798114 
L 356.314701 143.171178 
L 357.257003 142.35771 
L 358.199306 140.730774 
L 359.141608 137.476902 
L 360.08391 143.171178 
L 361.026212 142.35771 
L 361.968515 143.984646 
L 363.853119 139.103838 
L 364.795422 140.730774 
L 365.737724 144.798114 
L 366.680026 145.611582 
L 367.622328 143.171178 
L 368.564631 143.984646 
L 368.564631 143.984646 
" style="fill:none;stroke:#1f77b4;stroke-linecap:square;stroke-width:1.5;"/>
   </g>
   <g id="line2d_14">
    <path clip-path="url(#pcb0db31f15)" d="M 64.200994 145.611582 
L 65.143297 148.051987 
L 67.027901 148.051987 
L 68.912506 149.678923 
L 69.854808 147.238519 
L 70.79711 150.492391 
L 72.681715 152.119327 
L 73.624017 147.238519 
L 74.566319 146.425051 
L 77.393226 151.305859 
L 78.335529 149.678923 
L 79.277831 150.492391 
L 80.220133 147.238519 
L 81.162435 147.238519 
L 82.104738 148.051987 
L 83.04704 149.678923 
L 83.989342 150.492391 
L 84.931644 150.492391 
L 85.873947 148.051987 
L 86.816249 150.492391 
L 87.758551 147.238519 
L 88.700854 149.678923 
L 89.643156 149.678923 
L 91.52776 146.425051 
L 92.470063 148.051987 
L 93.412365 150.492391 
L 94.354667 150.492391 
L 95.29697 149.678923 
L 96.239272 149.678923 
L 97.181574 150.492391 
L 98.123876 152.119327 
L 99.066179 150.492391 
L 100.008481 151.305859 
L 100.950783 151.305859 
L 101.893086 148.865455 
L 102.835388 148.051987 
L 103.77769 145.611582 
L 105.662295 145.611582 
L 106.604597 147.238519 
L 107.546899 145.611582 
L 108.489201 145.611582 
L 109.431504 148.051987 
L 110.373806 144.798114 
L 111.316108 148.865455 
L 113.200713 147.238519 
L 114.143015 153.746263 
L 116.969922 148.865455 
L 117.912224 150.492391 
L 118.854527 145.611582 
L 119.796829 144.798114 
L 120.739131 142.35771 
L 121.681433 143.171178 
L 122.623736 144.798114 
L 123.566038 143.171178 
L 124.50834 150.492391 
L 125.450643 147.238519 
L 126.392945 146.425051 
L 127.335247 143.984646 
L 128.277549 146.425051 
L 129.219852 143.984646 
L 130.162154 143.984646 
L 131.104456 148.051987 
L 132.046758 144.798114 
L 132.989061 142.35771 
L 133.931363 143.984646 
L 134.873665 143.984646 
L 135.815968 146.425051 
L 136.75827 140.730774 
L 137.700572 140.730774 
L 138.642874 142.35771 
L 139.585177 140.730774 
L 141.469781 148.865455 
L 143.354386 142.35771 
L 144.296688 143.171178 
L 145.23899 142.35771 
L 146.181293 139.917306 
L 147.123595 140.730774 
L 149.950502 145.611582 
L 150.892804 141.544242 
L 153.719711 146.425051 
L 154.662013 147.238519 
L 155.604315 146.425051 
L 156.546618 143.984646 
L 157.48892 143.984646 
L 158.431222 147.238519 
L 159.373525 148.051987 
L 160.315827 144.798114 
L 161.258129 143.984646 
L 162.200431 142.35771 
L 163.142734 145.611582 
L 164.085036 143.171178 
L 165.027338 144.798114 
L 165.969641 149.678923 
L 166.911943 147.238519 
L 167.854245 148.865455 
L 168.796547 144.798114 
L 169.73885 149.678923 
L 170.681152 149.678923 
L 171.623454 147.238519 
L 172.565756 147.238519 
L 173.508059 150.492391 
L 174.450361 149.678923 
L 175.392663 147.238519 
L 176.334966 153.746263 
L 177.277268 148.865455 
L 178.21957 147.238519 
L 179.161872 147.238519 
L 180.104175 149.678923 
L 181.046477 149.678923 
L 181.988779 148.865455 
L 182.931082 151.305859 
L 183.873384 150.492391 
L 184.815686 147.238519 
L 185.757988 147.238519 
L 186.700291 148.051987 
L 187.642593 147.238519 
L 188.584895 143.984646 
L 189.527198 145.611582 
L 190.4695 144.798114 
L 191.411802 147.238519 
L 192.354104 148.865455 
L 193.296407 145.611582 
L 194.238709 146.425051 
L 195.181011 145.611582 
L 196.123313 148.051987 
L 197.065616 148.865455 
L 198.007918 148.865455 
L 198.95022 152.119327 
L 201.777127 149.678923 
L 202.719429 149.678923 
L 203.661732 152.119327 
L 204.604034 152.932795 
L 205.546336 150.492391 
L 206.488639 152.119327 
L 207.430941 149.678923 
L 208.373243 150.492391 
L 209.315545 146.425051 
L 210.257848 146.425051 
L 211.20015 143.171178 
L 212.142452 143.171178 
L 214.027057 139.917306 
L 214.969359 140.730774 
L 215.911661 144.798114 
L 216.853964 145.611582 
L 217.796266 149.678923 
L 218.738568 152.932795 
L 219.68087 150.492391 
L 220.623173 151.305859 
L 221.565475 147.238519 
L 222.507777 147.238519 
L 223.45008 146.425051 
L 224.392382 152.119327 
L 226.276986 147.238519 
L 227.219289 146.425051 
L 228.161591 148.051987 
L 229.103893 148.865455 
L 230.046196 148.865455 
L 230.988498 148.051987 
L 231.9308 150.492391 
L 232.873102 144.798114 
L 233.815405 149.678923 
L 234.757707 148.051987 
L 235.700009 147.238519 
L 236.642312 148.051987 
L 237.584614 145.611582 
L 238.526916 145.611582 
L 239.469218 143.984646 
L 240.411521 143.171178 
L 241.353823 144.798114 
L 242.296125 142.35771 
L 243.238427 148.051987 
L 244.18073 150.492391 
L 245.123032 150.492391 
L 246.065334 149.678923 
L 247.007637 150.492391 
L 247.949939 149.678923 
L 248.892241 151.305859 
L 249.834543 148.865455 
L 250.776846 148.051987 
L 251.719148 148.051987 
L 252.66145 148.865455 
L 254.546055 147.238519 
L 255.488357 145.611582 
L 256.430659 146.425051 
L 257.372962 143.984646 
L 258.315264 143.984646 
L 259.257566 139.917306 
L 260.199869 147.238519 
L 261.142171 147.238519 
L 262.084473 144.798114 
L 263.026775 143.984646 
L 263.969078 143.984646 
L 264.91138 151.305859 
L 265.853682 149.678923 
L 266.795984 149.678923 
L 267.738287 145.611582 
L 268.680589 142.35771 
L 269.622891 146.425051 
L 270.565194 142.35771 
L 271.507496 140.730774 
L 273.3921 143.984646 
L 274.334403 141.544242 
L 275.276705 139.917306 
L 276.219007 145.611582 
L 277.16131 144.798114 
L 278.103612 146.425051 
L 279.045914 145.611582 
L 279.988216 148.051987 
L 280.930519 148.051987 
L 281.872821 151.305859 
L 282.815123 147.238519 
L 283.757426 149.678923 
L 284.699728 149.678923 
L 286.584332 152.932795 
L 287.526635 152.932795 
L 288.468937 148.051987 
L 289.411239 144.798114 
L 290.353541 143.171178 
L 291.295844 139.917306 
L 292.238146 142.35771 
L 293.180448 148.051987 
L 294.122751 152.119327 
L 295.065053 153.746263 
L 296.007355 149.678923 
L 296.949657 149.678923 
L 297.89196 148.051987 
L 298.834262 145.611582 
L 299.776564 144.798114 
L 300.718867 143.171178 
L 301.661169 142.35771 
L 302.603471 142.35771 
L 303.545773 137.476902 
L 304.488076 142.35771 
L 305.430378 141.544242 
L 306.37268 142.35771 
L 307.314982 144.798114 
L 308.257285 144.798114 
L 309.199587 143.171178 
L 310.141889 147.238519 
L 311.084192 147.238519 
L 312.968796 145.611582 
L 313.911098 145.611582 
L 314.853401 142.35771 
L 315.795703 140.730774 
L 317.680308 142.35771 
L 318.62261 141.544242 
L 320.507214 143.171178 
L 321.449517 145.611582 
L 322.391819 146.425051 
L 323.334121 148.051987 
L 324.276424 148.865455 
L 325.218726 152.119327 
L 326.161028 154.559731 
L 327.10333 150.492391 
L 328.045633 154.559731 
L 328.987935 153.746263 
L 329.930237 148.865455 
L 330.872539 147.238519 
L 331.814842 144.798114 
L 332.757144 148.051987 
L 333.699446 148.865455 
L 334.641749 147.238519 
L 335.584051 148.865455 
L 336.526353 148.051987 
L 337.468655 149.678923 
L 338.410958 147.238519 
L 339.35326 145.611582 
L 340.295562 144.798114 
L 341.237865 149.678923 
L 342.180167 148.865455 
L 343.122469 150.492391 
L 344.064771 148.051987 
L 345.007074 148.051987 
L 345.949376 149.678923 
L 346.891678 148.051987 
L 347.833981 147.238519 
L 348.776283 147.238519 
L 349.718585 145.611582 
L 350.660887 145.611582 
L 351.60319 143.984646 
L 352.545492 146.425051 
L 353.487794 145.611582 
L 354.430096 143.984646 
L 355.372399 143.984646 
L 356.314701 141.544242 
L 357.257003 143.984646 
L 358.199306 148.051987 
L 359.141608 143.984646 
L 360.08391 148.051987 
L 361.026212 143.984646 
L 361.968515 147.238519 
L 362.910817 145.611582 
L 364.795422 143.984646 
L 365.737724 142.35771 
L 366.680026 144.798114 
L 367.622328 143.984646 
L 368.564631 142.35771 
L 368.564631 142.35771 
" style="fill:none;stroke:#ff7f0e;stroke-linecap:square;stroke-width:1.5;"/>
   </g>
   <g id="line2d_15">
    <path clip-path="url(#pcb0db31f15)" d="M 64.200994 144.798114 
L 65.143297 145.611582 
L 66.085599 143.984646 
L 67.027901 138.29037 
L 67.970203 130.969158 
L 69.854808 143.984646 
L 70.79711 47.181953 
L 71.739413 24.404848 
L 72.681715 43.928081 
L 73.624017 139.917306 
L 74.566319 134.22303 
L 76.450924 134.22303 
L 77.393226 135.036498 
L 78.335529 148.865455 
L 79.277831 137.476902 
L 80.220133 140.730774 
L 81.162435 139.917306 
L 83.04704 141.544242 
L 83.989342 143.171178 
L 84.931644 139.103838 
L 85.873947 141.544242 
L 86.816249 146.425051 
L 87.758551 152.119327 
L 89.643156 143.984646 
L 90.585458 153.746263 
L 91.52776 156.186667 
L 92.470063 145.611582 
L 93.412365 143.171178 
L 94.354667 143.171178 
L 95.29697 143.984646 
L 97.181574 132.596094 
L 98.123876 136.663434 
L 99.066179 137.476902 
L 100.008481 124.461414 
L 100.950783 139.103838 
L 101.893086 136.663434 
L 102.835388 148.865455 
L 103.77769 150.492391 
L 104.719992 151.305859 
L 105.662295 144.798114 
L 106.604597 134.22303 
L 107.546899 139.917306 
L 108.489201 139.917306 
L 109.431504 130.15569 
L 110.373806 132.596094 
L 111.316108 55.316633 
L 112.258411 55.316633 
L 113.200713 143.171178 
L 114.143015 153.746263 
L 115.085317 150.492391 
L 116.02762 149.678923 
L 116.969922 146.425051 
L 117.912224 152.932795 
L 118.854527 148.865455 
L 119.796829 148.051987 
L 120.739131 132.596094 
L 121.681433 124.461414 
L 122.623736 133.409562 
L 123.566038 128.528754 
L 124.50834 141.544242 
L 125.450643 147.238519 
L 126.392945 140.730774 
L 127.335247 143.984646 
L 128.277549 39.860741 
L 129.219852 35.793401 
L 130.162154 28.472189 
L 131.104456 36.606869 
L 132.046758 17.083636 
L 132.989061 34.166465 
L 133.931363 27.658721 
L 134.873665 46.368485 
L 135.815968 152.119327 
L 136.75827 149.678923 
L 137.700572 145.611582 
L 138.642874 135.036498 
L 139.585177 114.699798 
L 140.527479 156.186667 
L 141.469781 156.186667 
L 142.412084 155.373199 
L 143.354386 151.305859 
L 144.296688 150.492391 
L 146.181293 113.072862 
L 147.123595 111.445926 
L 148.065897 148.865455 
L 149.008199 109.81899 
L 149.950502 109.81899 
L 150.892804 113.88633 
L 151.835106 148.865455 
L 152.777409 113.88633 
L 153.719711 112.259394 
L 154.662013 157.813603 
L 155.604315 160.254007 
L 156.546618 158.627071 
L 157.48892 151.305859 
L 158.431222 148.051987 
L 160.315827 151.305859 
L 161.258129 148.051987 
L 162.200431 148.051987 
L 163.142734 151.305859 
L 164.085036 148.865455 
L 165.027338 148.051987 
L 165.969641 113.072862 
L 166.911943 148.051987 
L 167.854245 150.492391 
L 168.796547 148.865455 
L 169.73885 151.305859 
L 171.623454 152.932795 
L 172.565756 155.373199 
L 173.508059 155.373199 
L 174.450361 158.627071 
L 175.392663 150.492391 
L 176.334966 148.865455 
L 177.277268 151.305859 
L 178.21957 152.119327 
L 179.161872 149.678923 
L 180.104175 154.559731 
L 181.046477 151.305859 
L 181.988779 150.492391 
L 182.931082 154.559731 
L 183.873384 152.119327 
L 184.815686 153.746263 
L 185.757988 151.305859 
L 186.700291 153.746263 
L 187.642593 148.865455 
L 188.584895 148.865455 
L 189.527198 148.051987 
L 190.4695 153.746263 
L 191.411802 150.492391 
L 192.354104 130.969158 
L 193.296407 149.678923 
L 194.238709 152.932795 
L 195.181011 153.746263 
L 196.123313 152.932795 
L 197.065616 155.373199 
L 198.007918 154.559731 
L 198.95022 156.186667 
L 199.892523 159.440539 
L 200.834825 157.813603 
L 201.777127 157.000135 
L 202.719429 154.559731 
L 203.661732 149.678923 
L 204.604034 148.865455 
L 205.546336 148.865455 
L 207.430941 113.88633 
L 209.315545 148.865455 
L 210.257848 152.932795 
L 211.20015 149.678923 
L 212.142452 157.813603 
L 213.084755 157.000135 
L 214.027057 159.440539 
L 214.969359 161.067475 
L 215.911661 161.880943 
L 216.853964 188.725387 
L 217.796266 186.284983 
L 218.738568 185.471515 
L 220.623173 180.590707 
L 221.565475 141.544242 
L 222.507777 141.544242 
L 223.45008 140.730774 
L 224.392382 135.849966 
L 225.334684 139.917306 
L 226.276986 139.917306 
L 227.219289 140.730774 
L 228.161591 143.171178 
L 229.103893 180.590707 
L 230.046196 183.031111 
L 230.988498 163.507879 
L 231.9308 191.165791 
L 232.873102 186.284983 
L 233.815405 187.098451 
L 234.757707 143.171178 
L 235.700009 180.590707 
L 236.642312 130.969158 
L 237.584614 146.425051 
L 238.526916 142.35771 
L 239.469218 140.730774 
L 240.411521 142.35771 
L 241.353823 144.798114 
L 242.296125 181.404175 
L 243.238427 138.29037 
L 244.18073 143.171178 
L 245.123032 181.404175 
L 246.065334 183.844579 
L 247.007637 146.425051 
L 247.949939 182.217643 
L 248.892241 181.404175 
L 249.834543 187.098451 
L 250.776846 187.911919 
L 251.719148 141.544242 
L 252.66145 139.103838 
L 253.603753 163.507879 
L 254.546055 144.798114 
L 255.488357 143.171178 
L 256.430659 143.171178 
L 257.372962 146.425051 
L 258.315264 142.35771 
L 259.257566 163.507879 
L 260.199869 144.798114 
L 261.142171 141.544242 
L 262.084473 180.590707 
L 263.026775 180.590707 
L 263.969078 141.544242 
L 264.91138 181.404175 
L 265.853682 182.217643 
L 266.795984 183.844579 
L 267.738287 139.103838 
L 268.680589 132.596094 
L 269.622891 126.901818 
L 270.565194 133.409562 
L 271.507496 132.596094 
L 272.449798 138.29037 
L 273.3921 141.544242 
L 274.334403 143.984646 
L 275.276705 143.984646 
L 276.219007 142.35771 
L 277.16131 141.544242 
L 278.103612 137.476902 
L 279.045914 136.663434 
L 279.988216 132.596094 
L 280.930519 130.15569 
L 281.872821 128.528754 
L 282.815123 134.22303 
L 283.757426 134.22303 
L 284.699728 130.969158 
L 285.64203 133.409562 
L 286.584332 131.782626 
L 287.526635 135.036498 
L 288.468937 135.849966 
L 289.411239 138.29037 
L 290.353541 139.103838 
L 291.295844 143.171178 
L 292.238146 145.611582 
L 293.180448 135.849966 
L 295.065053 137.476902 
L 296.007355 148.051987 
L 296.949657 153.746263 
L 297.89196 158.627071 
L 298.834262 164.321347 
L 299.776564 156.186667 
L 300.718867 161.880943 
L 301.661169 165.948283 
L 302.603471 161.880943 
L 303.545773 214.756364 
L 304.488076 147.238519 
L 305.430378 140.730774 
L 306.37268 141.544242 
L 307.314982 130.15569 
L 308.257285 131.782626 
L 309.199587 128.528754 
L 310.141889 130.969158 
L 311.084192 130.969158 
L 312.026494 133.409562 
L 312.968796 138.29037 
L 313.911098 138.29037 
L 314.853401 146.425051 
L 315.795703 152.932795 
L 317.680308 159.440539 
L 318.62261 155.373199 
L 319.564912 154.559731 
L 320.507214 154.559731 
L 321.449517 143.984646 
L 322.391819 154.559731 
L 323.334121 141.544242 
L 324.276424 139.103838 
L 325.218726 130.15569 
L 326.161028 130.15569 
L 327.10333 126.901818 
L 328.045633 135.849966 
L 328.987935 133.409562 
L 329.930237 130.15569 
L 330.872539 137.476902 
L 331.814842 133.409562 
L 332.757144 152.932795 
L 333.699446 149.678923 
L 334.641749 148.865455 
L 335.584051 146.425051 
L 336.526353 141.544242 
L 337.468655 139.103838 
L 338.410958 137.476902 
L 339.35326 132.596094 
L 340.295562 135.849966 
L 341.237865 135.849966 
L 342.180167 130.969158 
L 343.122469 132.596094 
L 344.064771 135.849966 
L 345.007074 146.425051 
L 345.949376 138.29037 
L 346.891678 133.409562 
L 347.833981 147.238519 
L 348.776283 143.984646 
L 349.718585 143.171178 
L 350.660887 143.171178 
L 351.60319 148.865455 
L 352.545492 151.305859 
L 353.487794 150.492391 
L 354.430096 152.932795 
L 356.314701 143.171178 
L 357.257003 148.865455 
L 358.199306 142.35771 
L 359.141608 139.103838 
L 360.08391 142.35771 
L 361.026212 152.119327 
L 361.968515 147.238519 
L 362.910817 148.051987 
L 363.853119 153.746263 
L 364.795422 143.171178 
L 365.737724 150.492391 
L 366.680026 150.492391 
L 367.622328 145.611582 
L 368.564631 143.171178 
L 368.564631 143.171178 
" style="fill:none;stroke:#2ca02c;stroke-linecap:square;stroke-width:1.5;"/>
   </g>
   <g id="patch_3">
    <path d="M 48.982813 224.64 
L 48.982813 7.2 
" style="fill:none;stroke:#000000;stroke-linecap:square;stroke-linejoin:miter;stroke-width:0.8;"/>
   </g>
   <g id="patch_4">
    <path d="M 383.782813 224.64 
L 383.782813 7.2 
" style="fill:none;stroke:#000000;stroke-linecap:square;stroke-linejoin:miter;stroke-width:0.8;"/>
   </g>
   <g id="patch_5">
    <path d="M 48.982813 224.64 
L 383.782812 224.64 
" style="fill:none;stroke:#000000;stroke-linecap:square;stroke-linejoin:miter;stroke-width:0.8;"/>
   </g>
   <g id="patch_6">
    <path d="M 48.982813 7.2 
L 383.782812 7.2 
" style="fill:none;stroke:#000000;stroke-linecap:square;stroke-linejoin:miter;stroke-width:0.8;"/>
   </g>
   <g id="legend_1">
    <g id="patch_7">
     <path d="M 325.982813 60.254687 
L 376.782813 60.254687 
Q 378.782813 60.254687 378.782813 58.254687 
L 378.782813 14.2 
Q 378.782813 12.2 376.782813 12.2 
L 325.982813 12.2 
Q 323.982813 12.2 323.982813 14.2 
L 323.982813 58.254687 
Q 323.982813 60.254687 325.982813 60.254687 
z
" style="fill:#ffffff;opacity:0.8;stroke:#cccccc;stroke-linejoin:miter;"/>
    </g>
    <g id="line2d_16">
     <path d="M 327.982813 20.298437 
L 347.982813 20.298437 
" style="fill:none;stroke:#1f77b4;stroke-linecap:square;stroke-width:1.5;"/>
    </g>
    <g id="line2d_17"/>
    <g id="text_15">
     <!-- $err_x$ -->
     <defs>
      <path d="M 48.09375 32.234375 
Q 48.25 33.015625 48.3125 33.84375 
Q 48.390625 34.671875 48.390625 35.5 
Q 48.390625 41.453125 44.890625 44.921875 
Q 41.40625 48.390625 35.40625 48.390625 
Q 28.71875 48.390625 23.578125 44.15625 
Q 18.453125 39.9375 15.828125 32.171875 
z
M 55.90625 25.203125 
L 14.109375 25.203125 
Q 13.8125 23.34375 13.71875 22.265625 
Q 13.625 21.1875 13.625 20.40625 
Q 13.625 13.625 17.796875 9.90625 
Q 21.96875 6.203125 29.59375 6.203125 
Q 35.453125 6.203125 40.671875 7.515625 
Q 45.90625 8.84375 50.390625 11.375 
L 48.6875 2.484375 
Q 43.84375 0.53125 38.6875 -0.4375 
Q 33.546875 -1.421875 28.21875 -1.421875 
Q 16.84375 -1.421875 10.71875 4.015625 
Q 4.59375 9.46875 4.59375 19.484375 
Q 4.59375 28.03125 7.640625 35.375 
Q 10.6875 42.71875 16.609375 48.484375 
Q 20.40625 52.09375 25.65625 54.046875 
Q 30.90625 56 36.8125 56 
Q 46.09375 56 51.578125 50.4375 
Q 57.078125 44.875 57.078125 35.5 
Q 57.078125 33.25 56.78125 30.6875 
Q 56.5 28.125 55.90625 25.203125 
z
" id="DejaVuSans-Oblique-101"/>
      <path d="M 44.578125 46.390625 
Q 43.21875 47.125 41.453125 47.515625 
Q 39.703125 47.90625 37.703125 47.90625 
Q 30.515625 47.90625 25.140625 42.453125 
Q 19.78125 37.015625 18.015625 27.875 
L 12.5 0 
L 3.515625 0 
L 14.203125 54.6875 
L 23.1875 54.6875 
L 21.484375 46.1875 
Q 25.046875 50.921875 30 53.453125 
Q 34.96875 56 40.578125 56 
Q 42.046875 56 43.453125 55.828125 
Q 44.875 55.671875 46.296875 55.28125 
z
" id="DejaVuSans-Oblique-114"/>
      <path d="M 60.015625 54.6875 
L 34.90625 27.875 
L 50.296875 0 
L 39.984375 0 
L 28.421875 21.6875 
L 8.296875 0 
L -2.59375 0 
L 24.3125 28.8125 
L 10.015625 54.6875 
L 20.3125 54.6875 
L 30.8125 34.90625 
L 49.125 54.6875 
z
" id="DejaVuSans-Oblique-120"/>
     </defs>
     <g transform="translate(355.982813 23.798437)scale(0.1 -0.1)">
      <use xlink:href="#DejaVuSans-Oblique-101"/>
      <use transform="translate(61.523438 0)" xlink:href="#DejaVuSans-Oblique-114"/>
      <use transform="translate(102.636719 0)" xlink:href="#DejaVuSans-Oblique-114"/>
      <use transform="translate(143.75 -16.40625)scale(0.7)" xlink:href="#DejaVuSans-Oblique-120"/>
     </g>
    </g>
    <g id="line2d_18">
     <path d="M 327.982813 34.976562 
L 347.982813 34.976562 
" style="fill:none;stroke:#ff7f0e;stroke-linecap:square;stroke-width:1.5;"/>
    </g>
    <g id="line2d_19"/>
    <g id="text_16">
     <!-- $err_y$ -->
     <defs>
      <path d="M 24.8125 -5.078125 
Q 18.5625 -15.578125 14.625 -18.1875 
Q 10.6875 -20.796875 4.59375 -20.796875 
L -2.484375 -20.796875 
L -0.984375 -13.28125 
L 4.203125 -13.28125 
Q 7.953125 -13.28125 10.59375 -11.234375 
Q 13.234375 -9.1875 16.5 -3.21875 
L 19.28125 2 
L 7.171875 54.6875 
L 16.703125 54.6875 
L 25.78125 12.796875 
L 50.875 54.6875 
L 60.296875 54.6875 
z
" id="DejaVuSans-Oblique-121"/>
     </defs>
     <g transform="translate(355.982813 38.476562)scale(0.1 -0.1)">
      <use xlink:href="#DejaVuSans-Oblique-101"/>
      <use transform="translate(61.523438 0)" xlink:href="#DejaVuSans-Oblique-114"/>
      <use transform="translate(102.636719 0)" xlink:href="#DejaVuSans-Oblique-114"/>
      <use transform="translate(143.75 -16.40625)scale(0.7)" xlink:href="#DejaVuSans-Oblique-121"/>
     </g>
    </g>
    <g id="line2d_20">
     <path d="M 327.982813 50.675 
L 347.982813 50.675 
" style="fill:none;stroke:#2ca02c;stroke-linecap:square;stroke-width:1.5;"/>
    </g>
    <g id="line2d_21"/>
    <g id="text_17">
     <!-- $err_z$ -->
     <defs>
      <path d="M 11.625 54.6875 
L 54.296875 54.6875 
L 52.6875 46.484375 
L 11.53125 7.171875 
L 45.515625 7.171875 
L 44.09375 0 
L -0.296875 0 
L 1.3125 8.203125 
L 42.484375 47.515625 
L 10.203125 47.515625 
z
" id="DejaVuSans-Oblique-122"/>
     </defs>
     <g transform="translate(355.982813 54.175)scale(0.1 -0.1)">
      <use xlink:href="#DejaVuSans-Oblique-101"/>
      <use transform="translate(61.523438 0)" xlink:href="#DejaVuSans-Oblique-114"/>
      <use transform="translate(102.636719 0)" xlink:href="#DejaVuSans-Oblique-114"/>
      <use transform="translate(143.75 -16.40625)scale(0.7)" xlink:href="#DejaVuSans-Oblique-122"/>
     </g>
    </g>
   </g>
  </g>
 </g>
 <defs>
  <clipPath id="pcb0db31f15">
   <rect height="217.44" width="334.8" x="48.982813" y="7.2"/>
  </clipPath>
 </defs>
</svg>
