<?xml version="1.0" encoding="utf-8" standalone="no"?>
<!DOCTYPE svg PUBLIC "-//W3C//DTD SVG 1.1//EN"
  "http://www.w3.org/Graphics/SVG/1.1/DTD/svg11.dtd">
<!-- Created with matplotlib (https://matplotlib.org/) -->
<svg height="265.849405pt" version="1.1" viewBox="0 0 390.982812 265.849405" width="390.982812pt" xmlns="http://www.w3.org/2000/svg" xmlns:xlink="http://www.w3.org/1999/xlink">
 <defs>
  <style type="text/css">
*{stroke-linecap:butt;stroke-linejoin:round;}
  </style>
 </defs>
 <g id="figure_1">
  <g id="patch_1">
   <path d="M 0 265.849405 
L 390.982812 265.849405 
L 390.982812 0 
L 0 0 
z
" style="fill:#ffffff;"/>
  </g>
  <g id="axes_1">
   <g id="patch_2">
    <path d="M 48.982813 228.293155 
L 383.782813 228.293155 
L 383.782813 10.853155 
L 48.982813 10.853155 
z
" style="fill:#ffffff;"/>
   </g>
   <g id="matplotlib.axis_1">
    <g id="xtick_1">
     <g id="line2d_1">
      <defs>
       <path d="M 0 0 
L 0 3.5 
" id="m3fa1a35b5b" style="stroke:#000000;stroke-width:0.8;"/>
      </defs>
      <g>
       <use style="stroke:#000000;stroke-width:0.8;" x="64.200994" xlink:href="#m3fa1a35b5b" y="228.293155"/>
      </g>
     </g>
     <g id="text_1">
      <!-- 0 -->
      <defs>
       <path d="M 31.78125 66.40625 
Q 24.171875 66.40625 20.328125 58.90625 
Q 16.5 51.421875 16.5 36.375 
Q 16.5 21.390625 20.328125 13.890625 
Q 24.171875 6.390625 31.78125 6.390625 
Q 39.453125 6.390625 43.28125 13.890625 
Q 47.125 21.390625 47.125 36.375 
Q 47.125 51.421875 43.28125 58.90625 
Q 39.453125 66.40625 31.78125 66.40625 
z
M 31.78125 74.21875 
Q 44.046875 74.21875 50.515625 64.515625 
Q 56.984375 54.828125 56.984375 36.375 
Q 56.984375 17.96875 50.515625 8.265625 
Q 44.046875 -1.421875 31.78125 -1.421875 
Q 19.53125 -1.421875 13.0625 8.265625 
Q 6.59375 17.96875 6.59375 36.375 
Q 6.59375 54.828125 13.0625 64.515625 
Q 19.53125 74.21875 31.78125 74.21875 
z
" id="DejaVuSans-48"/>
      </defs>
      <g transform="translate(61.019744 242.891593)scale(0.1 -0.1)">
       <use xlink:href="#DejaVuSans-48"/>
      </g>
     </g>
    </g>
    <g id="xtick_2">
     <g id="line2d_2">
      <g>
       <use style="stroke:#000000;stroke-width:0.8;" x="111.316108" xlink:href="#m3fa1a35b5b" y="228.293155"/>
      </g>
     </g>
     <g id="text_2">
      <!-- 50 -->
      <defs>
       <path d="M 10.796875 72.90625 
L 49.515625 72.90625 
L 49.515625 64.59375 
L 19.828125 64.59375 
L 19.828125 46.734375 
Q 21.96875 47.46875 24.109375 47.828125 
Q 26.265625 48.1875 28.421875 48.1875 
Q 40.625 48.1875 47.75 41.5 
Q 54.890625 34.8125 54.890625 23.390625 
Q 54.890625 11.625 47.5625 5.09375 
Q 40.234375 -1.421875 26.90625 -1.421875 
Q 22.3125 -1.421875 17.546875 -0.640625 
Q 12.796875 0.140625 7.71875 1.703125 
L 7.71875 11.625 
Q 12.109375 9.234375 16.796875 8.0625 
Q 21.484375 6.890625 26.703125 6.890625 
Q 35.15625 6.890625 40.078125 11.328125 
Q 45.015625 15.765625 45.015625 23.390625 
Q 45.015625 31 40.078125 35.4375 
Q 35.15625 39.890625 26.703125 39.890625 
Q 22.75 39.890625 18.8125 39.015625 
Q 14.890625 38.140625 10.796875 36.28125 
z
" id="DejaVuSans-53"/>
      </defs>
      <g transform="translate(104.953608 242.891593)scale(0.1 -0.1)">
       <use xlink:href="#DejaVuSans-53"/>
       <use x="63.623047" xlink:href="#DejaVuSans-48"/>
      </g>
     </g>
    </g>
    <g id="xtick_3">
     <g id="line2d_3">
      <g>
       <use style="stroke:#000000;stroke-width:0.8;" x="158.431222" xlink:href="#m3fa1a35b5b" y="228.293155"/>
      </g>
     </g>
     <g id="text_3">
      <!-- 100 -->
      <defs>
       <path d="M 12.40625 8.296875 
L 28.515625 8.296875 
L 28.515625 63.921875 
L 10.984375 60.40625 
L 10.984375 69.390625 
L 28.421875 72.90625 
L 38.28125 72.90625 
L 38.28125 8.296875 
L 54.390625 8.296875 
L 54.390625 0 
L 12.40625 0 
z
" id="DejaVuSans-49"/>
      </defs>
      <g transform="translate(148.887472 242.891593)scale(0.1 -0.1)">
       <use xlink:href="#DejaVuSans-49"/>
       <use x="63.623047" xlink:href="#DejaVuSans-48"/>
       <use x="127.246094" xlink:href="#DejaVuSans-48"/>
      </g>
     </g>
    </g>
    <g id="xtick_4">
     <g id="line2d_4">
      <g>
       <use style="stroke:#000000;stroke-width:0.8;" x="205.546336" xlink:href="#m3fa1a35b5b" y="228.293155"/>
      </g>
     </g>
     <g id="text_4">
      <!-- 150 -->
      <g transform="translate(196.002586 242.891593)scale(0.1 -0.1)">
       <use xlink:href="#DejaVuSans-49"/>
       <use x="63.623047" xlink:href="#DejaVuSans-53"/>
       <use x="127.246094" xlink:href="#DejaVuSans-48"/>
      </g>
     </g>
    </g>
    <g id="xtick_5">
     <g id="line2d_5">
      <g>
       <use style="stroke:#000000;stroke-width:0.8;" x="252.66145" xlink:href="#m3fa1a35b5b" y="228.293155"/>
      </g>
     </g>
     <g id="text_5">
      <!-- 200 -->
      <defs>
       <path d="M 19.1875 8.296875 
L 53.609375 8.296875 
L 53.609375 0 
L 7.328125 0 
L 7.328125 8.296875 
Q 12.9375 14.109375 22.625 23.890625 
Q 32.328125 33.6875 34.8125 36.53125 
Q 39.546875 41.84375 41.421875 45.53125 
Q 43.3125 49.21875 43.3125 52.78125 
Q 43.3125 58.59375 39.234375 62.25 
Q 35.15625 65.921875 28.609375 65.921875 
Q 23.96875 65.921875 18.8125 64.3125 
Q 13.671875 62.703125 7.8125 59.421875 
L 7.8125 69.390625 
Q 13.765625 71.78125 18.9375 73 
Q 24.125 74.21875 28.421875 74.21875 
Q 39.75 74.21875 46.484375 68.546875 
Q 53.21875 62.890625 53.21875 53.421875 
Q 53.21875 48.921875 51.53125 44.890625 
Q 49.859375 40.875 45.40625 35.40625 
Q 44.1875 33.984375 37.640625 27.21875 
Q 31.109375 20.453125 19.1875 8.296875 
z
" id="DejaVuSans-50"/>
      </defs>
      <g transform="translate(243.1177 242.891593)scale(0.1 -0.1)">
       <use xlink:href="#DejaVuSans-50"/>
       <use x="63.623047" xlink:href="#DejaVuSans-48"/>
       <use x="127.246094" xlink:href="#DejaVuSans-48"/>
      </g>
     </g>
    </g>
    <g id="xtick_6">
     <g id="line2d_6">
      <g>
       <use style="stroke:#000000;stroke-width:0.8;" x="299.776564" xlink:href="#m3fa1a35b5b" y="228.293155"/>
      </g>
     </g>
     <g id="text_6">
      <!-- 250 -->
      <g transform="translate(290.232814 242.891593)scale(0.1 -0.1)">
       <use xlink:href="#DejaVuSans-50"/>
       <use x="63.623047" xlink:href="#DejaVuSans-53"/>
       <use x="127.246094" xlink:href="#DejaVuSans-48"/>
      </g>
     </g>
    </g>
    <g id="xtick_7">
     <g id="line2d_7">
      <g>
       <use style="stroke:#000000;stroke-width:0.8;" x="346.891678" xlink:href="#m3fa1a35b5b" y="228.293155"/>
      </g>
     </g>
     <g id="text_7">
      <!-- 300 -->
      <defs>
       <path d="M 40.578125 39.3125 
Q 47.65625 37.796875 51.625 33 
Q 55.609375 28.21875 55.609375 21.1875 
Q 55.609375 10.40625 48.1875 4.484375 
Q 40.765625 -1.421875 27.09375 -1.421875 
Q 22.515625 -1.421875 17.65625 -0.515625 
Q 12.796875 0.390625 7.625 2.203125 
L 7.625 11.71875 
Q 11.71875 9.328125 16.59375 8.109375 
Q 21.484375 6.890625 26.8125 6.890625 
Q 36.078125 6.890625 40.9375 10.546875 
Q 45.796875 14.203125 45.796875 21.1875 
Q 45.796875 27.640625 41.28125 31.265625 
Q 36.765625 34.90625 28.71875 34.90625 
L 20.21875 34.90625 
L 20.21875 43.015625 
L 29.109375 43.015625 
Q 36.375 43.015625 40.234375 45.921875 
Q 44.09375 48.828125 44.09375 54.296875 
Q 44.09375 59.90625 40.109375 62.90625 
Q 36.140625 65.921875 28.71875 65.921875 
Q 24.65625 65.921875 20.015625 65.03125 
Q 15.375 64.15625 9.8125 62.3125 
L 9.8125 71.09375 
Q 15.4375 72.65625 20.34375 73.4375 
Q 25.25 74.21875 29.59375 74.21875 
Q 40.828125 74.21875 47.359375 69.109375 
Q 53.90625 64.015625 53.90625 55.328125 
Q 53.90625 49.265625 50.4375 45.09375 
Q 46.96875 40.921875 40.578125 39.3125 
z
" id="DejaVuSans-51"/>
      </defs>
      <g transform="translate(337.347928 242.891593)scale(0.1 -0.1)">
       <use xlink:href="#DejaVuSans-51"/>
       <use x="63.623047" xlink:href="#DejaVuSans-48"/>
       <use x="127.246094" xlink:href="#DejaVuSans-48"/>
      </g>
     </g>
    </g>
    <g id="text_8">
     <!-- num -->
     <defs>
      <path d="M 54.890625 33.015625 
L 54.890625 0 
L 45.90625 0 
L 45.90625 32.71875 
Q 45.90625 40.484375 42.875 44.328125 
Q 39.84375 48.1875 33.796875 48.1875 
Q 26.515625 48.1875 22.3125 43.546875 
Q 18.109375 38.921875 18.109375 30.90625 
L 18.109375 0 
L 9.078125 0 
L 9.078125 54.6875 
L 18.109375 54.6875 
L 18.109375 46.1875 
Q 21.34375 51.125 25.703125 53.5625 
Q 30.078125 56 35.796875 56 
Q 45.21875 56 50.046875 50.171875 
Q 54.890625 44.34375 54.890625 33.015625 
z
" id="DejaVuSans-110"/>
      <path d="M 8.5 21.578125 
L 8.5 54.6875 
L 17.484375 54.6875 
L 17.484375 21.921875 
Q 17.484375 14.15625 20.5 10.265625 
Q 23.53125 6.390625 29.59375 6.390625 
Q 36.859375 6.390625 41.078125 11.03125 
Q 45.3125 15.671875 45.3125 23.6875 
L 45.3125 54.6875 
L 54.296875 54.6875 
L 54.296875 0 
L 45.3125 0 
L 45.3125 8.40625 
Q 42.046875 3.421875 37.71875 1 
Q 33.40625 -1.421875 27.6875 -1.421875 
Q 18.265625 -1.421875 13.375 4.4375 
Q 8.5 10.296875 8.5 21.578125 
z
M 31.109375 56 
z
" id="DejaVuSans-117"/>
      <path d="M 52 44.1875 
Q 55.375 50.25 60.0625 53.125 
Q 64.75 56 71.09375 56 
Q 79.640625 56 84.28125 50.015625 
Q 88.921875 44.046875 88.921875 33.015625 
L 88.921875 0 
L 79.890625 0 
L 79.890625 32.71875 
Q 79.890625 40.578125 77.09375 44.375 
Q 74.3125 48.1875 68.609375 48.1875 
Q 61.625 48.1875 57.5625 43.546875 
Q 53.515625 38.921875 53.515625 30.90625 
L 53.515625 0 
L 44.484375 0 
L 44.484375 32.71875 
Q 44.484375 40.625 41.703125 44.40625 
Q 38.921875 48.1875 33.109375 48.1875 
Q 26.21875 48.1875 22.15625 43.53125 
Q 18.109375 38.875 18.109375 30.90625 
L 18.109375 0 
L 9.078125 0 
L 9.078125 54.6875 
L 18.109375 54.6875 
L 18.109375 46.1875 
Q 21.1875 51.21875 25.484375 53.609375 
Q 29.78125 56 35.6875 56 
Q 41.65625 56 45.828125 52.96875 
Q 50 49.953125 52 44.1875 
z
" id="DejaVuSans-109"/>
     </defs>
     <g transform="translate(205.175 256.569718)scale(0.1 -0.1)">
      <use xlink:href="#DejaVuSans-110"/>
      <use x="63.378906" xlink:href="#DejaVuSans-117"/>
      <use x="126.757812" xlink:href="#DejaVuSans-109"/>
     </g>
    </g>
   </g>
   <g id="matplotlib.axis_2">
    <g id="ytick_1">
     <g id="line2d_8">
      <defs>
       <path d="M 0 0 
L -3.5 0 
" id="mcd53574eec" style="stroke:#000000;stroke-width:0.8;"/>
      </defs>
      <g>
       <use style="stroke:#000000;stroke-width:0.8;" x="48.982813" xlink:href="#mcd53574eec" y="205.750674"/>
      </g>
     </g>
     <g id="text_9">
      <!-- −50 -->
      <defs>
       <path d="M 10.59375 35.5 
L 73.1875 35.5 
L 73.1875 27.203125 
L 10.59375 27.203125 
z
" id="DejaVuSans-8722"/>
      </defs>
      <g transform="translate(20.878125 209.549893)scale(0.1 -0.1)">
       <use xlink:href="#DejaVuSans-8722"/>
       <use x="83.789062" xlink:href="#DejaVuSans-53"/>
       <use x="147.412109" xlink:href="#DejaVuSans-48"/>
      </g>
     </g>
    </g>
    <g id="ytick_2">
     <g id="line2d_9">
      <g>
       <use style="stroke:#000000;stroke-width:0.8;" x="48.982813" xlink:href="#mcd53574eec" y="181.406742"/>
      </g>
     </g>
     <g id="text_10">
      <!-- −25 -->
      <g transform="translate(20.878125 185.205961)scale(0.1 -0.1)">
       <use xlink:href="#DejaVuSans-8722"/>
       <use x="83.789062" xlink:href="#DejaVuSans-50"/>
       <use x="147.412109" xlink:href="#DejaVuSans-53"/>
      </g>
     </g>
    </g>
    <g id="ytick_3">
     <g id="line2d_10">
      <g>
       <use style="stroke:#000000;stroke-width:0.8;" x="48.982813" xlink:href="#mcd53574eec" y="157.06281"/>
      </g>
     </g>
     <g id="text_11">
      <!-- 0 -->
      <g transform="translate(35.620312 160.862029)scale(0.1 -0.1)">
       <use xlink:href="#DejaVuSans-48"/>
      </g>
     </g>
    </g>
    <g id="ytick_4">
     <g id="line2d_11">
      <g>
       <use style="stroke:#000000;stroke-width:0.8;" x="48.982813" xlink:href="#mcd53574eec" y="132.718878"/>
      </g>
     </g>
     <g id="text_12">
      <!-- 25 -->
      <g transform="translate(29.257812 136.518097)scale(0.1 -0.1)">
       <use xlink:href="#DejaVuSans-50"/>
       <use x="63.623047" xlink:href="#DejaVuSans-53"/>
      </g>
     </g>
    </g>
    <g id="ytick_5">
     <g id="line2d_12">
      <g>
       <use style="stroke:#000000;stroke-width:0.8;" x="48.982813" xlink:href="#mcd53574eec" y="108.374946"/>
      </g>
     </g>
     <g id="text_13">
      <!-- 50 -->
      <g transform="translate(29.257812 112.174165)scale(0.1 -0.1)">
       <use xlink:href="#DejaVuSans-53"/>
       <use x="63.623047" xlink:href="#DejaVuSans-48"/>
      </g>
     </g>
    </g>
    <g id="ytick_6">
     <g id="line2d_13">
      <g>
       <use style="stroke:#000000;stroke-width:0.8;" x="48.982813" xlink:href="#mcd53574eec" y="84.031015"/>
      </g>
     </g>
     <g id="text_14">
      <!-- 75 -->
      <defs>
       <path d="M 8.203125 72.90625 
L 55.078125 72.90625 
L 55.078125 68.703125 
L 28.609375 0 
L 18.3125 0 
L 43.21875 64.59375 
L 8.203125 64.59375 
z
" id="DejaVuSans-55"/>
      </defs>
      <g transform="translate(29.257812 87.830233)scale(0.1 -0.1)">
       <use xlink:href="#DejaVuSans-55"/>
       <use x="63.623047" xlink:href="#DejaVuSans-53"/>
      </g>
     </g>
    </g>
    <g id="ytick_7">
     <g id="line2d_14">
      <g>
       <use style="stroke:#000000;stroke-width:0.8;" x="48.982813" xlink:href="#mcd53574eec" y="59.687083"/>
      </g>
     </g>
     <g id="text_15">
      <!-- 100 -->
      <g transform="translate(22.895312 63.486301)scale(0.1 -0.1)">
       <use xlink:href="#DejaVuSans-49"/>
       <use x="63.623047" xlink:href="#DejaVuSans-48"/>
       <use x="127.246094" xlink:href="#DejaVuSans-48"/>
      </g>
     </g>
    </g>
    <g id="ytick_8">
     <g id="line2d_15">
      <g>
       <use style="stroke:#000000;stroke-width:0.8;" x="48.982813" xlink:href="#mcd53574eec" y="35.343151"/>
      </g>
     </g>
     <g id="text_16">
      <!-- 125 -->
      <g transform="translate(22.895312 39.142369)scale(0.1 -0.1)">
       <use xlink:href="#DejaVuSans-49"/>
       <use x="63.623047" xlink:href="#DejaVuSans-50"/>
       <use x="127.246094" xlink:href="#DejaVuSans-53"/>
      </g>
     </g>
    </g>
    <g id="ytick_9">
     <g id="line2d_16">
      <g>
       <use style="stroke:#000000;stroke-width:0.8;" x="48.982813" xlink:href="#mcd53574eec" y="10.999219"/>
      </g>
     </g>
     <g id="text_17">
      <!-- 150 -->
      <g transform="translate(22.895312 14.798437)scale(0.1 -0.1)">
       <use xlink:href="#DejaVuSans-49"/>
       <use x="63.623047" xlink:href="#DejaVuSans-53"/>
       <use x="127.246094" xlink:href="#DejaVuSans-48"/>
      </g>
     </g>
    </g>
    <g id="text_18">
     <!-- err -->
     <defs>
      <path d="M 56.203125 29.59375 
L 56.203125 25.203125 
L 14.890625 25.203125 
Q 15.484375 15.921875 20.484375 11.0625 
Q 25.484375 6.203125 34.421875 6.203125 
Q 39.59375 6.203125 44.453125 7.46875 
Q 49.3125 8.734375 54.109375 11.28125 
L 54.109375 2.78125 
Q 49.265625 0.734375 44.1875 -0.34375 
Q 39.109375 -1.421875 33.890625 -1.421875 
Q 20.796875 -1.421875 13.15625 6.1875 
Q 5.515625 13.8125 5.515625 26.8125 
Q 5.515625 40.234375 12.765625 48.109375 
Q 20.015625 56 32.328125 56 
Q 43.359375 56 49.78125 48.890625 
Q 56.203125 41.796875 56.203125 29.59375 
z
M 47.21875 32.234375 
Q 47.125 39.59375 43.09375 43.984375 
Q 39.0625 48.390625 32.421875 48.390625 
Q 24.90625 48.390625 20.390625 44.140625 
Q 15.875 39.890625 15.1875 32.171875 
z
" id="DejaVuSans-101"/>
      <path d="M 41.109375 46.296875 
Q 39.59375 47.171875 37.8125 47.578125 
Q 36.03125 48 33.890625 48 
Q 26.265625 48 22.1875 43.046875 
Q 18.109375 38.09375 18.109375 28.8125 
L 18.109375 0 
L 9.078125 0 
L 9.078125 54.6875 
L 18.109375 54.6875 
L 18.109375 46.1875 
Q 20.953125 51.171875 25.484375 53.578125 
Q 30.03125 56 36.53125 56 
Q 37.453125 56 38.578125 55.875 
Q 39.703125 55.765625 41.0625 55.515625 
z
" id="DejaVuSans-114"/>
     </defs>
     <g transform="translate(14.798438 126.673155)rotate(-90)scale(0.1 -0.1)">
      <use xlink:href="#DejaVuSans-101"/>
      <use x="61.523438" xlink:href="#DejaVuSans-114"/>
      <use x="100.886719" xlink:href="#DejaVuSans-114"/>
     </g>
    </g>
   </g>
   <g id="line2d_17">
    <path clip-path="url(#p6b1939cfc6)" d="M 64.200994 154.141538 
L 65.143297 156.089053 
L 66.085599 153.167781 
L 67.027901 155.115296 
L 67.970203 150.246509 
L 68.912506 152.194024 
L 69.854808 149.272752 
L 70.79711 148.298995 
L 71.739413 144.403966 
L 72.681715 147.325238 
L 73.624017 148.298995 
L 74.566319 150.246509 
L 75.508622 151.220267 
L 76.450924 151.220267 
L 77.393226 156.089053 
L 78.335529 153.167781 
L 79.277831 156.089053 
L 80.220133 155.115296 
L 81.162435 156.089053 
L 82.104738 153.167781 
L 83.04704 153.167781 
L 83.989342 154.141538 
L 84.931644 154.141538 
L 85.873947 152.194024 
L 86.816249 154.141538 
L 87.758551 157.06281 
L 88.700854 152.194024 
L 90.585458 156.089053 
L 91.52776 154.141538 
L 92.470063 157.06281 
L 93.412365 158.036568 
L 94.354667 156.089053 
L 95.29697 155.115296 
L 97.181574 157.06281 
L 98.123876 159.010325 
L 99.066179 157.06281 
L 100.008481 159.010325 
L 100.950783 157.06281 
L 101.893086 158.036568 
L 102.835388 156.089053 
L 104.719992 154.141538 
L 105.662295 154.141538 
L 106.604597 152.194024 
L 107.546899 151.220267 
L 108.489201 154.141538 
L 109.431504 155.115296 
L 110.373806 158.036568 
L 111.316108 163.879111 
L 112.258411 168.747898 
L 113.200713 163.879111 
L 114.143015 165.826626 
L 115.085317 165.826626 
L 116.02762 166.800383 
L 117.912224 166.800383 
L 118.854527 165.826626 
L 120.739131 161.931597 
L 121.681433 161.931597 
L 122.623736 159.984082 
L 126.392945 156.089053 
L 127.335247 159.010325 
L 128.277549 165.826626 
L 129.219852 167.77414 
L 130.162154 165.826626 
L 131.104456 171.669169 
L 132.046758 172.642927 
L 132.989061 168.747898 
L 133.931363 168.747898 
L 134.873665 165.826626 
L 135.815968 160.957839 
L 136.75827 163.879111 
L 137.700572 161.931597 
L 139.585177 154.141538 
L 140.527479 169.721655 
L 142.412084 158.036568 
L 143.354386 160.957839 
L 144.296688 158.036568 
L 145.23899 159.010325 
L 146.181293 158.036568 
L 148.065897 158.036568 
L 149.008199 161.931597 
L 149.950502 163.879111 
L 150.892804 156.089053 
L 151.835106 156.089053 
L 152.777409 161.931597 
L 153.719711 165.826626 
L 154.662013 162.905354 
L 155.604315 166.800383 
L 156.546618 167.77414 
L 158.431222 158.036568 
L 159.373525 160.957839 
L 160.315827 159.984082 
L 161.258129 156.089053 
L 162.200431 154.141538 
L 163.142734 153.167781 
L 164.085036 155.115296 
L 165.027338 153.167781 
L 165.969641 150.246509 
L 166.911943 152.194024 
L 167.854245 151.220267 
L 168.796547 152.194024 
L 169.73885 157.06281 
L 170.681152 159.010325 
L 171.623454 156.089053 
L 172.565756 158.036568 
L 173.508059 157.06281 
L 176.334966 162.905354 
L 177.277268 155.115296 
L 178.21957 152.194024 
L 179.161872 154.141538 
L 180.104175 152.194024 
L 181.046477 152.194024 
L 181.988779 153.167781 
L 182.931082 152.194024 
L 183.873384 150.246509 
L 184.815686 154.141538 
L 185.757988 155.115296 
L 186.700291 157.06281 
L 187.642593 154.141538 
L 188.584895 155.115296 
L 189.527198 154.141538 
L 190.4695 155.115296 
L 191.411802 152.194024 
L 192.354104 156.089053 
L 193.296407 155.115296 
L 194.238709 158.036568 
L 195.181011 156.089053 
L 196.123313 156.089053 
L 197.065616 155.115296 
L 198.007918 152.194024 
L 198.95022 154.141538 
L 200.834825 156.089053 
L 201.777127 160.957839 
L 202.719429 164.852869 
L 203.661732 162.905354 
L 204.604034 164.852869 
L 205.546336 165.826626 
L 206.488639 159.984082 
L 207.430941 162.905354 
L 208.373243 162.905354 
L 209.315545 165.826626 
L 210.257848 163.879111 
L 211.20015 163.879111 
L 212.142452 161.931597 
L 213.084755 163.879111 
L 214.027057 161.931597 
L 214.969359 162.905354 
L 215.911661 160.957839 
L 216.853964 161.931597 
L 217.796266 156.089053 
L 218.738568 159.010325 
L 219.68087 158.036568 
L 220.623173 154.141538 
L 221.565475 158.036568 
L 222.507777 159.010325 
L 223.45008 161.931597 
L 224.392382 161.931597 
L 225.334684 160.957839 
L 226.276986 158.036568 
L 227.219289 156.089053 
L 228.161591 156.089053 
L 229.103893 153.167781 
L 230.046196 158.036568 
L 230.988498 157.06281 
L 231.9308 155.115296 
L 232.873102 159.010325 
L 233.815405 159.010325 
L 234.757707 161.931597 
L 235.700009 159.984082 
L 236.642312 163.879111 
L 237.584614 159.984082 
L 238.526916 164.852869 
L 239.469218 159.984082 
L 240.411521 162.905354 
L 241.353823 163.879111 
L 242.296125 163.879111 
L 244.18073 161.931597 
L 245.123032 161.931597 
L 246.065334 160.957839 
L 247.007637 159.010325 
L 247.949939 158.036568 
L 248.892241 159.010325 
L 249.834543 156.089053 
L 250.776846 154.141538 
L 251.719148 159.010325 
L 252.66145 158.036568 
L 253.603753 156.089053 
L 254.546055 152.194024 
L 255.488357 150.246509 
L 256.430659 156.089053 
L 257.372962 160.957839 
L 258.315264 157.06281 
L 259.257566 157.06281 
L 260.199869 154.141538 
L 261.142171 155.115296 
L 262.084473 155.115296 
L 263.969078 160.957839 
L 264.91138 162.905354 
L 265.853682 162.905354 
L 266.795984 160.957839 
L 267.738287 152.194024 
L 268.680589 155.115296 
L 269.622891 157.06281 
L 270.565194 157.06281 
L 271.507496 159.010325 
L 272.449798 159.010325 
L 273.3921 155.115296 
L 274.334403 157.06281 
L 275.276705 158.036568 
L 276.219007 153.167781 
L 277.16131 154.141538 
L 278.103612 156.089053 
L 279.045914 157.06281 
L 279.988216 156.089053 
L 280.930519 156.089053 
L 281.872821 154.141538 
L 282.815123 153.167781 
L 283.757426 153.167781 
L 284.699728 150.246509 
L 285.64203 155.115296 
L 286.584332 152.194024 
L 287.526635 150.246509 
L 288.468937 151.220267 
L 289.411239 149.272752 
L 291.295844 153.167781 
L 292.238146 154.141538 
L 293.180448 161.931597 
L 294.122751 159.984082 
L 295.065053 159.010325 
L 296.007355 156.089053 
L 296.949657 158.036568 
L 297.89196 158.036568 
L 298.834262 156.089053 
L 299.776564 158.036568 
L 300.718867 156.089053 
L 301.661169 158.036568 
L 302.603471 158.036568 
L 303.545773 155.115296 
L 304.488076 159.984082 
L 305.430378 159.010325 
L 306.37268 162.905354 
L 308.257285 162.905354 
L 309.199587 167.77414 
L 310.141889 163.879111 
L 311.084192 167.77414 
L 312.026494 163.879111 
L 312.968796 164.852869 
L 313.911098 163.879111 
L 314.853401 160.957839 
L 315.795703 163.879111 
L 316.738005 162.905354 
L 317.680308 164.852869 
L 318.62261 161.931597 
L 319.564912 161.931597 
L 320.507214 159.984082 
L 321.449517 160.957839 
L 322.391819 159.010325 
L 323.334121 160.957839 
L 325.218726 157.06281 
L 326.161028 157.06281 
L 327.10333 159.010325 
L 328.045633 159.984082 
L 328.987935 158.036568 
L 329.930237 155.115296 
L 330.872539 151.220267 
L 331.814842 153.167781 
L 332.757144 154.141538 
L 333.699446 154.141538 
L 334.641749 153.167781 
L 335.584051 155.115296 
L 336.526353 156.089053 
L 337.468655 154.141538 
L 338.410958 155.115296 
L 339.35326 153.167781 
L 340.295562 150.246509 
L 341.237865 152.194024 
L 342.180167 150.246509 
L 343.122469 149.272752 
L 344.064771 146.35148 
L 345.007074 148.298995 
L 345.949376 147.325238 
L 346.891678 150.246509 
L 347.833981 152.194024 
L 348.776283 153.167781 
L 349.718585 153.167781 
L 350.660887 154.141538 
L 351.60319 152.194024 
L 353.487794 152.194024 
L 354.430096 151.220267 
L 355.372399 154.141538 
L 356.314701 152.194024 
L 357.257003 151.220267 
L 358.199306 149.272752 
L 359.141608 145.377723 
L 360.08391 152.194024 
L 361.026212 151.220267 
L 361.968515 153.167781 
L 363.853119 147.325238 
L 364.795422 149.272752 
L 365.737724 154.141538 
L 366.680026 155.115296 
L 367.622328 152.194024 
L 368.564631 153.167781 
L 368.564631 153.167781 
" style="fill:none;stroke:#1f77b4;stroke-linecap:square;stroke-width:1.5;"/>
   </g>
   <g id="line2d_18">
    <path clip-path="url(#p6b1939cfc6)" d="M 64.200994 155.115296 
L 65.143297 158.036568 
L 67.027901 158.036568 
L 68.912506 159.984082 
L 69.854808 157.06281 
L 70.79711 160.957839 
L 72.681715 162.905354 
L 73.624017 157.06281 
L 74.566319 156.089053 
L 77.393226 161.931597 
L 78.335529 159.984082 
L 79.277831 160.957839 
L 80.220133 157.06281 
L 81.162435 157.06281 
L 82.104738 158.036568 
L 83.04704 159.984082 
L 83.989342 160.957839 
L 84.931644 160.957839 
L 85.873947 158.036568 
L 86.816249 160.957839 
L 87.758551 157.06281 
L 88.700854 159.984082 
L 89.643156 159.984082 
L 91.52776 156.089053 
L 92.470063 158.036568 
L 93.412365 160.957839 
L 94.354667 160.957839 
L 95.29697 159.984082 
L 96.239272 159.984082 
L 97.181574 160.957839 
L 98.123876 162.905354 
L 99.066179 160.957839 
L 100.008481 161.931597 
L 100.950783 161.931597 
L 101.893086 159.010325 
L 102.835388 158.036568 
L 103.77769 155.115296 
L 105.662295 155.115296 
L 106.604597 157.06281 
L 107.546899 155.115296 
L 108.489201 155.115296 
L 109.431504 158.036568 
L 110.373806 154.141538 
L 111.316108 159.010325 
L 113.200713 157.06281 
L 114.143015 164.852869 
L 116.969922 159.010325 
L 117.912224 160.957839 
L 118.854527 155.115296 
L 119.796829 154.141538 
L 120.739131 151.220267 
L 121.681433 152.194024 
L 122.623736 154.141538 
L 123.566038 152.194024 
L 124.50834 160.957839 
L 125.450643 157.06281 
L 126.392945 156.089053 
L 127.335247 153.167781 
L 128.277549 156.089053 
L 129.219852 153.167781 
L 130.162154 153.167781 
L 131.104456 158.036568 
L 132.046758 154.141538 
L 132.989061 151.220267 
L 133.931363 153.167781 
L 134.873665 153.167781 
L 135.815968 156.089053 
L 136.75827 149.272752 
L 137.700572 149.272752 
L 138.642874 151.220267 
L 139.585177 149.272752 
L 141.469781 159.010325 
L 143.354386 151.220267 
L 144.296688 152.194024 
L 145.23899 151.220267 
L 146.181293 148.298995 
L 147.123595 149.272752 
L 149.950502 155.115296 
L 150.892804 150.246509 
L 153.719711 156.089053 
L 154.662013 157.06281 
L 155.604315 156.089053 
L 156.546618 153.167781 
L 157.48892 153.167781 
L 158.431222 157.06281 
L 159.373525 158.036568 
L 160.315827 154.141538 
L 161.258129 153.167781 
L 162.200431 151.220267 
L 163.142734 155.115296 
L 164.085036 152.194024 
L 165.027338 154.141538 
L 165.969641 159.984082 
L 166.911943 157.06281 
L 167.854245 159.010325 
L 168.796547 154.141538 
L 169.73885 159.984082 
L 170.681152 159.984082 
L 171.623454 157.06281 
L 172.565756 157.06281 
L 173.508059 160.957839 
L 174.450361 159.984082 
L 175.392663 157.06281 
L 176.334966 164.852869 
L 177.277268 159.010325 
L 178.21957 157.06281 
L 179.161872 157.06281 
L 180.104175 159.984082 
L 181.046477 159.984082 
L 181.988779 159.010325 
L 182.931082 161.931597 
L 183.873384 160.957839 
L 184.815686 157.06281 
L 185.757988 157.06281 
L 186.700291 158.036568 
L 187.642593 157.06281 
L 188.584895 153.167781 
L 189.527198 155.115296 
L 190.4695 154.141538 
L 191.411802 157.06281 
L 192.354104 159.010325 
L 193.296407 155.115296 
L 194.238709 156.089053 
L 195.181011 155.115296 
L 196.123313 158.036568 
L 197.065616 159.010325 
L 198.007918 159.010325 
L 198.95022 162.905354 
L 201.777127 159.984082 
L 202.719429 159.984082 
L 203.661732 162.905354 
L 204.604034 163.879111 
L 205.546336 160.957839 
L 206.488639 162.905354 
L 207.430941 159.984082 
L 208.373243 160.957839 
L 209.315545 156.089053 
L 210.257848 156.089053 
L 211.20015 152.194024 
L 212.142452 152.194024 
L 214.027057 148.298995 
L 214.969359 149.272752 
L 215.911661 154.141538 
L 216.853964 155.115296 
L 217.796266 159.984082 
L 218.738568 163.879111 
L 219.68087 160.957839 
L 220.623173 161.931597 
L 221.565475 157.06281 
L 222.507777 157.06281 
L 223.45008 156.089053 
L 224.392382 162.905354 
L 226.276986 157.06281 
L 227.219289 156.089053 
L 228.161591 158.036568 
L 229.103893 159.010325 
L 230.046196 159.010325 
L 230.988498 158.036568 
L 231.9308 160.957839 
L 232.873102 154.141538 
L 233.815405 159.984082 
L 234.757707 158.036568 
L 235.700009 157.06281 
L 236.642312 158.036568 
L 237.584614 155.115296 
L 238.526916 155.115296 
L 239.469218 153.167781 
L 240.411521 152.194024 
L 241.353823 154.141538 
L 242.296125 151.220267 
L 243.238427 158.036568 
L 244.18073 160.957839 
L 245.123032 160.957839 
L 246.065334 159.984082 
L 247.007637 160.957839 
L 247.949939 159.984082 
L 248.892241 161.931597 
L 249.834543 159.010325 
L 250.776846 158.036568 
L 251.719148 158.036568 
L 252.66145 159.010325 
L 254.546055 157.06281 
L 255.488357 155.115296 
L 256.430659 156.089053 
L 257.372962 153.167781 
L 258.315264 153.167781 
L 259.257566 148.298995 
L 260.199869 157.06281 
L 261.142171 157.06281 
L 262.084473 154.141538 
L 263.026775 153.167781 
L 263.969078 153.167781 
L 264.91138 161.931597 
L 265.853682 159.984082 
L 266.795984 159.984082 
L 267.738287 155.115296 
L 268.680589 151.220267 
L 269.622891 156.089053 
L 270.565194 151.220267 
L 271.507496 149.272752 
L 273.3921 153.167781 
L 274.334403 150.246509 
L 275.276705 148.298995 
L 276.219007 155.115296 
L 277.16131 154.141538 
L 278.103612 156.089053 
L 279.045914 155.115296 
L 279.988216 158.036568 
L 280.930519 158.036568 
L 281.872821 161.931597 
L 282.815123 157.06281 
L 283.757426 159.984082 
L 284.699728 159.984082 
L 286.584332 163.879111 
L 287.526635 163.879111 
L 288.468937 158.036568 
L 289.411239 154.141538 
L 290.353541 152.194024 
L 291.295844 148.298995 
L 292.238146 151.220267 
L 293.180448 158.036568 
L 294.122751 162.905354 
L 295.065053 164.852869 
L 296.007355 159.984082 
L 296.949657 159.984082 
L 297.89196 158.036568 
L 298.834262 155.115296 
L 299.776564 154.141538 
L 300.718867 152.194024 
L 301.661169 151.220267 
L 302.603471 151.220267 
L 303.545773 145.377723 
L 304.488076 151.220267 
L 305.430378 150.246509 
L 306.37268 151.220267 
L 307.314982 154.141538 
L 308.257285 154.141538 
L 309.199587 152.194024 
L 310.141889 157.06281 
L 311.084192 157.06281 
L 312.968796 155.115296 
L 313.911098 155.115296 
L 314.853401 151.220267 
L 315.795703 149.272752 
L 317.680308 151.220267 
L 318.62261 150.246509 
L 320.507214 152.194024 
L 321.449517 155.115296 
L 322.391819 156.089053 
L 323.334121 158.036568 
L 324.276424 159.010325 
L 325.218726 162.905354 
L 326.161028 165.826626 
L 327.10333 160.957839 
L 328.045633 165.826626 
L 328.987935 164.852869 
L 329.930237 159.010325 
L 330.872539 157.06281 
L 331.814842 154.141538 
L 332.757144 158.036568 
L 333.699446 159.010325 
L 334.641749 157.06281 
L 335.584051 159.010325 
L 336.526353 158.036568 
L 337.468655 159.984082 
L 338.410958 157.06281 
L 339.35326 155.115296 
L 340.295562 154.141538 
L 341.237865 159.984082 
L 342.180167 159.010325 
L 343.122469 160.957839 
L 344.064771 158.036568 
L 345.007074 158.036568 
L 345.949376 159.984082 
L 346.891678 158.036568 
L 347.833981 157.06281 
L 348.776283 157.06281 
L 349.718585 155.115296 
L 350.660887 155.115296 
L 351.60319 153.167781 
L 352.545492 156.089053 
L 353.487794 155.115296 
L 354.430096 153.167781 
L 355.372399 153.167781 
L 356.314701 150.246509 
L 357.257003 153.167781 
L 358.199306 158.036568 
L 359.141608 153.167781 
L 360.08391 158.036568 
L 361.026212 153.167781 
L 361.968515 157.06281 
L 362.910817 155.115296 
L 364.795422 153.167781 
L 365.737724 151.220267 
L 366.680026 154.141538 
L 367.622328 153.167781 
L 368.564631 151.220267 
L 368.564631 151.220267 
" style="fill:none;stroke:#ff7f0e;stroke-linecap:square;stroke-width:1.5;"/>
   </g>
   <g id="line2d_19">
    <path clip-path="url(#p6b1939cfc6)" d="M 64.200994 134.666393 
L 65.143297 135.64015 
L 66.085599 133.692636 
L 67.027901 126.876335 
L 67.970203 118.112519 
L 69.854808 133.692636 
L 70.79711 56.765811 
L 71.739413 29.500607 
L 72.681715 52.870782 
L 73.624017 128.823849 
L 74.566319 122.007548 
L 76.450924 122.007548 
L 77.393226 122.981306 
L 78.335529 139.535179 
L 79.277831 125.902577 
L 80.220133 129.797607 
L 81.162435 128.823849 
L 83.04704 130.771364 
L 83.989342 132.718878 
L 84.931644 127.850092 
L 85.873947 130.771364 
L 86.816249 136.613908 
L 87.758551 143.430208 
L 89.643156 133.692636 
L 90.585458 145.377723 
L 91.52776 148.298995 
L 92.470063 135.64015 
L 93.412365 132.718878 
L 94.354667 132.718878 
L 95.29697 133.692636 
L 97.181574 120.060034 
L 98.123876 124.92882 
L 99.066179 125.902577 
L 100.008481 110.322461 
L 100.950783 127.850092 
L 101.893086 124.92882 
L 102.835388 139.535179 
L 103.77769 141.482694 
L 104.719992 142.456451 
L 105.662295 134.666393 
L 106.604597 122.007548 
L 107.546899 128.823849 
L 108.489201 128.823849 
L 109.431504 117.138762 
L 110.373806 120.060034 
L 111.316108 66.503384 
L 112.258411 66.503384 
L 113.200713 132.718878 
L 114.143015 145.377723 
L 115.085317 141.482694 
L 116.02762 140.508937 
L 116.969922 136.613908 
L 117.912224 144.403966 
L 118.854527 139.535179 
L 119.796829 138.561422 
L 120.739131 120.060034 
L 121.681433 110.322461 
L 122.623736 121.033791 
L 123.566038 115.191247 
L 124.50834 130.771364 
L 125.450643 137.587665 
L 126.392945 129.797607 
L 127.335247 133.692636 
L 128.277549 48.001995 
L 129.219852 43.133209 
L 130.162154 34.369393 
L 131.104456 44.106966 
L 132.046758 20.736792 
L 132.989061 41.185694 
L 133.931363 33.395636 
L 134.873665 55.792054 
L 135.815968 143.430208 
L 136.75827 140.508937 
L 137.700572 135.64015 
L 138.642874 122.981306 
L 139.585177 98.637374 
L 140.527479 148.298995 
L 141.469781 148.298995 
L 142.412084 147.325238 
L 143.354386 142.456451 
L 144.296688 141.482694 
L 145.23899 137.587665 
L 147.123595 133.692636 
L 148.065897 139.535179 
L 149.008199 131.745121 
L 149.950502 131.745121 
L 150.892804 136.613908 
L 151.835106 139.535179 
L 152.777409 136.613908 
L 153.719711 134.666393 
L 154.662013 150.246509 
L 155.604315 153.167781 
L 156.546618 151.220267 
L 157.48892 142.456451 
L 158.431222 138.561422 
L 160.315827 142.456451 
L 161.258129 138.561422 
L 162.200431 138.561422 
L 163.142734 142.456451 
L 164.085036 139.535179 
L 165.027338 138.561422 
L 165.969641 135.64015 
L 167.854245 141.482694 
L 168.796547 139.535179 
L 169.73885 142.456451 
L 171.623454 144.403966 
L 172.565756 147.325238 
L 173.508059 147.325238 
L 174.450361 151.220267 
L 175.392663 141.482694 
L 176.334966 139.535179 
L 177.277268 142.456451 
L 178.21957 143.430208 
L 179.161872 140.508937 
L 180.104175 146.35148 
L 181.046477 142.456451 
L 181.988779 141.482694 
L 182.931082 146.35148 
L 183.873384 143.430208 
L 184.815686 145.377723 
L 185.757988 142.456451 
L 186.700291 145.377723 
L 187.642593 139.535179 
L 188.584895 139.535179 
L 189.527198 138.561422 
L 190.4695 145.377723 
L 192.354104 137.587665 
L 193.296407 140.508937 
L 194.238709 144.403966 
L 195.181011 145.377723 
L 196.123313 144.403966 
L 197.065616 147.325238 
L 198.007918 146.35148 
L 198.95022 148.298995 
L 199.892523 152.194024 
L 200.834825 150.246509 
L 201.777127 149.272752 
L 202.719429 146.35148 
L 203.661732 140.508937 
L 204.604034 139.535179 
L 205.546336 139.535179 
L 206.488639 137.587665 
L 207.430941 136.613908 
L 208.373243 137.587665 
L 209.315545 139.535179 
L 210.257848 144.403966 
L 211.20015 140.508937 
L 212.142452 150.246509 
L 213.084755 149.272752 
L 214.027057 152.194024 
L 214.969359 154.141538 
L 215.911661 155.115296 
L 216.853964 187.249286 
L 217.796266 184.328014 
L 218.738568 183.354257 
L 220.623173 177.511713 
L 221.565475 169.721655 
L 222.507777 169.721655 
L 223.45008 168.747898 
L 224.392382 162.905354 
L 225.334684 167.77414 
L 226.276986 167.77414 
L 227.219289 168.747898 
L 228.161591 171.669169 
L 229.103893 177.511713 
L 230.046196 180.432985 
L 230.988498 176.537956 
L 231.9308 190.170558 
L 232.873102 184.328014 
L 233.815405 185.301771 
L 234.757707 171.669169 
L 235.700009 177.511713 
L 236.642312 157.06281 
L 237.584614 175.564199 
L 238.526916 170.695412 
L 239.469218 168.747898 
L 240.411521 170.695412 
L 241.353823 173.616684 
L 242.296125 178.48547 
L 243.238427 165.826626 
L 244.18073 171.669169 
L 245.123032 178.48547 
L 246.065334 181.406742 
L 247.007637 175.564199 
L 247.949939 179.459228 
L 248.892241 178.48547 
L 249.834543 185.301771 
L 250.776846 186.275529 
L 251.719148 169.721655 
L 252.66145 166.800383 
L 253.603753 176.537956 
L 254.546055 173.616684 
L 255.488357 171.669169 
L 256.430659 171.669169 
L 257.372962 175.564199 
L 258.315264 170.695412 
L 259.257566 176.537956 
L 260.199869 173.616684 
L 261.142171 169.721655 
L 262.084473 177.511713 
L 263.026775 177.511713 
L 263.969078 169.721655 
L 264.91138 178.48547 
L 265.853682 179.459228 
L 266.795984 181.406742 
L 267.738287 166.800383 
L 268.680589 159.010325 
L 269.622891 152.194024 
L 270.565194 159.984082 
L 271.507496 159.010325 
L 272.449798 165.826626 
L 273.3921 169.721655 
L 274.334403 172.642927 
L 275.276705 172.642927 
L 276.219007 170.695412 
L 277.16131 169.721655 
L 278.103612 164.852869 
L 279.045914 163.879111 
L 279.988216 159.010325 
L 280.930519 156.089053 
L 281.872821 154.141538 
L 282.815123 160.957839 
L 283.757426 160.957839 
L 284.699728 157.06281 
L 285.64203 159.984082 
L 286.584332 158.036568 
L 287.526635 161.931597 
L 288.468937 162.905354 
L 289.411239 165.826626 
L 290.353541 166.800383 
L 291.295844 171.669169 
L 292.238146 174.590441 
L 293.180448 162.905354 
L 295.065053 164.852869 
L 296.007355 177.511713 
L 296.949657 184.328014 
L 297.89196 190.170558 
L 298.834262 196.986859 
L 299.776564 187.249286 
L 300.718867 194.065587 
L 301.661169 198.934373 
L 302.603471 194.065587 
L 303.545773 218.409519 
L 304.488076 176.537956 
L 305.430378 168.747898 
L 306.37268 169.721655 
L 307.314982 156.089053 
L 308.257285 158.036568 
L 309.199587 154.141538 
L 310.141889 157.06281 
L 311.084192 157.06281 
L 312.026494 159.984082 
L 312.968796 165.826626 
L 313.911098 165.826626 
L 314.853401 175.564199 
L 315.795703 183.354257 
L 317.680308 191.144315 
L 318.62261 186.275529 
L 319.564912 185.301771 
L 320.507214 185.301771 
L 321.449517 172.642927 
L 322.391819 185.301771 
L 323.334121 169.721655 
L 324.276424 166.800383 
L 325.218726 156.089053 
L 326.161028 156.089053 
L 327.10333 152.194024 
L 328.045633 162.905354 
L 328.987935 159.984082 
L 329.930237 156.089053 
L 330.872539 164.852869 
L 331.814842 159.984082 
L 332.757144 183.354257 
L 333.699446 179.459228 
L 334.641749 178.48547 
L 335.584051 175.564199 
L 336.526353 169.721655 
L 337.468655 166.800383 
L 338.410958 164.852869 
L 339.35326 159.010325 
L 340.295562 162.905354 
L 341.237865 162.905354 
L 342.180167 157.06281 
L 343.122469 159.010325 
L 344.064771 162.905354 
L 345.007074 175.564199 
L 345.949376 165.826626 
L 346.891678 159.984082 
L 347.833981 176.537956 
L 348.776283 172.642927 
L 349.718585 171.669169 
L 350.660887 171.669169 
L 351.60319 178.48547 
L 352.545492 181.406742 
L 353.487794 180.432985 
L 354.430096 183.354257 
L 356.314701 171.669169 
L 357.257003 178.48547 
L 358.199306 170.695412 
L 359.141608 166.800383 
L 360.08391 170.695412 
L 361.026212 182.3805 
L 361.968515 176.537956 
L 362.910817 177.511713 
L 363.853119 184.328014 
L 364.795422 171.669169 
L 365.737724 180.432985 
L 366.680026 180.432985 
L 367.622328 174.590441 
L 368.564631 171.669169 
L 368.564631 171.669169 
" style="fill:none;stroke:#2ca02c;stroke-linecap:square;stroke-width:1.5;"/>
   </g>
   <g id="patch_3">
    <path d="M 48.982813 228.293155 
L 48.982813 10.853155 
" style="fill:none;stroke:#000000;stroke-linecap:square;stroke-linejoin:miter;stroke-width:0.8;"/>
   </g>
   <g id="patch_4">
    <path d="M 383.782813 228.293155 
L 383.782813 10.853155 
" style="fill:none;stroke:#000000;stroke-linecap:square;stroke-linejoin:miter;stroke-width:0.8;"/>
   </g>
   <g id="patch_5">
    <path d="M 48.982813 228.293155 
L 383.782812 228.293155 
" style="fill:none;stroke:#000000;stroke-linecap:square;stroke-linejoin:miter;stroke-width:0.8;"/>
   </g>
   <g id="patch_6">
    <path d="M 48.982813 10.853155 
L 383.782812 10.853155 
" style="fill:none;stroke:#000000;stroke-linecap:square;stroke-linejoin:miter;stroke-width:0.8;"/>
   </g>
   <g id="legend_1">
    <g id="patch_7">
     <path d="M 325.982813 63.907843 
L 376.782813 63.907843 
Q 378.782813 63.907843 378.782813 61.907843 
L 378.782813 17.853155 
Q 378.782813 15.853155 376.782813 15.853155 
L 325.982813 15.853155 
Q 323.982813 15.853155 323.982813 17.853155 
L 323.982813 61.907843 
Q 323.982813 63.907843 325.982813 63.907843 
z
" style="fill:#ffffff;opacity:0.8;stroke:#cccccc;stroke-linejoin:miter;"/>
    </g>
    <g id="line2d_20">
     <path d="M 327.982813 23.951593 
L 347.982813 23.951593 
" style="fill:none;stroke:#1f77b4;stroke-linecap:square;stroke-width:1.5;"/>
    </g>
    <g id="line2d_21"/>
    <g id="text_19">
     <!-- $err_x$ -->
     <defs>
      <path d="M 48.09375 32.234375 
Q 48.25 33.015625 48.3125 33.84375 
Q 48.390625 34.671875 48.390625 35.5 
Q 48.390625 41.453125 44.890625 44.921875 
Q 41.40625 48.390625 35.40625 48.390625 
Q 28.71875 48.390625 23.578125 44.15625 
Q 18.453125 39.9375 15.828125 32.171875 
z
M 55.90625 25.203125 
L 14.109375 25.203125 
Q 13.8125 23.34375 13.71875 22.265625 
Q 13.625 21.1875 13.625 20.40625 
Q 13.625 13.625 17.796875 9.90625 
Q 21.96875 6.203125 29.59375 6.203125 
Q 35.453125 6.203125 40.671875 7.515625 
Q 45.90625 8.84375 50.390625 11.375 
L 48.6875 2.484375 
Q 43.84375 0.53125 38.6875 -0.4375 
Q 33.546875 -1.421875 28.21875 -1.421875 
Q 16.84375 -1.421875 10.71875 4.015625 
Q 4.59375 9.46875 4.59375 19.484375 
Q 4.59375 28.03125 7.640625 35.375 
Q 10.6875 42.71875 16.609375 48.484375 
Q 20.40625 52.09375 25.65625 54.046875 
Q 30.90625 56 36.8125 56 
Q 46.09375 56 51.578125 50.4375 
Q 57.078125 44.875 57.078125 35.5 
Q 57.078125 33.25 56.78125 30.6875 
Q 56.5 28.125 55.90625 25.203125 
z
" id="DejaVuSans-Oblique-101"/>
      <path d="M 44.578125 46.390625 
Q 43.21875 47.125 41.453125 47.515625 
Q 39.703125 47.90625 37.703125 47.90625 
Q 30.515625 47.90625 25.140625 42.453125 
Q 19.78125 37.015625 18.015625 27.875 
L 12.5 0 
L 3.515625 0 
L 14.203125 54.6875 
L 23.1875 54.6875 
L 21.484375 46.1875 
Q 25.046875 50.921875 30 53.453125 
Q 34.96875 56 40.578125 56 
Q 42.046875 56 43.453125 55.828125 
Q 44.875 55.671875 46.296875 55.28125 
z
" id="DejaVuSans-Oblique-114"/>
      <path d="M 60.015625 54.6875 
L 34.90625 27.875 
L 50.296875 0 
L 39.984375 0 
L 28.421875 21.6875 
L 8.296875 0 
L -2.59375 0 
L 24.3125 28.8125 
L 10.015625 54.6875 
L 20.3125 54.6875 
L 30.8125 34.90625 
L 49.125 54.6875 
z
" id="DejaVuSans-Oblique-120"/>
     </defs>
     <g transform="translate(355.982813 27.451593)scale(0.1 -0.1)">
      <use xlink:href="#DejaVuSans-Oblique-101"/>
      <use transform="translate(61.523438 0)" xlink:href="#DejaVuSans-Oblique-114"/>
      <use transform="translate(102.636719 0)" xlink:href="#DejaVuSans-Oblique-114"/>
      <use transform="translate(143.75 -16.40625)scale(0.7)" xlink:href="#DejaVuSans-Oblique-120"/>
     </g>
    </g>
    <g id="line2d_22">
     <path d="M 327.982813 38.629718 
L 347.982813 38.629718 
" style="fill:none;stroke:#ff7f0e;stroke-linecap:square;stroke-width:1.5;"/>
    </g>
    <g id="line2d_23"/>
    <g id="text_20">
     <!-- $err_y$ -->
     <defs>
      <path d="M 24.8125 -5.078125 
Q 18.5625 -15.578125 14.625 -18.1875 
Q 10.6875 -20.796875 4.59375 -20.796875 
L -2.484375 -20.796875 
L -0.984375 -13.28125 
L 4.203125 -13.28125 
Q 7.953125 -13.28125 10.59375 -11.234375 
Q 13.234375 -9.1875 16.5 -3.21875 
L 19.28125 2 
L 7.171875 54.6875 
L 16.703125 54.6875 
L 25.78125 12.796875 
L 50.875 54.6875 
L 60.296875 54.6875 
z
" id="DejaVuSans-Oblique-121"/>
     </defs>
     <g transform="translate(355.982813 42.129718)scale(0.1 -0.1)">
      <use xlink:href="#DejaVuSans-Oblique-101"/>
      <use transform="translate(61.523438 0)" xlink:href="#DejaVuSans-Oblique-114"/>
      <use transform="translate(102.636719 0)" xlink:href="#DejaVuSans-Oblique-114"/>
      <use transform="translate(143.75 -16.40625)scale(0.7)" xlink:href="#DejaVuSans-Oblique-121"/>
     </g>
    </g>
    <g id="line2d_24">
     <path d="M 327.982813 54.328155 
L 347.982813 54.328155 
" style="fill:none;stroke:#2ca02c;stroke-linecap:square;stroke-width:1.5;"/>
    </g>
    <g id="line2d_25"/>
    <g id="text_21">
     <!-- $err_z$ -->
     <defs>
      <path d="M 11.625 54.6875 
L 54.296875 54.6875 
L 52.6875 46.484375 
L 11.53125 7.171875 
L 45.515625 7.171875 
L 44.09375 0 
L -0.296875 0 
L 1.3125 8.203125 
L 42.484375 47.515625 
L 10.203125 47.515625 
z
" id="DejaVuSans-Oblique-122"/>
     </defs>
     <g transform="translate(355.982813 57.828155)scale(0.1 -0.1)">
      <use xlink:href="#DejaVuSans-Oblique-101"/>
      <use transform="translate(61.523438 0)" xlink:href="#DejaVuSans-Oblique-114"/>
      <use transform="translate(102.636719 0)" xlink:href="#DejaVuSans-Oblique-114"/>
      <use transform="translate(143.75 -16.40625)scale(0.7)" xlink:href="#DejaVuSans-Oblique-122"/>
     </g>
    </g>
   </g>
  </g>
 </g>
 <defs>
  <clipPath id="p6b1939cfc6">
   <rect height="217.44" width="334.8" x="48.982813" y="10.853155"/>
  </clipPath>
 </defs>
</svg>
